font.ufo
<glyph name="exclam" format="1">
  <advance width="270"/>
  <unicode hex="0021"/>
  <outline>
    <contour>
      <point x="85" y="677" type="line"/>
      <point x="97" y="185" type="line"/>
      <point x="172" y="185" type="line"/>
      <point x="184" y="677" type="line"/>
    </contour>
    <contour>
      <point x="81" y="47" type="curve" smooth="yes"/>
      <point x="81" y="15"/>
      <point x="94" y="-7"/>
      <point x="135" y="-7" type="curve" smooth="yes"/>
      <point x="175" y="-7"/>
      <point x="189" y="15"/>
      <point x="189" y="47" type="curve" smooth="yes"/>
      <point x="189" y="80"/>
      <point x="175" y="102"/>
      <point x="135" y="102" type="curve" smooth="yes"/>
      <point x="94" y="102"/>
      <point x="81" y="80"/>
    </contour>
  </outline>
</glyph>
<glyph name="quotedbl" format="1">
  <advance width="386"/>
  <unicode hex="0022"/>
  <outline>
    <contour>
      <point x="221" y="753" type="line"/>
      <point x="221" y="530" type="line"/>
      <point x="301" y="530" type="line"/>
      <point x="301" y="753" type="line"/>
    </contour>
    <contour>
      <point x="82" y="753" type="line"/>
      <point x="82" y="530" type="line"/>
      <point x="162" y="530" type="line"/>
      <point x="162" y="753" type="line"/>
    </contour>
  </outline>
</glyph>
<glyph name="numbersign" format="1">
  <advance width="557"/>
  <unicode hex="0023"/>
  <outline>
    <contour>
      <point x="396" y="665" type="line"/>
      <point x="299" y="0" type="line"/>
      <point x="380" y="0" type="line"/>
      <point x="476" y="665" type="line"/>
    </contour>
    <contour>
      <point x="37" y="243" type="line"/>
      <point x="37" y="172" type="line"/>
      <point x="490" y="172" type="line"/>
      <point x="490" y="243" type="line"/>
    </contour>
    <contour>
      <point x="186" y="665" type="line"/>
      <point x="90" y="0" type="line"/>
      <point x="170" y="0" type="line"/>
      <point x="266" y="665" type="line"/>
    </contour>
    <contour>
      <point x="73" y="493" type="line"/>
      <point x="73" y="422" type="line"/>
      <point x="526" y="422" type="line"/>
      <point x="526" y="493" type="line"/>
    </contour>
  </outline>
</glyph>
<glyph name="dollar" format="1">
  <advance width="401"/>
  <unicode hex="0024"/>
  <outline>
    <contour>
      <point x="156" y="739" type="line"/>
      <point x="156" y="659" type="line"/>
      <point x="242" y="659" type="line"/>
      <point x="242" y="739" type="line"/>
    </contour>
    <contour>
      <point x="148" y="9" type="line"/>
      <point x="148" y="-69" type="line"/>
      <point x="233" y="-69" type="line"/>
      <point x="233" y="9" type="line"/>
    </contour>
    <component base="S"/>
  </outline>
</glyph>
<glyph name="percent" format="1">
  <advance width="608"/>
  <unicode hex="0025"/>
  <outline>
    <contour>
      <point x="413" y="677" type="line"/>
      <point x="129" y="0" type="line"/>
      <point x="196" y="0" type="line"/>
      <point x="479" y="677" type="line"/>
    </contour>
    <contour>
      <point x="205" y="536" type="curve" smooth="yes"/>
      <point x="205" y="478"/>
      <point x="190" y="448"/>
      <point x="154" y="448" type="curve" smooth="yes"/>
      <point x="119" y="448"/>
      <point x="104" y="478"/>
      <point x="104" y="536" type="curve" smooth="yes"/>
      <point x="104" y="592"/>
      <point x="119" y="622"/>
      <point x="154" y="622" type="curve" smooth="yes"/>
      <point x="190" y="622"/>
      <point x="205" y="592"/>
    </contour>
    <contour>
      <point x="35" y="536" type="curve" smooth="yes"/>
      <point x="35" y="444"/>
      <point x="72" y="385"/>
      <point x="155" y="385" type="curve" smooth="yes"/>
      <point x="238" y="385"/>
      <point x="274" y="444"/>
      <point x="274" y="536" type="curve" smooth="yes"/>
      <point x="274" y="627"/>
      <point x="238" y="686"/>
      <point x="155" y="686" type="curve" smooth="yes"/>
      <point x="72" y="686"/>
      <point x="35" y="627"/>
    </contour>
    <contour>
      <point x="504" y="143" type="curve"/>
      <point x="504" y="85"/>
      <point x="488" y="56"/>
      <point x="453" y="56" type="curve" smooth="yes"/>
      <point x="417" y="56"/>
      <point x="402" y="85"/>
      <point x="402" y="143" type="curve" smooth="yes"/>
      <point x="402" y="199"/>
      <point x="417" y="229"/>
      <point x="453" y="229" type="curve" smooth="yes"/>
      <point x="488" y="229"/>
      <point x="504" y="200"/>
    </contour>
    <contour>
      <point x="334" y="143" type="curve"/>
      <point x="334" y="51"/>
      <point x="370" y="-8"/>
      <point x="453" y="-8" type="curve" smooth="yes"/>
      <point x="536" y="-8"/>
      <point x="573" y="51"/>
      <point x="573" y="143" type="curve" smooth="yes"/>
      <point x="573" y="234"/>
      <point x="536" y="293"/>
      <point x="453" y="293" type="curve" smooth="yes"/>
      <point x="370" y="293"/>
      <point x="334" y="234"/>
    </contour>
  </outline>
</glyph>
<glyph name="ampersand" format="1">
  <advance width="470"/>
  <unicode hex="0026"/>
  <outline>
    <contour>
      <point x="54" y="529" type="curve"/>
      <point x="54" y="472" type="line" smooth="yes"/>
      <point x="54" y="411"/>
      <point x="81" y="369"/>
      <point x="129" y="351" type="curve"/>
      <point x="78" y="333"/>
      <point x="53" y="292"/>
      <point x="53" y="231" type="curve" smooth="yes"/>
      <point x="53" y="156" type="line" smooth="yes"/>
      <point x="53" y="61"/>
      <point x="112" y="-8"/>
      <point x="235" y="-8" type="curve" smooth="yes"/>
      <point x="358" y="-8"/>
      <point x="413" y="61"/>
      <point x="413" y="156" type="curve" smooth="yes"/>
      <point x="413" y="450" type="line"/>
      <point x="323" y="450" type="line"/>
      <point x="323" y="157" type="line" smooth="yes"/>
      <point x="323" y="107"/>
      <point x="298" y="73"/>
      <point x="235" y="73" type="curve" smooth="yes"/>
      <point x="172" y="73"/>
      <point x="145" y="108"/>
      <point x="145" y="157" type="curve" smooth="yes"/>
      <point x="145" y="227" type="line" smooth="yes"/>
      <point x="145" y="276"/>
      <point x="167" y="309"/>
      <point x="226" y="309" type="curve" smooth="yes"/>
      <point x="457" y="309" type="line"/>
      <point x="457" y="389" type="line"/>
      <point x="224" y="389" type="line" smooth="yes"/>
      <point x="165" y="389"/>
      <point x="146" y="422"/>
      <point x="146" y="473" type="curve" smooth="yes"/>
      <point x="146" y="521" type="line" smooth="yes"/>
      <point x="146" y="565"/>
      <point x="168" y="597"/>
      <point x="255" y="597" type="curve" smooth="yes"/>
      <point x="305" y="597"/>
      <point x="347" y="590"/>
      <point x="379" y="578" type="curve"/>
      <point x="379" y="666" type="line"/>
      <point x="351" y="675"/>
      <point x="307" y="683"/>
      <point x="253" y="683" type="curve" smooth="yes"/>
      <point x="114" y="683"/>
      <point x="54" y="620"/>
    </contour>
  </outline>
</glyph>
<glyph name="quotesingle" format="1">
  <advance width="248"/>
  <unicode hex="0027"/>
  <outline>
    <contour>
      <point x="82" y="753" type="line"/>
      <point x="82" y="530" type="line"/>
      <point x="165" y="530" type="line"/>
      <point x="165" y="753" type="line"/>
    </contour>
  </outline>
</glyph>
<glyph name="parenleft" format="1">
  <advance width="303"/>
  <unicode hex="0028"/>
  <outline>
    <contour>
      <point x="165" y="800" type="line"/>
      <point x="108" y="679"/>
      <point x="67" y="498"/>
      <point x="67" y="328" type="curve" smooth="yes"/>
      <point x="67" y="159"/>
      <point x="108" y="-23"/>
      <point x="165" y="-145" type="curve"/>
      <point x="246" y="-145" type="line"/>
      <point x="190" y="-17"/>
      <point x="148" y="159"/>
      <point x="148" y="328" type="curve" smooth="yes"/>
      <point x="148" y="497"/>
      <point x="190" y="673"/>
      <point x="246" y="800" type="curve"/>
    </contour>
  </outline>
</glyph>
<glyph name="parenright" format="1">
  <advance width="304"/>
  <unicode hex="0029"/>
  <outline>
    <contour>
      <point x="57" y="800" type="line"/>
      <point x="113" y="673"/>
      <point x="155" y="497"/>
      <point x="155" y="328" type="curve" smooth="yes"/>
      <point x="155" y="159"/>
      <point x="113" y="-17"/>
      <point x="57" y="-145" type="curve"/>
      <point x="137" y="-145" type="line"/>
      <point x="195" y="-23"/>
      <point x="236" y="159"/>
      <point x="236" y="328" type="curve" smooth="yes"/>
      <point x="236" y="498"/>
      <point x="195" y="679"/>
      <point x="137" y="800" type="curve"/>
    </contour>
  </outline>
</glyph>
<glyph name="asterisk" format="1">
  <advance width="511"/>
  <unicode hex="002A"/>
  <outline>
    <contour>
      <point x="285" y="488" type="curve" smooth="yes"/>
      <point x="342" y="409" type="line"/>
      <point x="409" y="458" type="line"/>
      <point x="351" y="537" type="line" smooth="yes"/>
      <point x="299" y="608"/>
      <point x="257" y="597"/>
      <point x="257" y="597" type="curve"/>
      <point x="257" y="597"/>
      <point x="232" y="559"/>
    </contour>
    <contour>
      <point x="162" y="536" type="curve" smooth="yes"/>
      <point x="105" y="458" type="line"/>
      <point x="171" y="409" type="line"/>
      <point x="228" y="488" type="line" smooth="yes"/>
      <point x="280" y="559"/>
      <point x="257" y="597"/>
      <point x="257" y="597" type="curve"/>
      <point x="257" y="597"/>
      <point x="214" y="608"/>
    </contour>
    <contour>
      <point x="52" y="620" type="line"/>
      <point x="144" y="590" type="line" smooth="yes"/>
      <point x="229" y="563"/>
      <point x="257" y="597"/>
      <point x="257" y="597" type="curve"/>
      <point x="257" y="597"/>
      <point x="254" y="641"/>
      <point x="170" y="669" type="curve" smooth="yes"/>
      <point x="77" y="699" type="line"/>
    </contour>
    <contour>
      <point x="215" y="799" type="line"/>
      <point x="215" y="701" type="line"/>
      <point x="215" y="613"/>
      <point x="257" y="597"/>
      <point x="257" y="597" type="curve"/>
      <point x="257" y="597"/>
      <point x="298" y="613"/>
      <point x="298" y="701" type="curve"/>
      <point x="298" y="799" type="line"/>
    </contour>
    <contour>
      <point x="343" y="668" type="line"/>
      <point x="259" y="641"/>
      <point x="257" y="597"/>
      <point x="257" y="597" type="curve"/>
      <point x="257" y="597"/>
      <point x="285" y="563"/>
      <point x="369" y="590" type="curve" smooth="yes"/>
      <point x="462" y="621" type="line"/>
      <point x="436" y="699" type="line"/>
    </contour>
  </outline>
</glyph>
<glyph name="plus" format="1">
  <advance width="458"/>
  <unicode hex="002B"/>
  <outline>
    <contour>
      <point x="186" y="513" type="line"/>
      <point x="186" y="140" type="line"/>
      <point x="271" y="140" type="line"/>
      <point x="271" y="513" type="line"/>
    </contour>
    <contour>
      <point x="43" y="366" type="line"/>
      <point x="43" y="288" type="line"/>
      <point x="414" y="288" type="line"/>
      <point x="414" y="366" type="line"/>
    </contour>
  </outline>
</glyph>
<glyph name="comma" format="1">
  <advance width="165"/>
  <unicode hex="002C"/>
  <outline>
    <contour>
      <point x="51" y="101" type="line"/>
      <point x="9" y="-128" type="line"/>
      <point x="61" y="-128" type="line"/>
      <point x="85" y="-86"/>
      <point x="140" y="16"/>
      <point x="140" y="62" type="curve" smooth="yes"/>
      <point x="140" y="87"/>
      <point x="124" y="101"/>
      <point x="97" y="101" type="curve" smooth="yes"/>
    </contour>
  </outline>
</glyph>
<glyph name="hyphen" format="1">
  <advance width="251"/>
  <unicode hex="002D"/>
  <outline>
    <contour>
      <point x="40" y="366" type="line"/>
      <point x="40" y="288" type="line"/>
      <point x="216" y="288" type="line"/>
      <point x="216" y="366" type="line"/>
    </contour>
  </outline>
</glyph>
<glyph name="period" format="1">
  <advance width="176"/>
  <unicode hex="002E"/>
  <outline>
    <contour>
      <point x="33" y="47" type="curve" smooth="yes"/>
      <point x="33" y="15"/>
      <point x="47" y="-7"/>
      <point x="88" y="-7" type="curve" smooth="yes"/>
      <point x="128" y="-7"/>
      <point x="142" y="15"/>
      <point x="142" y="47" type="curve" smooth="yes"/>
      <point x="142" y="80"/>
      <point x="128" y="102"/>
      <point x="88" y="102" type="curve" smooth="yes"/>
      <point x="47" y="102"/>
      <point x="33" y="80"/>
    </contour>
  </outline>
</glyph>
<glyph name="slash" format="1">
  <advance width="399"/>
  <unicode hex="002F"/>
  <outline>
    <contour>
      <point x="297" y="801" type="line"/>
      <point x="34" y="-145" type="line"/>
      <point x="115" y="-145" type="line"/>
      <point x="379" y="801" type="line"/>
    </contour>
  </outline>
</glyph>
<glyph name="zero" format="1">
  <advance width="452"/>
  <unicode hex="0030"/>
  <outline>
    <contour>
      <point x="52" y="523" type="curve" smooth="yes"/>
      <point x="52" y="154" type="line" smooth="yes"/>
      <point x="52" y="60"/>
      <point x="103" y="-10"/>
      <point x="226" y="-10" type="curve" smooth="yes"/>
      <point x="349" y="-10"/>
      <point x="400" y="60"/>
      <point x="400" y="154" type="curve" smooth="yes"/>
      <point x="400" y="523" type="line" smooth="yes"/>
      <point x="400" y="618"/>
      <point x="349" y="687"/>
      <point x="226" y="687" type="curve" smooth="yes"/>
      <point x="103" y="687"/>
      <point x="52" y="618"/>
    </contour>
    <contour>
      <point x="308" y="521" type="curve" smooth="yes"/>
      <point x="308" y="156" type="line" smooth="yes"/>
      <point x="308" y="106"/>
      <point x="289" y="73"/>
      <point x="226" y="73" type="curve" smooth="yes"/>
      <point x="163" y="73"/>
      <point x="144" y="107"/>
      <point x="144" y="156" type="curve" smooth="yes"/>
      <point x="144" y="521" type="line" smooth="yes"/>
      <point x="144" y="571"/>
      <point x="163" y="605"/>
      <point x="226" y="605" type="curve" smooth="yes"/>
      <point x="289" y="605"/>
      <point x="308" y="571"/>
    </contour>
  </outline>
</glyph>
<glyph name="one" format="1">
  <advance width="289"/>
  <unicode hex="0031"/>
  <outline>
    <contour>
      <point x="133" y="677" type="line"/>
      <point x="12" y="590" type="line"/>
      <point x="12" y="487" type="line"/>
      <point x="134" y="575" type="line"/>
      <point x="134" y="0" type="line"/>
      <point x="227" y="0" type="line"/>
      <point x="227" y="677" type="line"/>
    </contour>
  </outline>
</glyph>
<glyph name="two" format="1">
  <advance width="412"/>
  <unicode hex="0032"/>
  <outline>
    <contour>
      <point x="52" y="664" type="curve"/>
      <point x="52" y="575" type="line"/>
      <point x="85" y="587"/>
      <point x="129" y="597"/>
      <point x="180" y="597" type="curve" smooth="yes"/>
      <point x="259" y="597"/>
      <point x="275" y="569"/>
      <point x="275" y="526" type="curve" smooth="yes"/>
      <point x="275" y="487" type="line"/>
      <point x="275" y="437"/>
      <point x="265" y="411"/>
      <point x="227" y="385" type="curve" smooth="yes"/>
      <point x="142" y="320" type="line" smooth="yes"/>
      <point x="83" y="280"/>
      <point x="41" y="238"/>
      <point x="41" y="150" type="curve" smooth="yes"/>
      <point x="41" y="0" type="line"/>
      <point x="367" y="0" type="line"/>
      <point x="367" y="83" type="line"/>
      <point x="134" y="83" type="line"/>
      <point x="134" y="143" type="line" smooth="yes"/>
      <point x="134" y="200"/>
      <point x="152" y="219"/>
      <point x="211" y="262" type="curve" smooth="yes"/>
      <point x="291" y="322" type="line" smooth="yes"/>
      <point x="347" y="361"/>
      <point x="368" y="404"/>
      <point x="368" y="476" type="curve" smooth="yes"/>
      <point x="368" y="533" type="line" smooth="yes"/>
      <point x="368" y="625"/>
      <point x="313" y="682"/>
      <point x="181" y="682" type="curve" smooth="yes"/>
      <point x="123" y="682"/>
      <point x="75" y="671"/>
    </contour>
  </outline>
</glyph>
<glyph name="seven" format="1">
  <advance width="344"/>
  <unicode hex="0037"/>
  <outline>
    <contour>
      <point x="5" y="677" type="line"/>
      <point x="5" y="593" type="line"/>
      <point x="222" y="593" type="line"/>
      <point x="159" y="391" type="line"/>
      <point x="128" y="297"/>
      <point x="109" y="216"/>
      <point x="109" y="105" type="curve"/>
      <point x="109" y="0" type="line"/>
      <point x="202" y="0" type="line"/>
      <point x="202" y="100" type="line"/>
      <point x="202" y="209"/>
      <point x="221" y="285"/>
      <point x="251" y="381" type="curve"/>
      <point x="323" y="604" type="line"/>
      <point x="323" y="677" type="line"/>
    </contour>
  </outline>
</glyph>
<glyph name="eight" format="1">
  <advance width="461"/>
  <unicode hex="0038"/>
  <outline>
    <contour>
      <point x="54" y="527" type="curve" smooth="yes"/>
      <point x="54" y="460" type="line" smooth="yes"/>
      <point x="54" y="366"/>
      <point x="107" y="315"/>
      <point x="230" y="315" type="curve" smooth="yes"/>
      <point x="353" y="315"/>
      <point x="406" y="366"/>
      <point x="406" y="460" type="curve" smooth="yes"/>
      <point x="406" y="527" type="line" smooth="yes"/>
      <point x="406" y="622"/>
      <point x="353" y="687"/>
      <point x="230" y="687" type="curve" smooth="yes"/>
      <point x="107" y="687"/>
      <point x="54" y="622"/>
    </contour>
    <contour>
      <point x="52" y="214" type="curve" smooth="yes"/>
      <point x="52" y="150" type="line" smooth="yes"/>
      <point x="52" y="56"/>
      <point x="107" y="-10"/>
      <point x="230" y="-10" type="curve" smooth="yes"/>
      <point x="353" y="-10"/>
      <point x="408" y="56"/>
      <point x="408" y="150" type="curve" smooth="yes"/>
      <point x="408" y="214" type="line" smooth="yes"/>
      <point x="408" y="309"/>
      <point x="353" y="360"/>
      <point x="230" y="360" type="curve" smooth="yes"/>
      <point x="107" y="360"/>
      <point x="52" y="309"/>
    </contour>
    <contour>
      <point x="317" y="217" type="curve" smooth="yes"/>
      <point x="317" y="151" type="line" smooth="yes"/>
      <point x="317" y="101"/>
      <point x="293" y="70"/>
      <point x="230" y="70" type="curve" smooth="yes"/>
      <point x="167" y="70"/>
      <point x="144" y="101"/>
      <point x="144" y="151" type="curve" smooth="yes"/>
      <point x="144" y="217" type="line" smooth="yes"/>
      <point x="144" y="267"/>
      <point x="167" y="300"/>
      <point x="230" y="300" type="curve" smooth="yes"/>
      <point x="293" y="300"/>
      <point x="317" y="266"/>
    </contour>
    <contour>
      <point x="315" y="527" type="curve" smooth="yes"/>
      <point x="315" y="458" type="line" smooth="yes"/>
      <point x="315" y="408"/>
      <point x="293" y="375"/>
      <point x="230" y="375" type="curve" smooth="yes"/>
      <point x="167" y="375"/>
      <point x="145" y="409"/>
      <point x="145" y="458" type="curve" smooth="yes"/>
      <point x="145" y="527" type="line" smooth="yes"/>
      <point x="145" y="577"/>
      <point x="167" y="607"/>
      <point x="230" y="607" type="curve" smooth="yes"/>
      <point x="293" y="607"/>
      <point x="315" y="576"/>
    </contour>
  </outline>
</glyph>
<glyph name="nine" format="1">
  <advance width="441"/>
  <unicode hex="0039"/>
  <outline>
    <contour>
      <point x="42" y="523" type="curve" smooth="yes"/>
      <point x="42" y="390" type="line" smooth="yes"/>
      <point x="42" y="296"/>
      <point x="96" y="240"/>
      <point x="195" y="240" type="curve" smooth="yes"/>
      <point x="237" y="240"/>
      <point x="272" y="246"/>
      <point x="297" y="258" type="curve"/>
      <point x="297" y="159" type="line" smooth="yes"/>
      <point x="297" y="115"/>
      <point x="273" y="79"/>
      <point x="196" y="79" type="curve" smooth="yes"/>
      <point x="142" y="79"/>
      <point x="95" y="90"/>
      <point x="62" y="103" type="curve"/>
      <point x="62" y="15" type="line"/>
      <point x="87" y="6"/>
      <point x="136" y="-5"/>
      <point x="197" y="-5" type="curve" smooth="yes"/>
      <point x="330" y="-5"/>
      <point x="389" y="60"/>
      <point x="389" y="152" type="curve"/>
      <point x="389" y="523" type="line"/>
      <point x="389" y="618"/>
      <point x="339" y="687"/>
      <point x="216" y="687" type="curve" smooth="yes"/>
      <point x="92" y="687"/>
      <point x="42" y="618"/>
    </contour>
    <contour>
      <point x="297" y="522" type="curve"/>
      <point x="297" y="340" type="line"/>
      <point x="280" y="329"/>
      <point x="247" y="321"/>
      <point x="211" y="321" type="curve" smooth="yes"/>
      <point x="161" y="321"/>
      <point x="134" y="345"/>
      <point x="134" y="398" type="curve" smooth="yes"/>
      <point x="134" y="522" type="line" smooth="yes"/>
      <point x="134" y="572"/>
      <point x="152" y="606"/>
      <point x="216" y="606" type="curve" smooth="yes"/>
      <point x="279" y="606"/>
      <point x="297" y="572"/>
    </contour>
  </outline>
</glyph>
<glyph name="colon" format="1">
  <advance width="217"/>
  <unicode hex="003A"/>
  <outline>
    <contour>
      <point x="33" y="398" type="curve" smooth="yes"/>
      <point x="33" y="365"/>
      <point x="47" y="343"/>
      <point x="88" y="343" type="curve" smooth="yes"/>
      <point x="128" y="343"/>
      <point x="142" y="365"/>
      <point x="142" y="398" type="curve" smooth="yes"/>
      <point x="142" y="430"/>
      <point x="128" y="452"/>
      <point x="88" y="452" type="curve" smooth="yes"/>
      <point x="47" y="452"/>
      <point x="33" y="430"/>
    </contour>
    <contour>
      <point x="33" y="47" type="curve" smooth="yes"/>
      <point x="33" y="15"/>
      <point x="47" y="-7"/>
      <point x="88" y="-7" type="curve" smooth="yes"/>
      <point x="128" y="-7"/>
      <point x="142" y="15"/>
      <point x="142" y="47" type="curve" smooth="yes"/>
      <point x="142" y="80"/>
      <point x="128" y="102"/>
      <point x="88" y="102" type="curve" smooth="yes"/>
      <point x="47" y="102"/>
      <point x="33" y="80"/>
    </contour>
  </outline>
</glyph>
<glyph name="semicolon" format="1">
  <advance width="217"/>
  <unicode hex="003B"/>
  <outline>
    <contour>
      <point x="51" y="101" type="line"/>
      <point x="9" y="-128" type="line"/>
      <point x="61" y="-128" type="line"/>
      <point x="85" y="-86"/>
      <point x="140" y="16"/>
      <point x="140" y="62" type="curve" smooth="yes"/>
      <point x="140" y="87"/>
      <point x="124" y="101"/>
      <point x="97" y="101" type="curve" smooth="yes"/>
    </contour>
    <contour>
      <point x="33" y="398" type="curve" smooth="yes"/>
      <point x="33" y="365"/>
      <point x="47" y="343"/>
      <point x="88" y="343" type="curve" smooth="yes"/>
      <point x="128" y="343"/>
      <point x="142" y="365"/>
      <point x="142" y="398" type="curve" smooth="yes"/>
      <point x="142" y="430"/>
      <point x="128" y="452"/>
      <point x="88" y="452" type="curve" smooth="yes"/>
      <point x="47" y="452"/>
      <point x="33" y="430"/>
    </contour>
  </outline>
</glyph>
<glyph name="less" format="1">
  <advance width="474"/>
  <unicode hex="003C"/>
  <outline>
    <contour>
      <point x="40" y="371" type="line"/>
      <point x="40" y="298" type="line"/>
      <point x="417" y="431" type="line"/>
      <point x="417" y="514" type="line"/>
    </contour>
    <contour>
      <point x="40" y="281" type="line"/>
      <point x="417" y="139" type="line"/>
      <point x="417" y="222" type="line"/>
      <point x="40" y="354" type="line"/>
    </contour>
  </outline>
</glyph>
<glyph name="equal" format="1">
  <advance width="454"/>
  <unicode hex="003D"/>
  <outline>
    <contour>
      <point x="37" y="458" type="line"/>
      <point x="37" y="380" type="line"/>
      <point x="414" y="380" type="line"/>
      <point x="414" y="458" type="line"/>
    </contour>
    <contour>
      <point x="37" y="272" type="line"/>
      <point x="37" y="195" type="line"/>
      <point x="414" y="195" type="line"/>
      <point x="414" y="272" type="line"/>
    </contour>
  </outline>
</glyph>
<glyph name="greater" format="1">
  <advance width="472"/>
  <unicode hex="003E"/>
  <outline>
    <contour>
      <point x="52" y="431" type="line"/>
      <point x="429" y="298" type="line"/>
      <point x="429" y="371" type="line"/>
      <point x="52" y="514" type="line"/>
    </contour>
    <contour>
      <point x="52" y="222" type="line"/>
      <point x="52" y="139" type="line"/>
      <point x="429" y="281" type="line"/>
      <point x="429" y="354" type="line"/>
    </contour>
  </outline>
</glyph>
<glyph name="question" format="1">
  <advance width="391"/>
  <unicode hex="003F"/>
  <outline>
    <contour>
      <point x="32" y="672" type="curve"/>
      <point x="32" y="583" type="line"/>
      <point x="64" y="595"/>
      <point x="112" y="602"/>
      <point x="158" y="602" type="curve" smooth="yes"/>
      <point x="234" y="602"/>
      <point x="254" y="578"/>
      <point x="254" y="532" type="curve" smooth="yes"/>
      <point x="254" y="446" type="line" smooth="yes"/>
      <point x="254" y="391"/>
      <point x="229" y="362"/>
      <point x="159" y="362" type="curve" smooth="yes"/>
      <point x="103" y="362" type="line"/>
      <point x="108" y="185" type="line"/>
      <point x="186" y="185" type="line"/>
      <point x="191" y="289" type="line"/>
      <point x="307" y="291"/>
      <point x="343" y="354"/>
      <point x="343" y="445" type="curve" smooth="yes"/>
      <point x="343" y="539" type="line" smooth="yes"/>
      <point x="343" y="631"/>
      <point x="287" y="687"/>
      <point x="156" y="687" type="curve" smooth="yes"/>
      <point x="101" y="687"/>
      <point x="56" y="678"/>
    </contour>
    <contour>
      <point x="93" y="47" type="curve" smooth="yes"/>
      <point x="93" y="15"/>
      <point x="107" y="-7"/>
      <point x="148" y="-7" type="curve" smooth="yes"/>
      <point x="188" y="-7"/>
      <point x="202" y="15"/>
      <point x="202" y="47" type="curve" smooth="yes"/>
      <point x="202" y="80"/>
      <point x="188" y="102"/>
      <point x="148" y="102" type="curve" smooth="yes"/>
      <point x="107" y="102"/>
      <point x="93" y="80"/>
    </contour>
  </outline>
</glyph>
<glyph name="at" format="1">
  <advance width="873"/>
  <unicode hex="0040"/>
  <outline>
    <contour>
      <point x="69" y="277" type="curve" smooth="yes"/>
      <point x="69" y="35"/>
      <point x="156" y="-120"/>
      <point x="441" y="-120" type="curve" smooth="yes"/>
      <point x="529" y="-120" type="line"/>
      <point x="529" y="-46" type="line"/>
      <point x="441" y="-46" type="line" smooth="yes"/>
      <point x="203" y="-46"/>
      <point x="149" y="79"/>
      <point x="149" y="277" type="curve" smooth="yes"/>
      <point x="149" y="474"/>
      <point x="201" y="601"/>
      <point x="441" y="601" type="curve" smooth="yes"/>
      <point x="682" y="601"/>
      <point x="733" y="483"/>
      <point x="733" y="284" type="curve" smooth="yes"/>
      <point x="733" y="135"/>
      <point x="700" y="93"/>
      <point x="645" y="93" type="curve" smooth="yes"/>
      <point x="597" y="93"/>
      <point x="575" y="114"/>
      <point x="575" y="168" type="curve" smooth="yes"/>
      <point x="575" y="395" type="line" smooth="yes"/>
      <point x="575" y="472"/>
      <point x="534" y="517"/>
      <point x="437" y="517" type="curve" smooth="yes"/>
      <point x="391" y="517"/>
      <point x="346" y="508"/>
      <point x="316" y="501" type="curve"/>
      <point x="316" y="434" type="line"/>
      <point x="358" y="444"/>
      <point x="392" y="452"/>
      <point x="437" y="452" type="curve" smooth="yes"/>
      <point x="490" y="452"/>
      <point x="501" y="428"/>
      <point x="501" y="393" type="curve" smooth="yes"/>
      <point x="501" y="336" type="line"/>
      <point x="399" y="303" type="line" smooth="yes"/>
      <point x="333" y="281"/>
      <point x="294" y="250"/>
      <point x="294" y="180" type="curve" smooth="yes"/>
      <point x="294" y="161" type="line" smooth="yes"/>
      <point x="294" y="89"/>
      <point x="335" y="48"/>
      <point x="413" y="48" type="curve" smooth="yes"/>
      <point x="500" y="48"/>
      <point x="533" y="83"/>
      <point x="533" y="83" type="curve"/>
      <point x="507" y="115" type="line"/>
      <point x="518" y="57"/>
      <point x="564" y="22"/>
      <point x="640" y="22" type="curve" smooth="yes"/>
      <point x="747" y="22"/>
      <point x="812" y="90"/>
      <point x="812" y="284" type="curve" smooth="yes"/>
      <point x="812" y="527"/>
      <point x="727" y="674"/>
      <point x="441" y="674" type="curve" smooth="yes"/>
      <point x="160" y="674"/>
      <point x="69" y="518"/>
    </contour>
    <contour>
      <point x="501" y="134" type="line"/>
      <point x="501" y="134"/>
      <point x="472" y="112"/>
      <point x="426" y="112" type="curve" smooth="yes"/>
      <point x="389" y="112"/>
      <point x="370" y="125"/>
      <point x="370" y="161" type="curve" smooth="yes"/>
      <point x="370" y="181" type="line" smooth="yes"/>
      <point x="370" y="223"/>
      <point x="390" y="233"/>
      <point x="427" y="246" type="curve" smooth="yes"/>
      <point x="501" y="268" type="line"/>
    </contour>
  </outline>
</glyph>
<glyph name="A" format="1">
  <advance width="451"/>
  <unicode hex="0041"/>
  <outline>
    <contour>
      <point x="207" y="677" type="line"/>
      <point x="347" y="0" type="line"/>
      <point x="438" y="0" type="line"/>
      <point x="291" y="677" type="line"/>
    </contour>
    <contour>
      <point x="112" y="260" type="line"/>
      <point x="112" y="180" type="line"/>
      <point x="335" y="180" type="line"/>
      <point x="335" y="260" type="line"/>
    </contour>
    <contour>
      <point x="161" y="677" type="line"/>
      <point x="14" y="0" type="line"/>
      <point x="104" y="0" type="line"/>
      <point x="242" y="677" type="line"/>
    </contour>
  </outline>
</glyph>
<glyph name="B" format="1">
  <advance width="474"/>
  <unicode hex="0042"/>
  <outline>
    <contour>
      <point x="132" y="350" type="line"/>
      <point x="132" y="300" type="line"/>
      <point x="248" y="300" type="line" smooth="yes"/>
      <point x="306" y="300"/>
      <point x="331" y="271"/>
      <point x="331" y="221" type="curve" smooth="yes"/>
      <point x="331" y="158" type="line" smooth="yes"/>
      <point x="331" y="107"/>
      <point x="306" y="79"/>
      <point x="248" y="79" type="curve" smooth="yes"/>
      <point x="116" y="79" type="line"/>
      <point x="116" y="0" type="line"/>
      <point x="258" y="0" type="line" smooth="yes"/>
      <point x="367" y="0"/>
      <point x="422" y="55"/>
      <point x="422" y="154" type="curve" smooth="yes"/>
      <point x="422" y="217" type="line" smooth="yes"/>
      <point x="422" y="296"/>
      <point x="383" y="350"/>
      <point x="283" y="350" type="curve" smooth="yes"/>
    </contour>
    <contour>
      <point x="62" y="677" type="line"/>
      <point x="62" y="0" type="line"/>
      <point x="154" y="0" type="line"/>
      <point x="154" y="677" type="line"/>
    </contour>
    <contour>
      <point x="116" y="677" type="line"/>
      <point x="116" y="598" type="line"/>
      <point x="242" y="598" type="line" smooth="yes"/>
      <point x="300" y="598"/>
      <point x="325" y="570"/>
      <point x="325" y="519" type="curve" smooth="yes"/>
      <point x="325" y="461" type="line" smooth="yes"/>
      <point x="325" y="410"/>
      <point x="300" y="382"/>
      <point x="242" y="382" type="curve" smooth="yes"/>
      <point x="132" y="382" type="line"/>
      <point x="132" y="331" type="line"/>
      <point x="277" y="331" type="line" smooth="yes"/>
      <point x="377" y="331"/>
      <point x="416" y="386"/>
      <point x="416" y="465" type="curve" smooth="yes"/>
      <point x="416" y="524" type="line" smooth="yes"/>
      <point x="416" y="622"/>
      <point x="361" y="677"/>
      <point x="252" y="677" type="curve" smooth="yes"/>
    </contour>
  </outline>
</glyph>
<glyph name="C" format="1">
  <advance width="399"/>
  <unicode hex="0043"/>
  <outline>
    <contour>
      <point x="52" y="533" type="curve" smooth="yes"/>
      <point x="52" y="144" type="line" smooth="yes"/>
      <point x="52" y="51"/>
      <point x="111" y="-5"/>
      <point x="243" y="-5" type="curve" smooth="yes"/>
      <point x="290" y="-5"/>
      <point x="337" y="2"/>
      <point x="365" y="11" type="curve"/>
      <point x="365" y="95" type="line"/>
      <point x="334" y="85"/>
      <point x="289" y="78"/>
      <point x="245" y="78" type="curve" smooth="yes"/>
      <point x="167" y="78"/>
      <point x="145" y="106"/>
      <point x="145" y="150" type="curve" smooth="yes"/>
      <point x="145" y="527" type="line" smooth="yes"/>
      <point x="145" y="571"/>
      <point x="167" y="599"/>
      <point x="245" y="599" type="curve" smooth="yes"/>
      <point x="288" y="599"/>
      <point x="331" y="591"/>
      <point x="363" y="582" type="curve"/>
      <point x="363" y="667" type="line"/>
      <point x="334" y="675"/>
      <point x="291" y="682"/>
      <point x="244" y="682" type="curve" smooth="yes"/>
      <point x="112" y="682"/>
      <point x="52" y="625"/>
    </contour>
  </outline>
</glyph>
<glyph name="D" format="1">
  <advance width="473"/>
  <unicode hex="0044"/>
  <outline>
    <contour>
      <point x="62" y="677" type="line"/>
      <point x="62" y="0" type="line"/>
      <point x="260" y="0" type="line" smooth="yes"/>
      <point x="373" y="0"/>
      <point x="420" y="63"/>
      <point x="420" y="155" type="curve" smooth="yes"/>
      <point x="420" y="526" type="line" smooth="yes"/>
      <point x="420" y="619"/>
      <point x="365" y="677"/>
      <point x="257" y="677" type="curve" smooth="yes"/>
    </contour>
    <contour>
      <point x="328" y="523" type="curve"/>
      <point x="328" y="161" type="line" smooth="yes"/>
      <point x="328" y="113"/>
      <point x="308" y="80"/>
      <point x="248" y="80" type="curve" smooth="yes"/>
      <point x="154" y="80" type="line"/>
      <point x="154" y="600" type="line"/>
      <point x="248" y="600" type="line" smooth="yes"/>
      <point x="308" y="600"/>
      <point x="328" y="569"/>
    </contour>
  </outline>
</glyph>
<glyph name="E" format="1">
  <advance width="404"/>
  <unicode hex="0045"/>
  <outline>
    <contour>
      <point x="62" y="677" type="line"/>
      <point x="62" y="0" type="line"/>
      <point x="370" y="0" type="line"/>
      <point x="370" y="81" type="line"/>
      <point x="154" y="81" type="line"/>
      <point x="154" y="302" type="line"/>
      <point x="342" y="302" type="line"/>
      <point x="342" y="382" type="line"/>
      <point x="154" y="382" type="line"/>
      <point x="154" y="597" type="line"/>
      <point x="370" y="597" type="line"/>
      <point x="370" y="677" type="line"/>
    </contour>
  </outline>
</glyph>
<glyph name="F" format="1">
  <advance width="379"/>
  <unicode hex="0046"/>
  <outline>
    <contour>
      <point x="62" y="677" type="line"/>
      <point x="62" y="0" type="line"/>
      <point x="155" y="0" type="line"/>
      <point x="155" y="284" type="line"/>
      <point x="350" y="284" type="line"/>
      <point x="350" y="366" type="line"/>
      <point x="155" y="366" type="line"/>
      <point x="155" y="596" type="line"/>
      <point x="361" y="596" type="line"/>
      <point x="361" y="677" type="line"/>
    </contour>
  </outline>
</glyph>
<glyph name="H" format="1">
  <advance width="505"/>
  <unicode hex="0048"/>
  <outline>
    <contour>
      <point x="349" y="677" type="line"/>
      <point x="349" y="0" type="line"/>
      <point x="442" y="0" type="line"/>
      <point x="442" y="677" type="line"/>
    </contour>
    <contour>
      <point x="62" y="677" type="line"/>
      <point x="62" y="0" type="line"/>
      <point x="155" y="0" type="line"/>
      <point x="155" y="677" type="line"/>
    </contour>
    <contour>
      <point x="141" y="374" type="line"/>
      <point x="141" y="291" type="line"/>
      <point x="362" y="291" type="line"/>
      <point x="362" y="374" type="line"/>
    </contour>
  </outline>
</glyph>
<glyph name="I" format="1">
  <advance width="218"/>
  <unicode hex="0049"/>
  <outline>
    <contour>
      <point x="62" y="677" type="line"/>
      <point x="62" y="0" type="line"/>
      <point x="155" y="0" type="line"/>
      <point x="155" y="677" type="line"/>
    </contour>
  </outline>
</glyph>
<glyph name="J" format="1">
  <advance width="220"/>
  <unicode hex="004A"/>
  <outline>
    <contour>
      <point x="65" y="677" type="line"/>
      <point x="65" y="199" type="line" smooth="yes"/>
      <point x="65" y="101"/>
      <point x="51" y="38"/>
      <point x="27" y="-44" type="curve" smooth="yes"/>
      <point x="-3" y="-149" type="line"/>
      <point x="93" y="-149" type="line"/>
      <point x="124" y="-45" type="line" smooth="yes"/>
      <point x="144" y="26"/>
      <point x="157" y="88"/>
      <point x="157" y="200" type="curve" smooth="yes"/>
      <point x="157" y="677" type="line"/>
    </contour>
  </outline>
</glyph>
<glyph name="K" format="1">
  <advance width="447"/>
  <unicode hex="004B"/>
  <outline>
    <contour>
      <point x="325" y="677" type="line"/>
      <point x="189" y="341" type="line"/>
      <point x="331" y="0" type="line"/>
      <point x="433" y="0" type="line"/>
      <point x="287" y="343" type="line"/>
      <point x="424" y="677" type="line"/>
    </contour>
    <contour>
      <point x="62" y="677" type="line"/>
      <point x="62" y="0" type="line"/>
      <point x="154" y="0" type="line"/>
      <point x="154" y="677" type="line"/>
    </contour>
  </outline>
</glyph>
<glyph name="L" format="1">
  <advance width="359"/>
  <unicode hex="004C"/>
  <outline>
    <contour>
      <point x="62" y="677" type="line"/>
      <point x="62" y="0" type="line"/>
      <point x="354" y="0" type="line"/>
      <point x="354" y="79" type="line"/>
      <point x="155" y="79" type="line"/>
      <point x="155" y="677" type="line"/>
    </contour>
  </outline>
</glyph>
<glyph name="M" format="1">
  <advance width="621"/>
  <unicode hex="004D"/>
  <outline>
    <contour>
      <point x="455" y="677" type="line"/>
      <point x="310" y="274" type="line"/>
      <point x="165" y="677" type="line"/>
      <point x="62" y="677" type="line"/>
      <point x="62" y="0" type="line"/>
      <point x="150" y="0" type="line"/>
      <point x="150" y="325" type="line"/>
      <point x="150" y="431"/>
      <point x="140" y="525"/>
      <point x="140" y="525" type="curve"/>
      <point x="267" y="178" type="line"/>
      <point x="353" y="178" type="line"/>
      <point x="480" y="525" type="line"/>
      <point x="480" y="525"/>
      <point x="470" y="439"/>
      <point x="470" y="324" type="curve"/>
      <point x="470" y="0" type="line"/>
      <point x="559" y="0" type="line"/>
      <point x="559" y="677" type="line"/>
    </contour>
  </outline>
</glyph>
<glyph name="N" format="1">
  <advance width="508"/>
  <unicode hex="004E"/>
  <outline>
    <contour>
      <point x="355" y="677" type="line"/>
      <point x="355" y="384" type="line"/>
      <point x="355" y="260"/>
      <point x="366" y="183"/>
      <point x="366" y="144" type="curve"/>
      <point x="351" y="184"/>
      <point x="328" y="255"/>
      <point x="287" y="360" type="curve"/>
      <point x="162" y="677" type="line"/>
      <point x="62" y="677" type="line"/>
      <point x="62" y="0" type="line"/>
      <point x="153" y="0" type="line"/>
      <point x="153" y="297" type="line"/>
      <point x="152" y="421"/>
      <point x="142" y="496"/>
      <point x="141" y="535" type="curve"/>
      <point x="156" y="495"/>
      <point x="181" y="424"/>
      <point x="222" y="319" type="curve"/>
      <point x="347" y="0" type="line"/>
      <point x="446" y="0" type="line"/>
      <point x="446" y="677" type="line"/>
    </contour>
  </outline>
</glyph>
<glyph name="O" format="1">
  <advance width="465"/>
  <unicode hex="004F"/>
  <outline>
    <contour>
      <point x="52" y="523" type="curve" smooth="yes"/>
      <point x="52" y="154" type="line" smooth="yes"/>
      <point x="52" y="60"/>
      <point x="109" y="-10"/>
      <point x="232" y="-10" type="curve" smooth="yes"/>
      <point x="355" y="-10"/>
      <point x="413" y="60"/>
      <point x="413" y="154" type="curve" smooth="yes"/>
      <point x="413" y="523" type="line" smooth="yes"/>
      <point x="413" y="618"/>
      <point x="355" y="687"/>
      <point x="232" y="687" type="curve" smooth="yes"/>
      <point x="109" y="687"/>
      <point x="52" y="618"/>
    </contour>
    <contour>
      <point x="321" y="520" type="curve" smooth="yes"/>
      <point x="321" y="157" type="line" smooth="yes"/>
      <point x="321" y="107"/>
      <point x="296" y="74"/>
      <point x="232" y="74" type="curve" smooth="yes"/>
      <point x="169" y="74"/>
      <point x="144" y="108"/>
      <point x="144" y="157" type="curve" smooth="yes"/>
      <point x="144" y="520" type="line" smooth="yes"/>
      <point x="144" y="570"/>
      <point x="169" y="604"/>
      <point x="232" y="604" type="curve" smooth="yes"/>
      <point x="296" y="604"/>
      <point x="321" y="570"/>
    </contour>
  </outline>
</glyph>
<glyph name="P" format="1">
  <advance width="447"/>
  <unicode hex="0050"/>
  <outline>
    <contour>
      <point x="62" y="677" type="line"/>
      <point x="62" y="0" type="line"/>
      <point x="155" y="0" type="line"/>
      <point x="155" y="223" type="line"/>
      <point x="243" y="223" type="line" smooth="yes"/>
      <point x="351" y="223"/>
      <point x="408" y="281"/>
      <point x="408" y="374" type="curve" smooth="yes"/>
      <point x="408" y="526" type="line" smooth="yes"/>
      <point x="408" y="619"/>
      <point x="351" y="677"/>
      <point x="243" y="677" type="curve" smooth="yes"/>
    </contour>
    <contour>
      <point x="316" y="518" type="curve" smooth="yes"/>
      <point x="316" y="382" type="line" smooth="yes"/>
      <point x="316" y="332"/>
      <point x="293" y="303"/>
      <point x="235" y="303" type="curve" smooth="yes"/>
      <point x="155" y="303" type="line"/>
      <point x="155" y="597" type="line"/>
      <point x="235" y="597" type="line" smooth="yes"/>
      <point x="293" y="597"/>
      <point x="316" y="568"/>
    </contour>
  </outline>
</glyph>
<glyph name="Q" format="1">
  <advance width="465"/>
  <unicode hex="0051"/>
  <outline>
    <contour>
      <point x="194" y="71" type="line"/>
      <point x="349" y="-97" type="line"/>
      <point x="461" y="-97" type="line"/>
      <point x="304" y="71" type="line"/>
    </contour>
    <component base="O"/>
  </outline>
</glyph>
<glyph name="R" format="1">
  <advance width="463"/>
  <unicode hex="0052"/>
  <outline>
    <contour>
      <point x="62" y="677" type="line"/>
      <point x="62" y="0" type="line"/>
      <point x="154" y="0" type="line"/>
      <point x="154" y="265" type="line"/>
      <point x="248" y="265" type="line" smooth="yes"/>
      <point x="360" y="265"/>
      <point x="408" y="324"/>
      <point x="408" y="420" type="curve" smooth="yes"/>
      <point x="408" y="526" type="line" smooth="yes"/>
      <point x="408" y="619"/>
      <point x="351" y="677"/>
      <point x="243" y="677" type="curve" smooth="yes"/>
    </contour>
    <contour>
      <point x="221" y="295" type="line"/>
      <point x="329" y="0" type="line"/>
      <point x="430" y="0" type="line"/>
      <point x="316" y="295" type="line"/>
    </contour>
    <contour>
      <point x="316" y="521" type="curve" smooth="yes"/>
      <point x="316" y="420" type="line" smooth="yes"/>
      <point x="316" y="369"/>
      <point x="294" y="342"/>
      <point x="235" y="342" type="curve" smooth="yes"/>
      <point x="154" y="342" type="line"/>
      <point x="154" y="597" type="line"/>
      <point x="235" y="597" type="line" smooth="yes"/>
      <point x="292" y="597"/>
      <point x="316" y="571"/>
    </contour>
  </outline>
</glyph>
<glyph name="T" format="1">
  <advance width="367"/>
  <unicode hex="0054"/>
  <outline>
    <contour>
      <point x="137" y="677" type="line"/>
      <point x="137" y="0" type="line"/>
      <point x="230" y="0" type="line"/>
      <point x="230" y="677" type="line"/>
    </contour>
    <contour>
      <point x="8" y="677" type="line"/>
      <point x="8" y="597" type="line"/>
      <point x="359" y="597" type="line"/>
      <point x="359" y="677" type="line"/>
    </contour>
  </outline>
</glyph>
<glyph name="U" format="1">
  <advance width="474"/>
  <unicode hex="0055"/>
  <outline>
    <contour>
      <point x="324" y="677" type="line"/>
      <point x="324" y="157" type="line" smooth="yes"/>
      <point x="324" y="107"/>
      <point x="300" y="74"/>
      <point x="237" y="74" type="curve" smooth="yes"/>
      <point x="173" y="74"/>
      <point x="149" y="108"/>
      <point x="149" y="157" type="curve" smooth="yes"/>
      <point x="149" y="677" type="line"/>
      <point x="57" y="677" type="line"/>
      <point x="57" y="154" type="line" smooth="yes"/>
      <point x="57" y="60"/>
      <point x="114" y="-10"/>
      <point x="237" y="-10" type="curve" smooth="yes"/>
      <point x="360" y="-10"/>
      <point x="416" y="60"/>
      <point x="416" y="154" type="curve" smooth="yes"/>
      <point x="416" y="677" type="line"/>
    </contour>
  </outline>
</glyph>
<glyph name="V" format="1">
  <advance width="437"/>
  <unicode hex="0056"/>
  <outline>
    <contour>
      <point x="330" y="677" type="line"/>
      <point x="267" y="355" type="line"/>
      <point x="250" y="265"/>
      <point x="231" y="138"/>
      <point x="219" y="85" type="curve"/>
      <point x="208" y="138"/>
      <point x="188" y="264"/>
      <point x="171" y="355" type="curve"/>
      <point x="105" y="677" type="line"/>
      <point x="11" y="677" type="line"/>
      <point x="154" y="0" type="line"/>
      <point x="284" y="0" type="line"/>
      <point x="426" y="677" type="line"/>
    </contour>
  </outline>
</glyph>
<glyph name="W" format="1">
  <advance width="605"/>
  <unicode hex="0057"/>
  <outline>
    <contour>
      <point x="504" y="677" type="line"/>
      <point x="447" y="323" type="line" smooth="yes"/>
      <point x="435" y="248"/>
      <point x="425" y="144"/>
      <point x="425" y="144" type="curve"/>
      <point x="425" y="144"/>
      <point x="411" y="248"/>
      <point x="401" y="323" type="curve" smooth="yes"/>
      <point x="347" y="677" type="line"/>
      <point x="259" y="677" type="line"/>
      <point x="205" y="323" type="line" smooth="yes"/>
      <point x="191" y="233"/>
      <point x="180" y="141"/>
      <point x="180" y="141" type="curve"/>
      <point x="180" y="141"/>
      <point x="172" y="234"/>
      <point x="158" y="323" type="curve" smooth="yes"/>
      <point x="102" y="677" type="line"/>
      <point x="17" y="677" type="line"/>
      <point x="121" y="0" type="line"/>
      <point x="223" y="0" type="line"/>
      <point x="276" y="319" type="line" smooth="yes"/>
      <point x="294" y="426"/>
      <point x="303" y="536"/>
      <point x="303" y="536" type="curve"/>
      <point x="303" y="536"/>
      <point x="313" y="428"/>
      <point x="331" y="319" type="curve" smooth="yes"/>
      <point x="384" y="0" type="line"/>
      <point x="482" y="0" type="line"/>
      <point x="588" y="677" type="line"/>
    </contour>
  </outline>
</glyph>
<glyph name="X" format="1">
  <advance width="412"/>
  <unicode hex="0058"/>
  <outline>
    <contour>
      <point x="302" y="677" type="line"/>
      <point x="207" y="439" type="line"/>
      <point x="111" y="677" type="line"/>
      <point x="11" y="677" type="line"/>
      <point x="157" y="338" type="line"/>
      <point x="11" y="0" type="line"/>
      <point x="111" y="0" type="line"/>
      <point x="207" y="237" type="line"/>
      <point x="301" y="0" type="line"/>
      <point x="402" y="0" type="line"/>
      <point x="254" y="338" type="line"/>
      <point x="402" y="677" type="line"/>
    </contour>
  </outline>
</glyph>
<glyph name="Y" format="1">
  <advance width="429"/>
  <unicode hex="0059"/>
  <outline>
    <contour>
      <point x="333" y="677" type="line"/>
      <point x="275" y="516" type="line"/>
      <point x="250" y="438"/>
      <point x="232" y="382"/>
      <point x="216" y="326" type="curve"/>
      <point x="199" y="382"/>
      <point x="183" y="438"/>
      <point x="156" y="516" type="curve"/>
      <point x="98" y="677" type="line"/>
      <point x="3" y="677" type="line"/>
      <point x="168" y="224" type="line"/>
      <point x="168" y="0" type="line"/>
      <point x="261" y="0" type="line"/>
      <point x="261" y="224" type="line"/>
      <point x="426" y="677" type="line"/>
    </contour>
  </outline>
</glyph>
<glyph name="Z" format="1">
  <advance width="394"/>
  <unicode hex="005A"/>
  <outline>
    <contour>
      <point x="31" y="677" type="line"/>
      <point x="31" y="598" type="line"/>
      <point x="267" y="598" type="line"/>
      <point x="26" y="79" type="line"/>
      <point x="26" y="0" type="line"/>
      <point x="364" y="0" type="line"/>
      <point x="364" y="79" type="line"/>
      <point x="122" y="79" type="line"/>
      <point x="366" y="600" type="line"/>
      <point x="366" y="677" type="line"/>
    </contour>
  </outline>
</glyph>
<glyph name="bracketleft" format="1">
  <advance width="317"/>
  <unicode hex="005B"/>
  <outline>
    <contour>
      <point x="83" y="419" type="line"/>
      <point x="83" y="-146" type="line"/>
      <point x="283" y="-146" type="line"/>
      <point x="283" y="-74" type="line"/>
      <point x="160" y="-74" type="line"/>
      <point x="160" y="419" type="line"/>
    </contour>
    <contour>
      <point x="83" y="808" type="line"/>
      <point x="83" y="416" type="line"/>
      <point x="160" y="416" type="line"/>
      <point x="160" y="736" type="line"/>
      <point x="283" y="736" type="line"/>
      <point x="283" y="808" type="line"/>
    </contour>
  </outline>
</glyph>
<glyph name="backslash" format="1">
  <advance width="417"/>
  <unicode hex="005C"/>
  <outline>
    <contour>
      <point x="34" y="808" type="line"/>
      <point x="304" y="-146" type="line"/>
      <point x="388" y="-146" type="line"/>
      <point x="118" y="808" type="line"/>
    </contour>
  </outline>
</glyph>
<glyph name="bracketright" format="1">
  <advance width="317"/>
  <unicode hex="005D"/>
  <outline>
    <contour>
      <point x="156" y="419" type="line"/>
      <point x="156" y="-74" type="line"/>
      <point x="34" y="-74" type="line"/>
      <point x="34" y="-146" type="line"/>
      <point x="233" y="-146" type="line"/>
      <point x="233" y="419" type="line"/>
    </contour>
    <contour>
      <point x="34" y="808" type="line"/>
      <point x="34" y="736" type="line"/>
      <point x="156" y="736" type="line"/>
      <point x="156" y="416" type="line"/>
      <point x="233" y="416" type="line"/>
      <point x="233" y="808" type="line"/>
    </contour>
  </outline>
</glyph>
<glyph name="asciicircum" format="1">
  <advance width="351"/>
  <unicode hex="005E"/>
  <outline>
    <contour>
      <point x="156" y="683" type="line"/>
      <point x="255" y="385" type="line"/>
      <point x="344" y="385" type="line"/>
      <point x="230" y="683" type="line"/>
    </contour>
    <contour>
      <point x="117" y="683" type="line"/>
      <point x="2" y="385" type="line"/>
      <point x="92" y="385" type="line"/>
      <point x="191" y="683" type="line"/>
    </contour>
  </outline>
</glyph>
<glyph name="underscore" format="1">
  <advance width="500"/>
  <unicode hex="005F"/>
  <outline>
    <contour>
      <point x="4" y="-9" type="line"/>
      <point x="4" y="-82" type="line"/>
      <point x="495" y="-82" type="line"/>
      <point x="496" y="-9" type="line"/>
    </contour>
  </outline>
</glyph>
<glyph name="grave" format="1">
  <advance width="350"/>
  <unicode hex="0060"/>
  <outline>
    <contour>
      <point x="116" y="727" type="line"/>
      <point x="179" y="618" type="line"/>
      <point x="234" y="618" type="line"/>
      <point x="194" y="727" type="line"/>
    </contour>
  </outline>
</glyph>
<glyph name="a" format="1">
  <advance width="428"/>
  <unicode hex="0061"/>
  <outline>
    <contour>
      <point x="56" y="561" type="curve"/>
      <point x="56" y="476" type="line"/>
      <point x="82" y="485"/>
      <point x="136" y="496"/>
      <point x="188" y="496" type="curve" smooth="yes"/>
      <point x="263" y="496"/>
      <point x="282" y="472"/>
      <point x="282" y="426" type="curve" smooth="yes"/>
      <point x="282" y="348" type="line"/>
      <point x="150" y="311" type="line" smooth="yes"/>
      <point x="65" y="287"/>
      <point x="28" y="243"/>
      <point x="28" y="168" type="curve" smooth="yes"/>
      <point x="28" y="135" type="line" smooth="yes"/>
      <point x="28" y="45"/>
      <point x="69" y="-3"/>
      <point x="166" y="-3" type="curve" smooth="yes"/>
      <point x="230" y="-3"/>
      <point x="259" y="18"/>
      <point x="283" y="41" type="curve"/>
      <point x="283" y="0" type="line"/>
      <point x="371" y="0" type="line"/>
      <point x="371" y="425" type="line" smooth="yes"/>
      <point x="371" y="523"/>
      <point x="323" y="579"/>
      <point x="194" y="579" type="curve" smooth="yes"/>
      <point x="136" y="579"/>
      <point x="84" y="570"/>
    </contour>
    <contour>
      <point x="282" y="100" type="line"/>
      <point x="260" y="83"/>
      <point x="226" y="69"/>
      <point x="188" y="69" type="curve" smooth="yes"/>
      <point x="137" y="69"/>
      <point x="119" y="92"/>
      <point x="119" y="135" type="curve" smooth="yes"/>
      <point x="119" y="165" type="line" smooth="yes"/>
      <point x="119" y="207"/>
      <point x="132" y="228"/>
      <point x="186" y="243" type="curve" smooth="yes"/>
      <point x="282" y="269" type="line"/>
    </contour>
  </outline>
</glyph>
<glyph name="b" format="1">
  <advance width="451"/>
  <unicode hex="0062"/>
  <outline>
    <contour>
      <point x="62" y="727" type="line"/>
      <point x="62" y="0" type="line"/>
      <point x="249" y="0" type="line"/>
      <point x="337" y="0"/>
      <point x="399" y="49"/>
      <point x="399" y="148" type="curve" smooth="yes"/>
      <point x="399" y="447" type="line" smooth="yes"/>
      <point x="399" y="533"/>
      <point x="346" y="577"/>
      <point x="268" y="577" type="curve" smooth="yes"/>
      <point x="221" y="577"/>
      <point x="177" y="564"/>
      <point x="154" y="555" type="curve"/>
      <point x="154" y="727" type="line"/>
    </contour>
    <contour>
      <point x="306" y="431" type="curve" smooth="yes"/>
      <point x="306" y="158" type="line" smooth="yes"/>
      <point x="306" y="107"/>
      <point x="277" y="84"/>
      <point x="227" y="84" type="curve" smooth="yes"/>
      <point x="155" y="84" type="line"/>
      <point x="155" y="471" type="line"/>
      <point x="181" y="481"/>
      <point x="212" y="492"/>
      <point x="244" y="492" type="curve" smooth="yes"/>
      <point x="283" y="492"/>
      <point x="306" y="473"/>
    </contour>
  </outline>
</glyph>
<glyph name="c" format="1">
  <advance width="372"/>
  <unicode hex="0063"/>
  <outline>
    <contour>
      <point x="52" y="428" type="curve" smooth="yes"/>
      <point x="52" y="146" type="line" smooth="yes"/>
      <point x="52" y="48"/>
      <point x="106" y="-5"/>
      <point x="228" y="-5" type="curve" smooth="yes"/>
      <point x="280" y="-5"/>
      <point x="312" y="2"/>
      <point x="340" y="9" type="curve"/>
      <point x="340" y="95" type="line"/>
      <point x="316" y="87"/>
      <point x="280" y="80"/>
      <point x="239" y="80" type="curve" smooth="yes"/>
      <point x="165" y="80"/>
      <point x="145" y="103"/>
      <point x="145" y="151" type="curve" smooth="yes"/>
      <point x="145" y="423" type="line" smooth="yes"/>
      <point x="145" y="471"/>
      <point x="165" y="495"/>
      <point x="239" y="495" type="curve" smooth="yes"/>
      <point x="278" y="495"/>
      <point x="315" y="488"/>
      <point x="339" y="480" type="curve"/>
      <point x="339" y="566" type="line"/>
      <point x="312" y="573"/>
      <point x="279" y="579"/>
      <point x="228" y="579" type="curve" smooth="yes"/>
      <point x="106" y="579"/>
      <point x="52" y="525"/>
    </contour>
  </outline>
</glyph>
<glyph name="d" format="1">
  <advance width="451"/>
  <unicode hex="0064"/>
  <outline>
    <contour>
      <point x="296" y="727" type="line"/>
      <point x="296" y="574" type="line"/>
      <point x="215" y="574" type="line"/>
      <point x="113" y="574"/>
      <point x="52" y="516"/>
      <point x="52" y="417" type="curve"/>
      <point x="52" y="138" type="line" smooth="yes"/>
      <point x="52" y="49"/>
      <point x="99" y="-3"/>
      <point x="190" y="-3" type="curve"/>
      <point x="248" y="-3"/>
      <point x="281" y="20"/>
      <point x="298" y="36" type="curve"/>
      <point x="298" y="0" type="line"/>
      <point x="389" y="0" type="line"/>
      <point x="389" y="727" type="line"/>
    </contour>
    <contour>
      <point x="296" y="108" type="line"/>
      <point x="280" y="94"/>
      <point x="250" y="80"/>
      <point x="212" y="80" type="curve"/>
      <point x="167" y="80"/>
      <point x="145" y="103"/>
      <point x="145" y="149" type="curve" smooth="yes"/>
      <point x="145" y="415" type="line" smooth="yes"/>
      <point x="145" y="467"/>
      <point x="174" y="491"/>
      <point x="227" y="491" type="curve" smooth="yes"/>
      <point x="296" y="491" type="line"/>
    </contour>
  </outline>
</glyph>
<glyph name="e" format="1">
  <advance width="435"/>
  <unicode hex="0065"/>
  <outline>
    <contour>
      <point x="52" y="427" type="curve" smooth="yes"/>
      <point x="52" y="179" type="line"/>
      <point x="142" y="178" type="line"/>
      <point x="142" y="427" type="line" smooth="yes"/>
      <point x="142" y="474"/>
      <point x="165" y="506"/>
      <point x="222" y="506" type="curve" smooth="yes"/>
      <point x="279" y="506"/>
      <point x="302" y="474"/>
      <point x="302" y="427" type="curve" smooth="yes"/>
      <point x="302" y="281" type="line"/>
      <point x="390" y="281" type="line"/>
      <point x="390" y="427" type="line" smooth="yes"/>
      <point x="390" y="518"/>
      <point x="341" y="584"/>
      <point x="222" y="584" type="curve" smooth="yes"/>
      <point x="103" y="584"/>
      <point x="52" y="518"/>
    </contour>
    <contour>
      <point x="52" y="211" type="line"/>
      <point x="52" y="151" type="line" smooth="yes"/>
      <point x="52" y="49"/>
      <point x="112" y="-5"/>
      <point x="246" y="-5" type="curve" smooth="yes"/>
      <point x="308" y="-5"/>
      <point x="344" y="3"/>
      <point x="373" y="11" type="curve"/>
      <point x="373" y="95" type="line"/>
      <point x="347" y="87"/>
      <point x="304" y="77"/>
      <point x="252" y="77" type="curve" smooth="yes"/>
      <point x="170" y="77"/>
      <point x="142" y="104"/>
      <point x="142" y="156" type="curve" smooth="yes"/>
      <point x="142" y="211" type="line"/>
    </contour>
    <contour>
      <point x="124" y="320" type="line"/>
      <point x="124" y="245" type="line"/>
      <point x="390" y="245" type="line"/>
      <point x="390" y="320" type="line"/>
    </contour>
  </outline>
</glyph>
<glyph name="f" format="1">
  <advance width="279"/>
  <unicode hex="0066"/>
  <outline>
    <contour>
      <point x="82" y="602" type="curve" smooth="yes"/>
      <point x="82" y="574" type="line"/>
      <point x="25" y="574" type="line"/>
      <point x="25" y="499" type="line"/>
      <point x="82" y="499" type="line"/>
      <point x="82" y="0" type="line"/>
      <point x="175" y="0" type="line"/>
      <point x="175" y="499" type="line"/>
      <point x="274" y="499" type="line"/>
      <point x="274" y="574" type="line"/>
      <point x="175" y="574" type="line"/>
      <point x="175" y="602" type="line" smooth="yes"/>
      <point x="175" y="651"/>
      <point x="198" y="670"/>
      <point x="242" y="670" type="curve" smooth="yes"/>
      <point x="255" y="670"/>
      <point x="268" y="669"/>
      <point x="279" y="667" type="curve"/>
      <point x="279" y="742" type="line"/>
      <point x="264" y="745"/>
      <point x="247" y="746"/>
      <point x="231" y="746" type="curve" smooth="yes"/>
      <point x="130" y="746"/>
      <point x="82" y="692"/>
    </contour>
  </outline>
</glyph>
<glyph name="g" format="1">
  <advance width="449"/>
  <unicode hex="0067"/>
  <outline>
    <contour>
      <point x="86" y="146" type="curve" smooth="yes"/>
      <point x="86" y="130" type="line" smooth="yes"/>
      <point x="86" y="72"/>
      <point x="132" y="43"/>
      <point x="215" y="43" type="curve" smooth="yes"/>
      <point x="276" y="43" type="line" smooth="yes"/>
      <point x="329" y="43"/>
      <point x="338" y="24"/>
      <point x="338" y="-5" type="curve" smooth="yes"/>
      <point x="338" y="-13" type="line" smooth="yes"/>
      <point x="338" y="-49"/>
      <point x="312" y="-70"/>
      <point x="227" y="-70" type="curve" smooth="yes"/>
      <point x="195" y="-70" type="line" smooth="yes"/>
      <point x="123" y="-70"/>
      <point x="70" y="-52"/>
      <point x="32" y="-28" type="curve"/>
      <point x="32" y="-115" type="line"/>
      <point x="62" y="-132"/>
      <point x="118" y="-149"/>
      <point x="197" y="-149" type="curve" smooth="yes"/>
      <point x="236" y="-149" type="line" smooth="yes"/>
      <point x="371" y="-149"/>
      <point x="426" y="-97"/>
      <point x="426" y="-15" type="curve" smooth="yes"/>
      <point x="426" y="2" type="line" smooth="yes"/>
      <point x="426" y="80"/>
      <point x="383" y="121"/>
      <point x="284" y="121" type="curve" smooth="yes"/>
      <point x="227" y="121" type="line" smooth="yes"/>
      <point x="183" y="121"/>
      <point x="168" y="133"/>
      <point x="168" y="160" type="curve" smooth="yes"/>
      <point x="168" y="190"/>
      <point x="184" y="205"/>
      <point x="217" y="205" type="curve"/>
      <point x="202" y="210"/>
      <point x="180" y="216"/>
      <point x="161" y="216" type="curve"/>
      <point x="118" y="218"/>
      <point x="86" y="190"/>
    </contour>
    <contour>
      <point x="38" y="435" type="curve" smooth="yes"/>
      <point x="38" y="354" type="line" smooth="yes"/>
      <point x="38" y="263"/>
      <point x="93" y="205"/>
      <point x="213" y="205" type="curve" smooth="yes"/>
      <point x="333" y="205"/>
      <point x="387" y="263"/>
      <point x="387" y="354" type="curve" smooth="yes"/>
      <point x="387" y="435" type="line" smooth="yes"/>
      <point x="387" y="527"/>
      <point x="333" y="584"/>
      <point x="213" y="584" type="curve" smooth="yes"/>
      <point x="93" y="584"/>
      <point x="38" y="527"/>
    </contour>
    <contour>
      <point x="295" y="435" type="curve" smooth="yes"/>
      <point x="295" y="355" type="line" smooth="yes"/>
      <point x="295" y="306"/>
      <point x="272" y="281"/>
      <point x="213" y="281" type="curve" smooth="yes"/>
      <point x="154" y="281"/>
      <point x="130" y="306"/>
      <point x="130" y="355" type="curve" smooth="yes"/>
      <point x="130" y="435" type="line" smooth="yes"/>
      <point x="130" y="483"/>
      <point x="154" y="508"/>
      <point x="213" y="508" type="curve" smooth="yes"/>
      <point x="272" y="508"/>
      <point x="295" y="483"/>
    </contour>
    <contour>
      <point x="417" y="624" type="line"/>
      <point x="362" y="624"/>
      <point x="325" y="595"/>
      <point x="317" y="537" type="curve"/>
      <point x="340" y="514" type="line"/>
      <point x="353" y="529"/>
      <point x="372" y="538"/>
      <point x="399" y="538" type="curve" smooth="yes"/>
      <point x="432" y="538" type="line"/>
      <point x="432" y="624" type="line"/>
    </contour>
  </outline>
</glyph>
<glyph name="h" format="1">
  <advance width="454"/>
  <unicode hex="0068"/>
  <outline>
    <contour>
      <point x="62" y="727" type="line"/>
      <point x="62" y="0" type="line"/>
      <point x="155" y="0" type="line"/>
      <point x="155" y="470" type="line"/>
      <point x="177" y="481"/>
      <point x="210" y="492"/>
      <point x="243" y="492" type="curve" smooth="yes"/>
      <point x="282" y="492"/>
      <point x="304" y="473"/>
      <point x="304" y="431" type="curve" smooth="yes"/>
      <point x="304" y="0" type="line"/>
      <point x="397" y="0" type="line"/>
      <point x="397" y="447" type="line" smooth="yes"/>
      <point x="397" y="535"/>
      <point x="341" y="577"/>
      <point x="259" y="577" type="curve" smooth="yes"/>
      <point x="220" y="577"/>
      <point x="183" y="567"/>
      <point x="154" y="555" type="curve"/>
      <point x="154" y="727" type="line"/>
    </contour>
  </outline>
</glyph>
<glyph name="i" format="1">
  <advance width="217"/>
  <unicode hex="0069"/>
  <outline>
    <contour>
      <point x="62" y="568" type="line"/>
      <point x="62" y="0" type="line"/>
      <point x="155" y="0" type="line"/>
      <point x="155" y="568" type="line"/>
    </contour>
    <contour>
      <point x="54" y="680" type="curve" smooth="yes"/>
      <point x="54" y="648"/>
      <point x="68" y="626"/>
      <point x="109" y="626" type="curve" smooth="yes"/>
      <point x="149" y="626"/>
      <point x="163" y="648"/>
      <point x="163" y="680" type="curve" smooth="yes"/>
      <point x="163" y="713"/>
      <point x="149" y="735"/>
      <point x="109" y="735" type="curve" smooth="yes"/>
      <point x="68" y="735"/>
      <point x="54" y="713"/>
    </contour>
  </outline>
</glyph>
<glyph name="j" format="1">
  <advance width="217"/>
  <unicode hex="006A"/>
  <outline>
    <contour>
      <point x="62" y="568" type="line"/>
      <point x="62" y="2" type="line" smooth="yes"/>
      <point x="62" y="-46"/>
      <point x="44" y="-66"/>
      <point x="2" y="-66" type="curve" smooth="yes"/>
      <point x="-6" y="-66"/>
      <point x="-15" y="-65"/>
      <point x="-23" y="-64" type="curve"/>
      <point x="-23" y="-148" type="line"/>
      <point x="-12" y="-151"/>
      <point x="-2" y="-151"/>
      <point x="8" y="-151" type="curve" smooth="yes"/>
      <point x="107" y="-151"/>
      <point x="155" y="-91"/>
      <point x="155" y="2" type="curve" smooth="yes"/>
      <point x="155" y="568" type="line"/>
    </contour>
    <contour>
      <point x="54" y="680" type="curve" smooth="yes"/>
      <point x="54" y="648"/>
      <point x="68" y="626"/>
      <point x="109" y="626" type="curve" smooth="yes"/>
      <point x="149" y="626"/>
      <point x="163" y="648"/>
      <point x="163" y="680" type="curve" smooth="yes"/>
      <point x="163" y="713"/>
      <point x="149" y="735"/>
      <point x="109" y="735" type="curve" smooth="yes"/>
      <point x="68" y="735"/>
      <point x="54" y="713"/>
    </contour>
  </outline>
</glyph>
<glyph name="k" format="1">
  <advance width="411"/>
  <unicode hex="006B"/>
  <outline>
    <contour>
      <point x="291" y="574" type="line"/>
      <point x="177" y="302" type="line"/>
      <point x="298" y="0" type="line"/>
      <point x="397" y="0" type="line"/>
      <point x="272" y="299" type="line"/>
      <point x="386" y="574" type="line"/>
    </contour>
    <contour>
      <point x="62" y="727" type="line"/>
      <point x="62" y="0" type="line"/>
      <point x="153" y="0" type="line"/>
      <point x="153" y="727" type="line"/>
    </contour>
  </outline>
</glyph>
<glyph name="m" format="1">
  <advance width="696"/>
  <unicode hex="006D"/>
  <outline>
    <contour>
      <point x="367" y="538" type="curve"/>
      <point x="343" y="563"/>
      <point x="308" y="577"/>
      <point x="266" y="577" type="curve" smooth="yes"/>
      <point x="218" y="577"/>
      <point x="173" y="559"/>
      <point x="150" y="548" type="curve"/>
      <point x="150" y="574" type="line"/>
      <point x="62" y="574" type="line"/>
      <point x="62" y="0" type="line"/>
      <point x="155" y="0" type="line"/>
      <point x="155" y="469" type="line"/>
      <point x="181" y="482"/>
      <point x="210" y="492"/>
      <point x="243" y="492" type="curve" smooth="yes"/>
      <point x="282" y="492"/>
      <point x="304" y="473"/>
      <point x="304" y="431" type="curve" smooth="yes"/>
      <point x="304" y="0" type="line"/>
      <point x="397" y="0" type="line"/>
      <point x="397" y="432" type="line" smooth="yes"/>
      <point x="397" y="443"/>
      <point x="396" y="455"/>
      <point x="392" y="464" type="curve"/>
      <point x="422" y="482"/>
      <point x="453" y="492"/>
      <point x="485" y="492" type="curve" smooth="yes"/>
      <point x="524" y="492"/>
      <point x="546" y="473"/>
      <point x="546" y="431" type="curve" smooth="yes"/>
      <point x="546" y="0" type="line"/>
      <point x="639" y="0" type="line"/>
      <point x="639" y="447" type="line" smooth="yes"/>
      <point x="639" y="533"/>
      <point x="586" y="577"/>
      <point x="508" y="577" type="curve" smooth="yes"/>
      <point x="463" y="577"/>
      <point x="414" y="564"/>
    </contour>
  </outline>
</glyph>
<glyph name="n" format="1">
  <advance width="454"/>
  <unicode hex="006E"/>
  <outline>
    <contour>
      <point x="150" y="548" type="curve"/>
      <point x="150" y="574" type="line"/>
      <point x="62" y="574" type="line"/>
      <point x="62" y="0" type="line"/>
      <point x="155" y="0" type="line"/>
      <point x="155" y="469" type="line"/>
      <point x="181" y="482"/>
      <point x="210" y="492"/>
      <point x="243" y="492" type="curve"/>
      <point x="282" y="492"/>
      <point x="304" y="473"/>
      <point x="304" y="431" type="curve" smooth="yes"/>
      <point x="304" y="0" type="line"/>
      <point x="397" y="0" type="line"/>
      <point x="397" y="447" type="line" smooth="yes"/>
      <point x="397" y="533"/>
      <point x="343" y="577"/>
      <point x="266" y="577" type="curve"/>
      <point x="218" y="577"/>
      <point x="173" y="559"/>
    </contour>
  </outline>
</glyph>
<glyph name="o" format="1">
  <advance width="444"/>
  <unicode hex="006F"/>
  <outline>
    <contour>
      <point x="52" y="428" type="curve" smooth="yes"/>
      <point x="52" y="146" type="line" smooth="yes"/>
      <point x="52" y="55"/>
      <point x="103" y="-10"/>
      <point x="222" y="-10" type="curve" smooth="yes"/>
      <point x="341" y="-10"/>
      <point x="392" y="55"/>
      <point x="392" y="146" type="curve" smooth="yes"/>
      <point x="392" y="428" type="line" smooth="yes"/>
      <point x="392" y="519"/>
      <point x="341" y="584"/>
      <point x="222" y="584" type="curve" smooth="yes"/>
      <point x="103" y="584"/>
      <point x="52" y="519"/>
    </contour>
    <contour>
      <point x="301" y="426" type="curve" smooth="yes"/>
      <point x="301" y="148" type="line" smooth="yes"/>
      <point x="301" y="102"/>
      <point x="279" y="70"/>
      <point x="222" y="70" type="curve" smooth="yes"/>
      <point x="165" y="70"/>
      <point x="144" y="102"/>
      <point x="144" y="148" type="curve" smooth="yes"/>
      <point x="144" y="426" type="line" smooth="yes"/>
      <point x="144" y="473"/>
      <point x="165" y="504"/>
      <point x="222" y="504" type="curve" smooth="yes"/>
      <point x="279" y="504"/>
      <point x="301" y="473"/>
    </contour>
  </outline>
</glyph>
<glyph name="p" format="1">
  <advance width="451"/>
  <unicode hex="0070"/>
  <outline>
    <contour>
      <point x="150" y="548" type="curve"/>
      <point x="150" y="574" type="line"/>
      <point x="62" y="574" type="line"/>
      <point x="62" y="-149" type="line"/>
      <point x="155" y="-149" type="line"/>
      <point x="155" y="0" type="line"/>
      <point x="250" y="0" type="line" smooth="yes"/>
      <point x="338" y="0"/>
      <point x="399" y="51"/>
      <point x="399" y="149" type="curve" smooth="yes"/>
      <point x="399" y="447" type="line" smooth="yes"/>
      <point x="399" y="533"/>
      <point x="346" y="577"/>
      <point x="268" y="577" type="curve" smooth="yes"/>
      <point x="220" y="577"/>
      <point x="173" y="558"/>
    </contour>
    <contour>
      <point x="306" y="431" type="curve" smooth="yes"/>
      <point x="306" y="159" type="line" smooth="yes"/>
      <point x="306" y="109"/>
      <point x="278" y="84"/>
      <point x="227" y="84" type="curve" smooth="yes"/>
      <point x="155" y="84" type="line"/>
      <point x="155" y="469" type="line"/>
      <point x="181" y="482"/>
      <point x="211" y="492"/>
      <point x="244" y="492" type="curve" smooth="yes"/>
      <point x="282" y="492"/>
      <point x="306" y="473"/>
    </contour>
  </outline>
</glyph>
<glyph name="q" format="1">
  <advance width="451"/>
  <unicode hex="0071"/>
  <outline>
    <contour>
      <point x="218" y="574" type="line"/>
      <point x="112" y="574"/>
      <point x="52" y="512"/>
      <point x="52" y="413" type="curve" smooth="yes"/>
      <point x="52" y="145" type="line" smooth="yes"/>
      <point x="52" y="50"/>
      <point x="99" y="-2"/>
      <point x="194" y="-2" type="curve" smooth="yes"/>
      <point x="246" y="-2"/>
      <point x="279" y="12"/>
      <point x="297" y="23" type="curve"/>
      <point x="297" y="-149" type="line"/>
      <point x="389" y="-149" type="line"/>
      <point x="389" y="574" type="line"/>
    </contour>
    <contour>
      <point x="296" y="108" type="line"/>
      <point x="280" y="95"/>
      <point x="252" y="81"/>
      <point x="213" y="81" type="curve" smooth="yes"/>
      <point x="167" y="81"/>
      <point x="145" y="104"/>
      <point x="145" y="152" type="curve" smooth="yes"/>
      <point x="145" y="411" type="line" smooth="yes"/>
      <point x="145" y="466"/>
      <point x="176" y="491"/>
      <point x="229" y="491" type="curve" smooth="yes"/>
      <point x="296" y="491" type="line"/>
    </contour>
  </outline>
</glyph>
<glyph name="r" format="1">
  <advance width="293"/>
  <unicode hex="0072"/>
  <outline>
    <contour>
      <point x="265" y="577" type="line"/>
      <point x="212" y="577"/>
      <point x="191" y="560"/>
      <point x="150" y="532" type="curve"/>
      <point x="150" y="574" type="line"/>
      <point x="62" y="574" type="line"/>
      <point x="62" y="0" type="line"/>
      <point x="155" y="0" type="line"/>
      <point x="155" y="452" type="line"/>
      <point x="193" y="477"/>
      <point x="216" y="491"/>
      <point x="257" y="491" type="curve"/>
      <point x="288" y="491" type="line"/>
      <point x="288" y="577" type="line"/>
    </contour>
  </outline>
</glyph>
<glyph name="s" format="1">
  <advance width="368"/>
  <unicode hex="0073"/>
  <outline>
    <contour>
      <point x="27" y="435" type="curve" smooth="yes"/>
      <point x="27" y="403" type="line" smooth="yes"/>
      <point x="27" y="337"/>
      <point x="57" y="301"/>
      <point x="107" y="276" type="curve" smooth="yes"/>
      <point x="188" y="234" type="line" smooth="yes"/>
      <point x="238" y="208"/>
      <point x="250" y="194"/>
      <point x="250" y="162" type="curve" smooth="yes"/>
      <point x="250" y="144" type="line" smooth="yes"/>
      <point x="250" y="103"/>
      <point x="228" y="78"/>
      <point x="142" y="78" type="curve" smooth="yes"/>
      <point x="96" y="78"/>
      <point x="55" y="86"/>
      <point x="29" y="95" type="curve"/>
      <point x="29" y="10" type="line"/>
      <point x="59" y="2"/>
      <point x="95" y="-5"/>
      <point x="151" y="-5" type="curve" smooth="yes"/>
      <point x="281" y="-5"/>
      <point x="342" y="46"/>
      <point x="342" y="142" type="curve" smooth="yes"/>
      <point x="342" y="168" type="line"/>
      <point x="342" y="230"/>
      <point x="308" y="265"/>
      <point x="255" y="292" type="curve" smooth="yes"/>
      <point x="171" y="338" type="line" smooth="yes"/>
      <point x="130" y="358"/>
      <point x="117" y="373"/>
      <point x="117" y="410" type="curve" smooth="yes"/>
      <point x="117" y="430" type="line" smooth="yes"/>
      <point x="117" y="474"/>
      <point x="132" y="497"/>
      <point x="211" y="497" type="curve" smooth="yes"/>
      <point x="253" y="497"/>
      <point x="296" y="488"/>
      <point x="320" y="479" type="curve"/>
      <point x="320" y="563" type="line"/>
      <point x="292" y="572"/>
      <point x="247" y="579"/>
      <point x="206" y="579" type="curve" smooth="yes"/>
      <point x="76" y="579"/>
      <point x="27" y="528"/>
    </contour>
  </outline>
</glyph>
<glyph name="t" format="1">
  <advance width="298"/>
  <unicode hex="0074"/>
  <outline>
    <contour>
      <point x="96" y="678" type="line"/>
      <point x="68" y="574" type="line"/>
      <point x="5" y="574" type="line"/>
      <point x="5" y="495" type="line"/>
      <point x="65" y="495" type="line"/>
      <point x="65" y="129" type="line" smooth="yes"/>
      <point x="65" y="44"/>
      <point x="107" y="-6"/>
      <point x="205" y="-6" type="curve" smooth="yes"/>
      <point x="243" y="-6"/>
      <point x="277" y="5"/>
      <point x="283" y="6" type="curve"/>
      <point x="283" y="89" type="line"/>
      <point x="277" y="87"/>
      <point x="248" y="78"/>
      <point x="218" y="78" type="curve" smooth="yes"/>
      <point x="178" y="78"/>
      <point x="157" y="95"/>
      <point x="157" y="136" type="curve" smooth="yes"/>
      <point x="157" y="495" type="line"/>
      <point x="274" y="495" type="line"/>
      <point x="274" y="574" type="line"/>
      <point x="157" y="574" type="line"/>
      <point x="157" y="678" type="line"/>
    </contour>
  </outline>
</glyph>
<glyph name="u" format="1">
  <advance width="456"/>
  <unicode hex="0075"/>
  <outline>
    <contour>
      <point x="301" y="574" type="line"/>
      <point x="301" y="107" type="line"/>
      <point x="297" y="104"/>
      <point x="264" y="81"/>
      <point x="218" y="81" type="curve" smooth="yes"/>
      <point x="173" y="81"/>
      <point x="151" y="105"/>
      <point x="151" y="150" type="curve" smooth="yes"/>
      <point x="151" y="574" type="line"/>
      <point x="57" y="574" type="line"/>
      <point x="57" y="138" type="line" smooth="yes"/>
      <point x="57" y="48"/>
      <point x="105" y="-2"/>
      <point x="195" y="-2" type="curve" smooth="yes"/>
      <point x="255" y="-2"/>
      <point x="297" y="22"/>
      <point x="306" y="27" type="curve"/>
      <point x="306" y="0" type="line"/>
      <point x="394" y="0" type="line"/>
      <point x="394" y="574" type="line"/>
    </contour>
  </outline>
</glyph>
<glyph name="v" format="1">
  <advance width="400"/>
  <unicode hex="0076"/>
  <outline>
    <contour>
      <point x="294" y="574" type="line"/>
      <point x="245" y="334" type="line" smooth="yes"/>
      <point x="219" y="198"/>
      <point x="201" y="69"/>
      <point x="201" y="69" type="curve"/>
      <point x="201" y="69"/>
      <point x="185" y="197"/>
      <point x="157" y="335" type="curve" smooth="yes"/>
      <point x="107" y="574" type="line"/>
      <point x="14" y="574" type="line"/>
      <point x="141" y="0" type="line"/>
      <point x="261" y="0" type="line"/>
      <point x="386" y="574" type="line"/>
    </contour>
  </outline>
</glyph>
<glyph name="w" format="1">
  <advance width="605"/>
  <unicode hex="0077"/>
  <outline>
    <contour>
      <point x="497" y="574" type="line"/>
      <point x="430" y="104" type="line"/>
      <point x="350" y="574" type="line"/>
      <point x="256" y="574" type="line"/>
      <point x="177" y="105" type="line"/>
      <point x="109" y="574" type="line"/>
      <point x="14" y="574" type="line"/>
      <point x="116" y="0" type="line"/>
      <point x="232" y="0" type="line"/>
      <point x="277" y="265" type="line"/>
      <point x="289" y="340"/>
      <point x="300" y="427"/>
      <point x="303" y="451" type="curve"/>
      <point x="306" y="427"/>
      <point x="320" y="332"/>
      <point x="331" y="265" type="curve" smooth="yes"/>
      <point x="375" y="0" type="line"/>
      <point x="491" y="0" type="line"/>
      <point x="591" y="574" type="line"/>
    </contour>
  </outline>
</glyph>
<glyph name="x" format="1">
  <advance width="375"/>
  <unicode hex="0078"/>
  <outline>
    <contour>
      <point x="268" y="574" type="line"/>
      <point x="188" y="379" type="line"/>
      <point x="106" y="574" type="line"/>
      <point x="8" y="574" type="line"/>
      <point x="139" y="288" type="line"/>
      <point x="8" y="0" type="line"/>
      <point x="106" y="0" type="line"/>
      <point x="188" y="199" type="line"/>
      <point x="268" y="0" type="line"/>
      <point x="367" y="0" type="line"/>
      <point x="234" y="288" type="line"/>
      <point x="366" y="574" type="line"/>
    </contour>
  </outline>
</glyph>
<glyph name="y" format="1">
  <advance width="404"/>
  <unicode hex="0079"/>
  <outline>
    <contour>
      <point x="297" y="574" type="line"/>
      <point x="244" y="317" type="line"/>
      <point x="219" y="187"/>
      <point x="203" y="69"/>
      <point x="203" y="69" type="curve"/>
      <point x="203" y="69"/>
      <point x="188" y="186"/>
      <point x="161" y="319" type="curve" smooth="yes"/>
      <point x="108" y="574" type="line"/>
      <point x="16" y="574" type="line"/>
      <point x="138" y="0" type="line"/>
      <point x="178" y="0" type="line"/>
      <point x="147" y="-149" type="line"/>
      <point x="237" y="-149" type="line"/>
      <point x="388" y="574" type="line"/>
    </contour>
  </outline>
</glyph>
<glyph name="z" format="1">
  <advance width="332"/>
  <unicode hex="007A"/>
  <outline>
    <contour>
      <point x="25" y="574" type="line"/>
      <point x="25" y="495" type="line"/>
      <point x="213" y="495" type="line"/>
      <point x="20" y="65" type="line"/>
      <point x="20" y="0" type="line"/>
      <point x="312" y="0" type="line"/>
      <point x="312" y="79" type="line"/>
      <point x="117" y="79" type="line"/>
      <point x="311" y="510" type="line"/>
      <point x="311" y="574" type="line"/>
    </contour>
  </outline>
</glyph>
<glyph name="braceleft" format="1">
  <advance width="367"/>
  <unicode hex="007B"/>
  <outline>
    <contour>
      <point x="216" y="663" type="line"/>
      <point x="216" y="699"/>
      <point x="234" y="722"/>
      <point x="286" y="722" type="curve" smooth="yes"/>
      <point x="309" y="722" type="line"/>
      <point x="309" y="801" type="line"/>
      <point x="281" y="801" type="line" smooth="yes"/>
      <point x="187" y="801"/>
      <point x="135" y="746"/>
      <point x="135" y="660" type="curve" smooth="yes"/>
      <point x="135" y="435" type="line" smooth="yes"/>
      <point x="135" y="393"/>
      <point x="109" y="367"/>
      <point x="61" y="367" type="curve" smooth="yes"/>
      <point x="57" y="367" type="line"/>
      <point x="57" y="289" type="line"/>
      <point x="61" y="289" type="line" smooth="yes"/>
      <point x="109" y="289"/>
      <point x="135" y="263"/>
      <point x="135" y="221" type="curve" smooth="yes"/>
      <point x="135" y="-4" type="line" smooth="yes"/>
      <point x="135" y="-90"/>
      <point x="187" y="-145"/>
      <point x="281" y="-145" type="curve" smooth="yes"/>
      <point x="309" y="-145" type="line"/>
      <point x="309" y="-67" type="line"/>
      <point x="286" y="-67" type="line" smooth="yes"/>
      <point x="234" y="-67"/>
      <point x="216" y="-43"/>
      <point x="216" y="-7" type="curve" smooth="yes"/>
      <point x="216" y="198" type="line" smooth="yes"/>
      <point x="216" y="274"/>
      <point x="198" y="318"/>
      <point x="128" y="328" type="curve"/>
      <point x="198" y="339"/>
      <point x="216" y="387"/>
      <point x="216" y="462" type="curve" smooth="yes"/>
    </contour>
  </outline>
</glyph>
<glyph name="bar" format="1">
  <advance width="212"/>
  <unicode hex="007C"/>
  <outline>
    <contour>
      <point x="72" y="824" type="line"/>
      <point x="72" y="-161" type="line"/>
      <point x="139" y="-161" type="line"/>
      <point x="139" y="824" type="line"/>
    </contour>
  </outline>
</glyph>
<glyph name="braceright" format="1">
  <advance width="366"/>
  <unicode hex="007D"/>
  <outline>
    <contour>
      <point x="304" y="367" type="line"/>
      <point x="256" y="367"/>
      <point x="230" y="393"/>
      <point x="230" y="435" type="curve" smooth="yes"/>
      <point x="230" y="660" type="line" smooth="yes"/>
      <point x="230" y="746"/>
      <point x="178" y="801"/>
      <point x="84" y="801" type="curve" smooth="yes"/>
      <point x="56" y="801" type="line"/>
      <point x="56" y="722" type="line"/>
      <point x="79" y="722" type="line" smooth="yes"/>
      <point x="131" y="722"/>
      <point x="149" y="699"/>
      <point x="149" y="663" type="curve" smooth="yes"/>
      <point x="149" y="462" type="line" smooth="yes"/>
      <point x="149" y="387"/>
      <point x="167" y="339"/>
      <point x="237" y="328" type="curve"/>
      <point x="167" y="318"/>
      <point x="149" y="274"/>
      <point x="149" y="198" type="curve" smooth="yes"/>
      <point x="149" y="-7" type="line" smooth="yes"/>
      <point x="149" y="-43"/>
      <point x="131" y="-67"/>
      <point x="79" y="-67" type="curve" smooth="yes"/>
      <point x="56" y="-67" type="line"/>
      <point x="56" y="-145" type="line"/>
      <point x="84" y="-145" type="line" smooth="yes"/>
      <point x="178" y="-145"/>
      <point x="230" y="-90"/>
      <point x="230" y="-4" type="curve" smooth="yes"/>
      <point x="230" y="221" type="line" smooth="yes"/>
      <point x="230" y="263"/>
      <point x="256" y="289"/>
      <point x="304" y="289" type="curve" smooth="yes"/>
      <point x="307" y="289" type="line"/>
      <point x="307" y="367" type="line"/>
    </contour>
  </outline>
</glyph>
<glyph name="asciitilde" format="1">
  <advance width="480"/>
  <unicode hex="007E"/>
  <outline>
    <contour>
      <point x="373" y="407" type="line"/>
      <point x="383" y="350"/>
      <point x="344" y="340"/>
      <point x="293" y="362" type="curve" smooth="yes"/>
      <point x="190" y="403" type="line" smooth="yes"/>
      <point x="109" y="436"/>
      <point x="24" y="411"/>
      <point x="24" y="314" type="curve"/>
      <point x="24" y="295"/>
      <point x="27" y="277"/>
      <point x="27" y="277" type="curve"/>
      <point x="105" y="277" type="line"/>
      <point x="95" y="334"/>
      <point x="137" y="343"/>
      <point x="186" y="322" type="curve"/>
      <point x="289" y="281" type="line"/>
      <point x="370" y="248"/>
      <point x="455" y="273"/>
      <point x="455" y="370" type="curve"/>
      <point x="455" y="390"/>
      <point x="451" y="407"/>
      <point x="451" y="407" type="curve"/>
    </contour>
  </outline>
</glyph>
<glyph name="cent" format="1">
  <advance width="394"/>
  <unicode hex="00A2"/>
  <outline>
    <contour>
      <point x="187" y="23" type="line"/>
      <point x="187" y="-75" type="line"/>
      <point x="272" y="-75" type="line"/>
      <point x="272" y="23" type="line"/>
    </contour>
    <contour>
      <point x="189" y="654" type="line"/>
      <point x="189" y="559" type="line"/>
      <point x="274" y="559" type="line"/>
      <point x="274" y="654" type="line"/>
    </contour>
    <component base="c" xOffset="7"/>
  </outline>
</glyph>
<glyph name="sterling" format="1">
  <advance width="475"/>
  <unicode hex="00A3"/>
  <outline>
    <contour>
      <point x="119" y="511" type="curve" smooth="yes"/>
      <point x="119" y="176" type="line" smooth="yes"/>
      <point x="119" y="90"/>
      <point x="64" y="86"/>
      <point x="48" y="81" type="curve"/>
      <point x="48" y="0" type="line"/>
      <point x="432" y="0" type="line"/>
      <point x="432" y="82" type="line"/>
      <point x="165" y="82" type="line"/>
      <point x="181" y="94"/>
      <point x="211" y="112"/>
      <point x="211" y="187" type="curve"/>
      <point x="211" y="506" type="line" smooth="yes"/>
      <point x="211" y="560"/>
      <point x="230" y="595"/>
      <point x="308" y="595" type="curve" smooth="yes"/>
      <point x="355" y="595"/>
      <point x="393" y="586"/>
      <point x="424" y="575" type="curve"/>
      <point x="424" y="662" type="line"/>
      <point x="399" y="671"/>
      <point x="355" y="680"/>
      <point x="303" y="680" type="curve" smooth="yes"/>
      <point x="178" y="680"/>
      <point x="119" y="617"/>
    </contour>
    <contour>
      <point x="57" y="387" type="line"/>
      <point x="57" y="308" type="line"/>
      <point x="373" y="308" type="line"/>
      <point x="373" y="387" type="line"/>
    </contour>
  </outline>
</glyph>
<glyph name="currency" format="1">
  <advance width="460"/>
  <unicode hex="00A4"/>
  <outline>
    <contour>
      <point x="62" y="383" type="curve" smooth="yes"/>
      <point x="62" y="294" type="line" smooth="yes"/>
      <point x="62" y="200"/>
      <point x="108" y="136"/>
      <point x="231" y="136" type="curve" smooth="yes"/>
      <point x="354" y="136"/>
      <point x="400" y="200"/>
      <point x="400" y="294" type="curve" smooth="yes"/>
      <point x="400" y="383" type="line" smooth="yes"/>
      <point x="400" y="478"/>
      <point x="354" y="541"/>
      <point x="231" y="541" type="curve" smooth="yes"/>
      <point x="108" y="541"/>
      <point x="62" y="478"/>
    </contour>
    <contour>
      <point x="31" y="170" type="line"/>
      <point x="87" y="114" type="line"/>
      <point x="172" y="198" type="line"/>
      <point x="115" y="253" type="line"/>
    </contour>
    <contour>
      <point x="296" y="192" type="line"/>
      <point x="375" y="114" type="line"/>
      <point x="431" y="170" type="line"/>
      <point x="353" y="246" type="line"/>
    </contour>
    <contour>
      <point x="311" y="381" type="curve" smooth="yes"/>
      <point x="311" y="296" type="line" smooth="yes"/>
      <point x="311" y="245"/>
      <point x="294" y="217"/>
      <point x="231" y="217" type="curve" smooth="yes"/>
      <point x="169" y="217"/>
      <point x="152" y="246"/>
      <point x="152" y="296" type="curve" smooth="yes"/>
      <point x="152" y="381" type="line" smooth="yes"/>
      <point x="152" y="432"/>
      <point x="169" y="461"/>
      <point x="231" y="461" type="curve" smooth="yes"/>
      <point x="294" y="461"/>
      <point x="311" y="432"/>
    </contour>
    <contour>
      <point x="32" y="508" type="line"/>
      <point x="116" y="425" type="line"/>
      <point x="174" y="478" type="line"/>
      <point x="88" y="564" type="line"/>
    </contour>
    <contour>
      <point x="297" y="486" type="line"/>
      <point x="345" y="423" type="line"/>
      <point x="431" y="508" type="line"/>
      <point x="375" y="564" type="line"/>
    </contour>
  </outline>
</glyph>
<glyph name="yen" format="1">
  <advance width="496"/>
  <unicode hex="00A5"/>
  <outline>
    <contour>
      <point x="377" y="665" type="line"/>
      <point x="286" y="414" type="line"/>
      <point x="255" y="323" type="line"/>
      <point x="224" y="414" type="line"/>
      <point x="133" y="665" type="line"/>
      <point x="40" y="665" type="line"/>
      <point x="131" y="422" type="line"/>
      <point x="42" y="422" type="line"/>
      <point x="42" y="349" type="line"/>
      <point x="158" y="349" type="line"/>
      <point x="192" y="262" type="line"/>
      <point x="42" y="262" type="line"/>
      <point x="42" y="189" type="line"/>
      <point x="209" y="189" type="line"/>
      <point x="209" y="0" type="line"/>
      <point x="299" y="0" type="line"/>
      <point x="299" y="189" type="line"/>
      <point x="463" y="189" type="line"/>
      <point x="463" y="262" type="line"/>
      <point x="315" y="262" type="line"/>
      <point x="350" y="349" type="line"/>
      <point x="463" y="349" type="line"/>
      <point x="463" y="422" type="line"/>
      <point x="376" y="422" type="line"/>
      <point x="467" y="665" type="line"/>
    </contour>
  </outline>
</glyph>
<glyph name="brokenbar" format="1">
  <advance width="212"/>
  <unicode hex="00A6"/>
  <outline>
    <contour>
      <point x="72" y="824" type="line"/>
      <point x="72" y="443" type="line"/>
      <point x="139" y="443" type="line"/>
      <point x="139" y="824" type="line"/>
    </contour>
    <contour>
      <point x="72" y="220" type="line"/>
      <point x="72" y="-161" type="line"/>
      <point x="139" y="-161" type="line"/>
      <point x="139" y="220" type="line"/>
    </contour>
  </outline>
</glyph>
<glyph name="section" format="1">
  <advance width="375"/>
  <unicode hex="00A7"/>
  <outline>
    <contour>
      <point x="31" y="535" type="curve" smooth="yes"/>
      <point x="31" y="523" type="line" smooth="yes"/>
      <point x="31" y="457"/>
      <point x="61" y="421"/>
      <point x="111" y="396" type="curve" smooth="yes"/>
      <point x="192" y="354" type="line" smooth="yes"/>
      <point x="242" y="328"/>
      <point x="256" y="314"/>
      <point x="256" y="282" type="curve" smooth="yes"/>
      <point x="256" y="264" type="line"/>
      <point x="347" y="264" type="line"/>
      <point x="347" y="288" type="line" smooth="yes"/>
      <point x="347" y="350"/>
      <point x="312" y="385"/>
      <point x="260" y="412" type="curve" smooth="yes"/>
      <point x="175" y="456" type="line" smooth="yes"/>
      <point x="133" y="477"/>
      <point x="121" y="488"/>
      <point x="121" y="529" type="curve" smooth="yes"/>
      <point x="121" y="575"/>
      <point x="137" y="597"/>
      <point x="215" y="597" type="curve" smooth="yes"/>
      <point x="257" y="597"/>
      <point x="300" y="590"/>
      <point x="324" y="581" type="curve"/>
      <point x="324" y="665" type="line"/>
      <point x="296" y="674"/>
      <point x="251" y="680"/>
      <point x="210" y="680" type="curve" smooth="yes"/>
      <point x="80" y="680"/>
      <point x="31" y="629"/>
    </contour>
    <contour>
      <point x="127" y="268" type="line"/>
      <point x="38" y="268" type="line"/>
      <point x="38" y="244" type="line" smooth="yes"/>
      <point x="38" y="178"/>
      <point x="69" y="142"/>
      <point x="119" y="117" type="curve" smooth="yes"/>
      <point x="200" y="75" type="line" smooth="yes"/>
      <point x="252" y="48"/>
      <point x="262" y="33"/>
      <point x="262" y="1" type="curve" smooth="yes"/>
      <point x="262" y="-46"/>
      <point x="240" y="-66"/>
      <point x="153" y="-66" type="curve" smooth="yes"/>
      <point x="108" y="-66"/>
      <point x="67" y="-60"/>
      <point x="40" y="-51" type="curve"/>
      <point x="40" y="-135" type="line"/>
      <point x="71" y="-144"/>
      <point x="107" y="-149"/>
      <point x="163" y="-149" type="curve" smooth="yes"/>
      <point x="293" y="-149"/>
      <point x="354" y="-98"/>
      <point x="354" y="-3" type="curve" smooth="yes"/>
      <point x="354" y="9" type="line" smooth="yes"/>
      <point x="354" y="71"/>
      <point x="320" y="105"/>
      <point x="267" y="133" type="curve" smooth="yes"/>
      <point x="183" y="178" type="line" smooth="yes"/>
      <point x="142" y="199"/>
      <point x="127" y="214"/>
      <point x="127" y="251" type="curve" smooth="yes"/>
    </contour>
  </outline>
</glyph>
<glyph name="dieresis" format="1">
  <advance width="350"/>
  <unicode hex="00A8"/>
  <outline>
    <contour>
      <point x="59" y="672" type="curve" smooth="yes"/>
      <point x="59" y="647"/>
      <point x="70" y="630"/>
      <point x="103" y="630" type="curve" smooth="yes"/>
      <point x="135" y="630"/>
      <point x="146" y="647"/>
      <point x="146" y="672" type="curve" smooth="yes"/>
      <point x="146" y="696"/>
      <point x="135" y="714"/>
      <point x="103" y="714" type="curve" smooth="yes"/>
      <point x="70" y="714"/>
      <point x="59" y="696"/>
    </contour>
    <contour>
      <point x="204" y="672" type="curve" smooth="yes"/>
      <point x="204" y="647"/>
      <point x="214" y="630"/>
      <point x="247" y="630" type="curve" smooth="yes"/>
      <point x="279" y="630"/>
      <point x="291" y="647"/>
      <point x="291" y="672" type="curve" smooth="yes"/>
      <point x="291" y="696"/>
      <point x="279" y="714"/>
      <point x="247" y="714" type="curve" smooth="yes"/>
      <point x="214" y="714"/>
      <point x="204" y="696"/>
    </contour>
  </outline>
</glyph>
<glyph name="copyright" format="1">
  <advance width="692"/>
  <unicode hex="00A9"/>
  <outline>
    <contour>
      <point x="44" y="327" type="curve" smooth="yes"/>
      <point x="44" y="137"/>
      <point x="104" y="0"/>
      <point x="347" y="0" type="curve" smooth="yes"/>
      <point x="586" y="0"/>
      <point x="649" y="140"/>
      <point x="649" y="327" type="curve" smooth="yes"/>
      <point x="649" y="519"/>
      <point x="596" y="655"/>
      <point x="347" y="655" type="curve" smooth="yes"/>
      <point x="102" y="655"/>
      <point x="44" y="516"/>
    </contour>
    <contour>
      <point x="226" y="384" type="curve" smooth="yes"/>
      <point x="226" y="272" type="line" smooth="yes"/>
      <point x="226" y="195"/>
      <point x="260" y="149"/>
      <point x="359" y="149" type="curve" smooth="yes"/>
      <point x="392" y="149"/>
      <point x="421" y="155"/>
      <point x="434" y="157" type="curve"/>
      <point x="434" y="222" type="line"/>
      <point x="407" y="215"/>
      <point x="390" y="213"/>
      <point x="359" y="213" type="curve" smooth="yes"/>
      <point x="300" y="213"/>
      <point x="296" y="238"/>
      <point x="296" y="273" type="curve" smooth="yes"/>
      <point x="296" y="383" type="line" smooth="yes"/>
      <point x="296" y="417"/>
      <point x="300" y="443"/>
      <point x="359" y="443" type="curve" smooth="yes"/>
      <point x="390" y="443"/>
      <point x="407" y="441"/>
      <point x="434" y="434" type="curve"/>
      <point x="434" y="499" type="line"/>
      <point x="421" y="502"/>
      <point x="392" y="507"/>
      <point x="359" y="507" type="curve" smooth="yes"/>
      <point x="260" y="507"/>
      <point x="226" y="460"/>
    </contour>
    <contour>
      <point x="576" y="327" type="curve" smooth="yes"/>
      <point x="576" y="178"/>
      <point x="548" y="68"/>
      <point x="347" y="68" type="curve" smooth="yes"/>
      <point x="141" y="68"/>
      <point x="116" y="175"/>
      <point x="116" y="327" type="curve" smooth="yes"/>
      <point x="116" y="478"/>
      <point x="139" y="587"/>
      <point x="347" y="587" type="curve" smooth="yes"/>
      <point x="556" y="587"/>
      <point x="576" y="480"/>
    </contour>
  </outline>
</glyph>
<glyph name="ordfeminine" format="1">
  <advance width="337"/>
  <unicode hex="00AA"/>
  <outline>
    <contour>
      <point x="53" y="728" type="curve"/>
      <point x="53" y="668" type="line"/>
      <point x="84" y="678"/>
      <point x="137" y="686"/>
      <point x="166" y="686" type="curve" smooth="yes"/>
      <point x="217" y="686"/>
      <point x="234" y="669"/>
      <point x="235" y="640" type="curve"/>
      <point x="235" y="561" type="line"/>
      <point x="148" y="542" type="line" smooth="yes"/>
      <point x="78" y="525"/>
      <point x="34" y="497"/>
      <point x="34" y="433" type="curve" smooth="yes"/>
      <point x="34" y="398" type="line" smooth="yes"/>
      <point x="34" y="326"/>
      <point x="67" y="288"/>
      <point x="144" y="288" type="curve" smooth="yes"/>
      <point x="180" y="288"/>
      <point x="217" y="301"/>
      <point x="235" y="323" type="curve"/>
      <point x="235" y="287" type="line"/>
      <point x="298" y="287" type="line"/>
      <point x="298" y="638" type="line" smooth="yes"/>
      <point x="298" y="704"/>
      <point x="258" y="745"/>
      <point x="168" y="745" type="curve" smooth="yes"/>
      <point x="136" y="745"/>
      <point x="85" y="738"/>
    </contour>
    <contour>
      <point x="235" y="369" type="line"/>
      <point x="220" y="351"/>
      <point x="189" y="341"/>
      <point x="162" y="341" type="curve" smooth="yes"/>
      <point x="109" y="341"/>
      <point x="98" y="361"/>
      <point x="98" y="399" type="curve" smooth="yes"/>
      <point x="98" y="429" type="line" smooth="yes"/>
      <point x="98" y="462"/>
      <point x="118" y="479"/>
      <point x="159" y="488" type="curve" smooth="yes"/>
      <point x="235" y="504" type="line"/>
    </contour>
  </outline>
</glyph>
<glyph name="guillemotleft" format="1">
  <advance width="511"/>
  <unicode hex="00AB"/>
  <outline>
    <contour>
      <point x="375" y="505" type="line"/>
      <point x="254" y="322" type="line"/>
      <point x="375" y="139" type="line"/>
      <point x="469" y="139" type="line"/>
      <point x="347" y="322" type="line"/>
      <point x="469" y="505" type="line"/>
    </contour>
    <contour>
      <point x="182" y="505" type="line"/>
      <point x="61" y="322" type="line"/>
      <point x="182" y="139" type="line"/>
      <point x="275" y="139" type="line"/>
      <point x="153" y="322" type="line"/>
      <point x="275" y="505" type="line"/>
    </contour>
  </outline>
</glyph>
<glyph name="logicalnot" format="1">
  <advance width="476"/>
  <unicode hex="00AC"/>
  <outline>
    <contour>
      <point x="62" y="374" type="line"/>
      <point x="62" y="291" type="line"/>
      <point x="320" y="291" type="line"/>
      <point x="320" y="188" type="line"/>
      <point x="413" y="188" type="line"/>
      <point x="413" y="374" type="line"/>
    </contour>
  </outline>
</glyph>
<glyph name="softhyphen" format="1">
  <advance width="251"/>
  <unicode hex="00AD"/>
  <outline>
    <contour>
      <point x="40" y="366" type="line"/>
      <point x="40" y="288" type="line"/>
      <point x="216" y="288" type="line"/>
      <point x="216" y="366" type="line"/>
    </contour>
  </outline>
</glyph>
<glyph name="registered" format="1">
  <advance width="536"/>
  <unicode hex="00AE"/>
  <outline>
    <contour>
      <point x="77" y="520" type="curve" smooth="yes"/>
      <point x="77" y="381"/>
      <point x="119" y="300"/>
      <point x="284" y="300" type="curve" smooth="yes"/>
      <point x="453" y="300"/>
      <point x="494" y="384"/>
      <point x="494" y="520" type="curve" smooth="yes"/>
      <point x="494" y="662"/>
      <point x="452" y="744"/>
      <point x="285" y="744" type="curve" smooth="yes"/>
      <point x="121" y="744"/>
      <point x="77" y="661"/>
    </contour>
    <contour>
      <point x="289" y="507" type="line"/>
      <point x="332" y="391" type="line"/>
      <point x="386" y="391" type="line"/>
      <point x="338" y="507" type="line"/>
    </contour>
    <contour>
      <point x="443" y="520" type="curve" smooth="yes"/>
      <point x="443" y="405"/>
      <point x="427" y="346"/>
      <point x="284" y="346" type="curve" smooth="yes"/>
      <point x="144" y="346"/>
      <point x="128" y="404"/>
      <point x="128" y="520" type="curve" smooth="yes"/>
      <point x="128" y="640"/>
      <point x="143" y="698"/>
      <point x="285" y="698" type="curve" smooth="yes"/>
      <point x="426" y="698"/>
      <point x="443" y="641"/>
    </contour>
    <contour>
      <point x="207" y="655" type="line"/>
      <point x="207" y="391" type="line"/>
      <point x="257" y="391" type="line"/>
      <point x="257" y="487" type="line"/>
      <point x="282" y="487" type="line"/>
      <point x="341" y="487"/>
      <point x="375" y="511"/>
      <point x="375" y="573" type="curve" smooth="yes"/>
      <point x="375" y="633"/>
      <point x="341" y="655"/>
      <point x="283" y="655" type="curve" smooth="yes"/>
    </contour>
    <contour>
      <point x="328" y="573" type="curve" smooth="yes"/>
      <point x="328" y="536"/>
      <point x="314" y="529"/>
      <point x="278" y="529" type="curve" smooth="yes"/>
      <point x="257" y="529" type="line"/>
      <point x="257" y="614" type="line"/>
      <point x="284" y="614" type="line" smooth="yes"/>
      <point x="312" y="614"/>
      <point x="328" y="611"/>
    </contour>
  </outline>
</glyph>
<glyph name="degree" format="1">
  <advance width="389"/>
  <unicode hex="00B0"/>
  <outline>
    <contour>
      <point x="50" y="657" type="curve" smooth="yes"/>
      <point x="50" y="569"/>
      <point x="88" y="502"/>
      <point x="196" y="502" type="curve" smooth="yes"/>
      <point x="303" y="502"/>
      <point x="343" y="569"/>
      <point x="343" y="657" type="curve" smooth="yes"/>
      <point x="343" y="745"/>
      <point x="303" y="811"/>
      <point x="196" y="811" type="curve" smooth="yes"/>
      <point x="88" y="811"/>
      <point x="50" y="745"/>
    </contour>
    <contour>
      <point x="268" y="656" type="curve" smooth="yes"/>
      <point x="268" y="607"/>
      <point x="255" y="573"/>
      <point x="196" y="573" type="curve" smooth="yes"/>
      <point x="137" y="573"/>
      <point x="125" y="607"/>
      <point x="125" y="656" type="curve" smooth="yes"/>
      <point x="125" y="705"/>
      <point x="137" y="740"/>
      <point x="196" y="740" type="curve" smooth="yes"/>
      <point x="255" y="740"/>
      <point x="268" y="705"/>
    </contour>
  </outline>
</glyph>
<glyph name="plusminus" format="1">
  <advance width="453"/>
  <unicode hex="00B1"/>
  <outline>
    <contour>
      <point x="43" y="109" type="line"/>
      <point x="43" y="31" type="line"/>
      <point x="415" y="31" type="line"/>
      <point x="414" y="109" type="line"/>
    </contour>
    <contour>
      <point x="43" y="366" type="line"/>
      <point x="43" y="288" type="line"/>
      <point x="414" y="288" type="line"/>
      <point x="414" y="366" type="line"/>
    </contour>
    <contour>
      <point x="186" y="492" type="line"/>
      <point x="186" y="161" type="line"/>
      <point x="271" y="161" type="line"/>
      <point x="271" y="492" type="line"/>
    </contour>
  </outline>
</glyph>
<glyph name="twosuperior" format="1">
  <advance width="294"/>
  <unicode hex="00B2"/>
  <outline>
    <contour>
      <point x="42" y="734" type="curve"/>
      <point x="42" y="675" type="line"/>
      <point x="63" y="680"/>
      <point x="96" y="686"/>
      <point x="143" y="686" type="curve" smooth="yes"/>
      <point x="191" y="686"/>
      <point x="204" y="670"/>
      <point x="204" y="638" type="curve" smooth="yes"/>
      <point x="204" y="616" type="line" smooth="yes"/>
      <point x="204" y="585"/>
      <point x="201" y="566"/>
      <point x="170" y="546" type="curve" smooth="yes"/>
      <point x="101" y="499" type="line" smooth="yes"/>
      <point x="51" y="465"/>
      <point x="30" y="441"/>
      <point x="30" y="381" type="curve" smooth="yes"/>
      <point x="30" y="289" type="line"/>
      <point x="268" y="289" type="line"/>
      <point x="268" y="348" type="line"/>
      <point x="94" y="348" type="line"/>
      <point x="94" y="378" type="line" smooth="yes"/>
      <point x="94" y="418"/>
      <point x="97" y="425"/>
      <point x="146" y="458" type="curve" smooth="yes"/>
      <point x="212" y="504" type="line" smooth="yes"/>
      <point x="252" y="532"/>
      <point x="267" y="561"/>
      <point x="267" y="609" type="curve" smooth="yes"/>
      <point x="267" y="639" type="line" smooth="yes"/>
      <point x="267" y="706"/>
      <point x="228" y="745"/>
      <point x="145" y="745" type="curve" smooth="yes"/>
      <point x="93" y="745"/>
      <point x="54" y="738"/>
    </contour>
  </outline>
</glyph>
<glyph name="threesuperior" format="1">
  <advance width="301"/>
  <unicode hex="00B3"/>
  <outline>
    <contour>
      <point x="37" y="735" type="curve"/>
      <point x="37" y="676" type="line"/>
      <point x="63" y="682"/>
      <point x="86" y="686"/>
      <point x="133" y="686" type="curve" smooth="yes"/>
      <point x="181" y="686"/>
      <point x="194" y="670"/>
      <point x="194" y="638" type="curve" smooth="yes"/>
      <point x="194" y="598" type="line" smooth="yes"/>
      <point x="194" y="571"/>
      <point x="188" y="547"/>
      <point x="141" y="547" type="curve" smooth="yes"/>
      <point x="95" y="547" type="line"/>
      <point x="95" y="488" type="line"/>
      <point x="141" y="488" type="line" smooth="yes"/>
      <point x="188" y="488"/>
      <point x="194" y="467"/>
      <point x="194" y="439" type="curve" smooth="yes"/>
      <point x="194" y="391" type="line" smooth="yes"/>
      <point x="194" y="359"/>
      <point x="180" y="343"/>
      <point x="133" y="343" type="curve" smooth="yes"/>
      <point x="85" y="343"/>
      <point x="64" y="347"/>
      <point x="30" y="355" type="curve"/>
      <point x="30" y="296" type="line"/>
      <point x="53" y="290"/>
      <point x="82" y="285"/>
      <point x="134" y="285" type="curve" smooth="yes"/>
      <point x="217" y="285"/>
      <point x="258" y="323"/>
      <point x="258" y="390" type="curve" smooth="yes"/>
      <point x="258" y="439" type="line" smooth="yes"/>
      <point x="258" y="475"/>
      <point x="245" y="505"/>
      <point x="217" y="518" type="curve"/>
      <point x="245" y="532"/>
      <point x="258" y="564"/>
      <point x="258" y="598" type="curve" smooth="yes"/>
      <point x="258" y="642" type="line" smooth="yes"/>
      <point x="256" y="707"/>
      <point x="217" y="745"/>
      <point x="135" y="745" type="curve" smooth="yes"/>
      <point x="79" y="745"/>
      <point x="53" y="739"/>
    </contour>
  </outline>
</glyph>
<glyph name="acute" format="1">
  <advance width="350"/>
  <unicode hex="00B4"/>
  <outline>
    <contour>
      <point x="156" y="727" type="line"/>
      <point x="116" y="618" type="line"/>
      <point x="171" y="618" type="line"/>
      <point x="234" y="727" type="line"/>
    </contour>
  </outline>
</glyph>
<glyph name="mu.math" format="1">
  <advance width="458"/>
  <unicode hex="00B5"/>
  <outline>
    <contour>
      <point x="303" y="574" type="line"/>
      <point x="303" y="109" type="line"/>
      <point x="299" y="107"/>
      <point x="264" y="82"/>
      <point x="217" y="82" type="curve" smooth="yes"/>
      <point x="175" y="82"/>
      <point x="155" y="95"/>
      <point x="153" y="96" type="curve"/>
      <point x="153" y="574" type="line"/>
      <point x="59" y="574" type="line"/>
      <point x="59" y="-150" type="line"/>
      <point x="153" y="-150" type="line"/>
      <point x="153" y="9" type="line"/>
      <point x="166" y="4"/>
      <point x="190" y="0"/>
      <point x="215" y="0" type="curve" smooth="yes"/>
      <point x="265" y="2"/>
      <point x="302" y="24"/>
      <point x="308" y="27" type="curve"/>
      <point x="308" y="0" type="line"/>
      <point x="396" y="0" type="line"/>
      <point x="396" y="574" type="line"/>
    </contour>
  </outline>
</glyph>
<glyph name="paragraph" format="1">
  <advance width="420"/>
  <unicode hex="00B6"/>
  <outline>
    <contour>
      <point x="228" y="678" type="line"/>
      <point x="119" y="678"/>
      <point x="62" y="619"/>
      <point x="62" y="528" type="curve"/>
      <point x="62" y="434"/>
      <point x="119" y="375"/>
      <point x="228" y="375" type="curve" smooth="yes"/>
      <point x="259" y="375" type="line"/>
      <point x="259" y="1" type="line"/>
      <point x="352" y="1" type="line"/>
      <point x="352" y="678" type="line"/>
    </contour>
  </outline>
</glyph>
<glyph name="periodcentered" format="1">
  <advance width="234"/>
  <unicode hex="00B7"/>
  <outline>
    <contour>
      <point x="67" y="345" type="curve" smooth="yes"/>
      <point x="67" y="316"/>
      <point x="79" y="294"/>
      <point x="118" y="294" type="curve" smooth="yes"/>
      <point x="156" y="294"/>
      <point x="168" y="316"/>
      <point x="168" y="345" type="curve" smooth="yes"/>
      <point x="168" y="374"/>
      <point x="156" y="395"/>
      <point x="118" y="395" type="curve" smooth="yes"/>
      <point x="79" y="395"/>
      <point x="67" y="374"/>
    </contour>
  </outline>
</glyph>
<glyph name="cedilla" format="1">
  <advance width="350"/>
  <unicode hex="00B8"/>
  <outline>
    <contour>
      <point x="146" y="6" type="line"/>
      <point x="130" y="-71" type="line"/>
      <point x="142" y="-71" type="line" smooth="yes"/>
      <point x="174" y="-72"/>
      <point x="190" y="-82"/>
      <point x="190" y="-104" type="curve" smooth="yes"/>
      <point x="190" y="-127"/>
      <point x="171" y="-137"/>
      <point x="144" y="-137" type="curve" smooth="yes"/>
      <point x="129" y="-137"/>
      <point x="113" y="-135"/>
      <point x="103" y="-131" type="curve"/>
      <point x="103" y="-177" type="line"/>
      <point x="118" y="-182"/>
      <point x="137" y="-184"/>
      <point x="153" y="-184" type="curve" smooth="yes"/>
      <point x="206" y="-184"/>
      <point x="246" y="-157"/>
      <point x="246" y="-107" type="curve" smooth="yes"/>
      <point x="246" y="-62"/>
      <point x="214" y="-42"/>
      <point x="181" y="-40" type="curve"/>
      <point x="191" y="6" type="line"/>
    </contour>
  </outline>
</glyph>
<glyph name="onesuperior" format="1">
  <advance width="221"/>
  <unicode hex="00B9"/>
  <outline>
    <contour>
      <point x="103" y="739" type="line"/>
      <point x="18" y="676" type="line"/>
      <point x="18" y="604" type="line"/>
      <point x="110" y="673" type="line"/>
      <point x="110" y="289" type="line"/>
      <point x="172" y="289" type="line"/>
      <point x="172" y="739" type="line"/>
    </contour>
  </outline>
</glyph>
<glyph name="ordmasculine" format="1">
  <advance width="332"/>
  <unicode hex="00BA"/>
  <outline>
    <contour>
      <point x="45" y="637" type="curve" smooth="yes"/>
      <point x="45" y="393" type="line" smooth="yes"/>
      <point x="45" y="323"/>
      <point x="85" y="285"/>
      <point x="172" y="285" type="curve" smooth="yes"/>
      <point x="258" y="285"/>
      <point x="298" y="323"/>
      <point x="298" y="393" type="curve" smooth="yes"/>
      <point x="298" y="637" type="line" smooth="yes"/>
      <point x="298" y="707"/>
      <point x="258" y="745"/>
      <point x="172" y="745" type="curve" smooth="yes"/>
      <point x="85" y="745"/>
      <point x="45" y="707"/>
    </contour>
    <contour>
      <point x="235" y="641" type="curve" smooth="yes"/>
      <point x="235" y="392" type="line" smooth="yes"/>
      <point x="235" y="360"/>
      <point x="219" y="344"/>
      <point x="172" y="344" type="curve" smooth="yes"/>
      <point x="124" y="344"/>
      <point x="109" y="360"/>
      <point x="109" y="392" type="curve" smooth="yes"/>
      <point x="109" y="641" type="line" smooth="yes"/>
      <point x="109" y="670"/>
      <point x="125" y="686"/>
      <point x="172" y="686" type="curve" smooth="yes"/>
      <point x="217" y="686"/>
      <point x="234" y="670"/>
    </contour>
  </outline>
</glyph>
<glyph name="guillemotright" format="1">
  <advance width="510"/>
  <unicode hex="00BB"/>
  <outline>
    <contour>
      <point x="230" y="505" type="line"/>
      <point x="352" y="322" type="line"/>
      <point x="230" y="139" type="line"/>
      <point x="323" y="139" type="line"/>
      <point x="444" y="322" type="line"/>
      <point x="323" y="505" type="line"/>
    </contour>
    <contour>
      <point x="36" y="505" type="line"/>
      <point x="158" y="322" type="line"/>
      <point x="36" y="139" type="line"/>
      <point x="130" y="139" type="line"/>
      <point x="251" y="322" type="line"/>
      <point x="130" y="505" type="line"/>
    </contour>
  </outline>
</glyph>
<glyph name="onequarter" format="1">
  <advance width="798"/>
  <unicode hex="00BC"/>
  <outline>
    <contour>
      <point x="125" y="677" type="line"/>
      <point x="40" y="614" type="line"/>
      <point x="40" y="542" type="line"/>
      <point x="131" y="611" type="line"/>
      <point x="131" y="227" type="line"/>
      <point x="194" y="227" type="line"/>
      <point x="194" y="677" type="line"/>
    </contour>
    <contour>
      <point x="598" y="451" type="line"/>
      <point x="456" y="151" type="line"/>
      <point x="456" y="92" type="line"/>
      <point x="634" y="92" type="line"/>
      <point x="634" y="0" type="line"/>
      <point x="695" y="0" type="line"/>
      <point x="695" y="92" type="line"/>
      <point x="742" y="92" type="line"/>
      <point x="742" y="149" type="line"/>
      <point x="695" y="149" type="line"/>
      <point x="695" y="451" type="line"/>
    </contour>
    <contour>
      <point x="634" y="149" type="line"/>
      <point x="516" y="149" type="line"/>
      <point x="634" y="399" type="line"/>
    </contour>
    <contour>
      <point x="502" y="677" type="line"/>
      <point x="150" y="0" type="line"/>
      <point x="215" y="0" type="line"/>
      <point x="567" y="677" type="line"/>
    </contour>
  </outline>
</glyph>
<glyph name="threequarters" format="1">
  <advance width="833"/>
  <unicode hex="00BE"/>
  <outline>
    <contour>
      <point x="633" y="451" type="line"/>
      <point x="491" y="151" type="line"/>
      <point x="491" y="92" type="line"/>
      <point x="668" y="92" type="line"/>
      <point x="668" y="0" type="line"/>
      <point x="730" y="0" type="line"/>
      <point x="730" y="92" type="line"/>
      <point x="777" y="92" type="line"/>
      <point x="777" y="149" type="line"/>
      <point x="730" y="149" type="line"/>
      <point x="730" y="451" type="line"/>
    </contour>
    <contour>
      <point x="668" y="149" type="line"/>
      <point x="551" y="149" type="line"/>
      <point x="668" y="399" type="line"/>
    </contour>
    <contour>
      <point x="549" y="677" type="line"/>
      <point x="197" y="0" type="line"/>
      <point x="261" y="0" type="line"/>
      <point x="613" y="677" type="line"/>
    </contour>
    <contour>
      <point x="47" y="674" type="curve"/>
      <point x="47" y="615" type="line"/>
      <point x="73" y="620"/>
      <point x="95" y="625"/>
      <point x="143" y="625" type="curve" smooth="yes"/>
      <point x="190" y="625"/>
      <point x="204" y="608"/>
      <point x="204" y="576" type="curve" smooth="yes"/>
      <point x="204" y="536" type="line" smooth="yes"/>
      <point x="204" y="509"/>
      <point x="198" y="485"/>
      <point x="151" y="485" type="curve" smooth="yes"/>
      <point x="105" y="485" type="line"/>
      <point x="105" y="427" type="line"/>
      <point x="151" y="427" type="line" smooth="yes"/>
      <point x="198" y="426"/>
      <point x="204" y="405"/>
      <point x="204" y="377" type="curve" smooth="yes"/>
      <point x="204" y="329" type="line" smooth="yes"/>
      <point x="204" y="297"/>
      <point x="190" y="281"/>
      <point x="142" y="281" type="curve" smooth="yes"/>
      <point x="95" y="281"/>
      <point x="74" y="286"/>
      <point x="40" y="293" type="curve"/>
      <point x="40" y="234" type="line"/>
      <point x="63" y="228"/>
      <point x="92" y="223"/>
      <point x="144" y="223" type="curve" smooth="yes"/>
      <point x="227" y="223"/>
      <point x="267" y="261"/>
      <point x="267" y="328" type="curve" smooth="yes"/>
      <point x="267" y="377" type="line" smooth="yes"/>
      <point x="267" y="413"/>
      <point x="255" y="444"/>
      <point x="227" y="457" type="curve"/>
      <point x="255" y="470"/>
      <point x="267" y="502"/>
      <point x="267" y="536" type="curve" smooth="yes"/>
      <point x="267" y="580" type="line" smooth="yes"/>
      <point x="266" y="646"/>
      <point x="226" y="683"/>
      <point x="145" y="683" type="curve" smooth="yes"/>
      <point x="89" y="683"/>
      <point x="63" y="678"/>
    </contour>
  </outline>
</glyph>
<glyph name="AE" format="1">
  <advance width="677"/>
  <unicode hex="00C6"/>
  <outline>
    <contour>
      <point x="299" y="677" type="line"/>
      <point x="6" y="0" type="line"/>
      <point x="99" y="0" type="line"/>
      <point x="381" y="677" type="line"/>
    </contour>
    <contour>
      <point x="145" y="260" type="line"/>
      <point x="145" y="180" type="line"/>
      <point x="393" y="180" type="line"/>
      <point x="393" y="260" type="line"/>
    </contour>
    <contour>
      <point x="354" y="677" type="line"/>
      <point x="354" y="0" type="line"/>
      <point x="658" y="0" type="line"/>
      <point x="658" y="81" type="line"/>
      <point x="442" y="81" type="line"/>
      <point x="442" y="302" type="line"/>
      <point x="630" y="302" type="line"/>
      <point x="630" y="382" type="line"/>
      <point x="442" y="382" type="line"/>
      <point x="442" y="597" type="line"/>
      <point x="658" y="597" type="line"/>
      <point x="658" y="677" type="line"/>
    </contour>
  </outline>
</glyph>
<glyph name="Eth" format="1">
  <advance width="475"/>
  <unicode hex="00D0"/>
  <outline>
    <contour>
      <point x="-4" y="372" type="line"/>
      <point x="-4" y="294" type="line"/>
      <point x="253" y="294" type="line"/>
      <point x="253" y="372" type="line"/>
    </contour>
    <component base="D" xOffset="4"/>
  </outline>
</glyph>
<glyph name="multiply" format="1">
  <advance width="406"/>
  <unicode hex="00D7"/>
  <outline>
    <contour>
      <point x="34" y="441" type="line"/>
      <point x="317" y="158" type="line"/>
      <point x="372" y="213" type="line"/>
      <point x="89" y="496" type="line"/>
    </contour>
    <contour>
      <point x="33" y="213" type="line"/>
      <point x="88" y="158" type="line"/>
      <point x="371" y="441" type="line"/>
      <point x="316" y="496" type="line"/>
    </contour>
  </outline>
</glyph>
<glyph name="Oslash" format="1">
  <advance width="465"/>
  <unicode hex="00D8"/>
  <outline>
    <contour>
      <point x="352" y="677" type="line"/>
      <point x="50" y="0" type="line"/>
      <point x="114" y="0" type="line"/>
      <point x="415" y="677" type="line"/>
    </contour>
    <component base="O"/>
  </outline>
</glyph>
<glyph name="Thorn" format="1">
  <advance width="436"/>
  <unicode hex="00DE"/>
  <outline>
    <contour>
      <point x="144" y="561" type="line"/>
      <point x="144" y="481" type="line"/>
      <point x="242" y="481" type="line" smooth="yes"/>
      <point x="301" y="481"/>
      <point x="323" y="452"/>
      <point x="323" y="403" type="curve" smooth="yes"/>
      <point x="323" y="275" type="line" smooth="yes"/>
      <point x="323" y="225"/>
      <point x="301" y="198"/>
      <point x="242" y="198" type="curve" smooth="yes"/>
      <point x="147" y="198" type="line"/>
      <point x="147" y="117" type="line"/>
      <point x="248" y="117" type="line" smooth="yes"/>
      <point x="356" y="117"/>
      <point x="413" y="175"/>
      <point x="413" y="268" type="curve" smooth="yes"/>
      <point x="413" y="409" type="line" smooth="yes"/>
      <point x="413" y="502"/>
      <point x="356" y="561"/>
      <point x="248" y="561" type="curve" smooth="yes"/>
    </contour>
    <contour>
      <point x="72" y="677" type="line"/>
      <point x="72" y="0" type="line"/>
      <point x="162" y="0" type="line"/>
      <point x="162" y="677" type="line"/>
    </contour>
  </outline>
</glyph>
<glyph name="germandbls" format="1">
  <advance width="545"/>
  <unicode hex="00DF"/>
  <outline>
    <contour>
      <point x="62" y="542" type="curve" smooth="yes"/>
      <point x="62" y="0" type="line"/>
      <point x="151" y="0" type="line"/>
      <point x="151" y="537" type="line" smooth="yes"/>
      <point x="151" y="605"/>
      <point x="182" y="637"/>
      <point x="254" y="637" type="curve" smooth="yes"/>
      <point x="318" y="637"/>
      <point x="346" y="607"/>
      <point x="346" y="557" type="curve" smooth="yes"/>
      <point x="346" y="482"/>
      <point x="268" y="455"/>
      <point x="268" y="379" type="curve" smooth="yes"/>
      <point x="268" y="365" type="line" smooth="yes"/>
      <point x="268" y="312"/>
      <point x="299" y="282"/>
      <point x="368" y="244" type="curve" smooth="yes"/>
      <point x="414" y="216"/>
      <point x="436" y="196"/>
      <point x="436" y="162" type="curve" smooth="yes"/>
      <point x="436" y="146" type="line" smooth="yes"/>
      <point x="436" y="105"/>
      <point x="415" y="78"/>
      <point x="333" y="78" type="curve" smooth="yes"/>
      <point x="289" y="78"/>
      <point x="253" y="87"/>
      <point x="227" y="96" type="curve"/>
      <point x="227" y="11" type="line"/>
      <point x="256" y="3"/>
      <point x="286" y="-4"/>
      <point x="341" y="-4" type="curve" smooth="yes"/>
      <point x="469" y="-4"/>
      <point x="525" y="51"/>
      <point x="525" y="141" type="curve" smooth="yes"/>
      <point x="525" y="169" type="line" smooth="yes"/>
      <point x="525" y="226"/>
      <point x="492" y="259"/>
      <point x="439" y="290" type="curve" smooth="yes"/>
      <point x="378" y="325"/>
      <point x="361" y="347"/>
      <point x="361" y="373" type="curve" smooth="yes"/>
      <point x="361" y="383" type="line" smooth="yes"/>
      <point x="361" y="432"/>
      <point x="437" y="465"/>
      <point x="437" y="560" type="curve" smooth="yes"/>
      <point x="437" y="660"/>
      <point x="366" y="719"/>
      <point x="254" y="719" type="curve" smooth="yes"/>
      <point x="129" y="719"/>
      <point x="62" y="657"/>
    </contour>
  </outline>
</glyph>
<glyph name="ae" format="1">
  <advance width="651"/>
  <unicode hex="00E6"/>
  <outline>
    <contour>
      <point x="326" y="538" type="curve"/>
      <point x="299" y="564"/>
      <point x="256" y="579"/>
      <point x="193" y="579" type="curve" smooth="yes"/>
      <point x="135" y="579"/>
      <point x="81" y="568"/>
      <point x="56" y="560" type="curve"/>
      <point x="56" y="476" type="line"/>
      <point x="82" y="485"/>
      <point x="135" y="496"/>
      <point x="188" y="496" type="curve" smooth="yes"/>
      <point x="264" y="496"/>
      <point x="281" y="470"/>
      <point x="281" y="429" type="curve" smooth="yes"/>
      <point x="282" y="350" type="line"/>
      <point x="150" y="312" type="line" smooth="yes"/>
      <point x="66" y="287"/>
      <point x="30" y="243"/>
      <point x="30" y="168" type="curve" smooth="yes"/>
      <point x="30" y="135" type="line" smooth="yes"/>
      <point x="30" y="45"/>
      <point x="78" y="-4"/>
      <point x="175" y="-4" type="curve" smooth="yes"/>
      <point x="238" y="-4"/>
      <point x="294" y="12"/>
      <point x="328" y="38" type="curve"/>
      <point x="358" y="10"/>
      <point x="407" y="-5"/>
      <point x="476" y="-5" type="curve" smooth="yes"/>
      <point x="539" y="-5"/>
      <point x="574" y="3"/>
      <point x="604" y="11" type="curve"/>
      <point x="604" y="95" type="line"/>
      <point x="578" y="87"/>
      <point x="534" y="77"/>
      <point x="483" y="77" type="curve" smooth="yes"/>
      <point x="405" y="77"/>
      <point x="371" y="102"/>
      <point x="371" y="156" type="curve" smooth="yes"/>
      <point x="371" y="245" type="line"/>
      <point x="620" y="245" type="line"/>
      <point x="620" y="427" type="line" smooth="yes"/>
      <point x="620" y="518"/>
      <point x="572" y="584"/>
      <point x="453" y="584" type="curve" smooth="yes"/>
      <point x="394" y="584"/>
      <point x="351" y="563"/>
    </contour>
    <contour>
      <point x="283" y="98" type="line"/>
      <point x="260" y="80"/>
      <point x="225" y="69"/>
      <point x="188" y="69" type="curve" smooth="yes"/>
      <point x="140" y="69"/>
      <point x="119" y="90"/>
      <point x="119" y="135" type="curve"/>
      <point x="119" y="165" type="line" smooth="yes"/>
      <point x="119" y="207"/>
      <point x="132" y="228"/>
      <point x="186" y="243" type="curve" smooth="yes"/>
      <point x="283" y="270" type="line"/>
    </contour>
    <contour>
      <point x="533" y="427" type="curve" smooth="yes"/>
      <point x="533" y="320" type="line"/>
      <point x="370" y="320" type="line"/>
      <point x="370" y="427" type="line"/>
      <point x="370" y="474"/>
      <point x="396" y="506"/>
      <point x="453" y="506" type="curve" smooth="yes"/>
      <point x="510" y="506"/>
      <point x="533" y="474"/>
    </contour>
  </outline>
</glyph>
<glyph name="igrave" format="1">
  <advance width="217"/>
  <unicode hex="00EC"/>
  <outline>
    <contour>
      <point x="62" y="568" type="line"/>
      <point x="62" y="0" type="line"/>
      <point x="155" y="0" type="line"/>
      <point x="155" y="568" type="line"/>
    </contour>
    <component base="grave" xOffset="-101"/>
  </outline>
</glyph>
<glyph name="iacute" format="1">
  <advance width="217"/>
  <unicode hex="00ED"/>
  <outline>
    <contour>
      <point x="62" y="568" type="line"/>
      <point x="62" y="0" type="line"/>
      <point x="155" y="0" type="line"/>
      <point x="155" y="568" type="line"/>
    </contour>
    <component base="acute" xOffset="-36"/>
  </outline>
</glyph>
<glyph name="icircumflex" format="1">
  <advance width="217"/>
  <unicode hex="00EE"/>
  <outline>
    <contour>
      <point x="62" y="568" type="line"/>
      <point x="62" y="0" type="line"/>
      <point x="155" y="0" type="line"/>
      <point x="155" y="568" type="line"/>
    </contour>
    <component base="circumflex" xOffset="-65"/>
  </outline>
</glyph>
<glyph name="idieresis" format="1">
  <advance width="217"/>
  <unicode hex="00EF"/>
  <outline>
    <contour>
      <point x="62" y="568" type="line"/>
      <point x="62" y="0" type="line"/>
      <point x="155" y="0" type="line"/>
      <point x="155" y="568" type="line"/>
    </contour>
    <component base="dieresis" xOffset="-66"/>
  </outline>
</glyph>
<glyph name="eth" format="1">
  <advance width="453"/>
  <unicode hex="00F0"/>
  <outline>
    <contour>
      <point x="139" y="677" type="line"/>
      <point x="210" y="603"/>
      <point x="267" y="513"/>
      <point x="292" y="417" type="curve"/>
      <point x="276" y="433"/>
      <point x="246" y="449"/>
      <point x="207" y="449" type="curve" smooth="yes"/>
      <point x="101" y="449"/>
      <point x="57" y="389"/>
      <point x="57" y="299" type="curve" smooth="yes"/>
      <point x="57" y="150" type="line" smooth="yes"/>
      <point x="57" y="57"/>
      <point x="110" y="-8"/>
      <point x="226" y="-8" type="curve" smooth="yes"/>
      <point x="343" y="-8"/>
      <point x="396" y="57"/>
      <point x="396" y="150" type="curve"/>
      <point x="396" y="308" type="line" smooth="yes"/>
      <point x="396" y="475"/>
      <point x="304" y="617"/>
      <point x="250" y="677" type="curve"/>
    </contour>
    <contour>
      <point x="306" y="350" type="curve"/>
      <point x="306" y="151" type="line"/>
      <point x="306" y="106"/>
      <point x="288" y="73"/>
      <point x="227" y="73" type="curve" smooth="yes"/>
      <point x="165" y="73"/>
      <point x="147" y="107"/>
      <point x="147" y="152" type="curve" smooth="yes"/>
      <point x="147" y="297" type="line" smooth="yes"/>
      <point x="147" y="348"/>
      <point x="167" y="376"/>
      <point x="227" y="376" type="curve"/>
      <point x="264" y="376"/>
      <point x="294" y="363"/>
    </contour>
    <contour>
      <point x="126" y="558" type="line"/>
      <point x="126" y="500" type="line"/>
      <point x="385" y="625" type="line"/>
      <point x="385" y="682" type="line"/>
    </contour>
  </outline>
</glyph>
<glyph name="divide" format="1">
  <advance width="453"/>
  <unicode hex="00F7"/>
  <outline>
    <contour>
      <point x="40" y="364" type="line"/>
      <point x="40" y="286" type="line"/>
      <point x="412" y="286" type="line"/>
      <point x="412" y="364" type="line"/>
    </contour>
    <contour>
      <point x="177" y="153" type="curve" smooth="yes"/>
      <point x="177" y="124"/>
      <point x="190" y="102"/>
      <point x="228" y="102" type="curve" smooth="yes"/>
      <point x="267" y="102"/>
      <point x="279" y="124"/>
      <point x="279" y="153" type="curve" smooth="yes"/>
      <point x="279" y="182"/>
      <point x="266" y="204"/>
      <point x="228" y="204" type="curve" smooth="yes"/>
      <point x="189" y="204"/>
      <point x="177" y="182"/>
    </contour>
    <contour>
      <point x="177" y="496" type="curve" smooth="yes"/>
      <point x="177" y="467"/>
      <point x="189" y="445"/>
      <point x="228" y="445" type="curve" smooth="yes"/>
      <point x="266" y="445"/>
      <point x="279" y="467"/>
      <point x="279" y="496" type="curve" smooth="yes"/>
      <point x="279" y="525"/>
      <point x="266" y="547"/>
      <point x="228" y="547" type="curve" smooth="yes"/>
      <point x="189" y="547"/>
      <point x="177" y="525"/>
    </contour>
  </outline>
</glyph>
<glyph name="oslash" format="1">
  <advance width="444"/>
  <unicode hex="00F8"/>
  <outline>
    <contour>
      <point x="348" y="574" type="line"/>
      <point x="50" y="0" type="line"/>
      <point x="102" y="0" type="line"/>
      <point x="400" y="574" type="line"/>
    </contour>
    <component base="o"/>
  </outline>
</glyph>
<glyph name="thorn" format="1">
  <advance width="457"/>
  <unicode hex="00FE"/>
  <outline>
    <contour>
      <point x="62" y="727" type="line"/>
      <point x="62" y="-170" type="line"/>
      <point x="155" y="-170" type="line"/>
      <point x="155" y="0" type="line"/>
      <point x="250" y="0" type="line" smooth="yes"/>
      <point x="338" y="0"/>
      <point x="399" y="51"/>
      <point x="399" y="149" type="curve" smooth="yes"/>
      <point x="399" y="447" type="line" smooth="yes"/>
      <point x="399" y="533"/>
      <point x="346" y="577"/>
      <point x="268" y="577" type="curve" smooth="yes"/>
      <point x="220" y="577"/>
      <point x="177" y="560"/>
      <point x="154" y="550" type="curve"/>
      <point x="154" y="727" type="line"/>
    </contour>
    <contour>
      <point x="306" y="432" type="curve" smooth="yes"/>
      <point x="306" y="157" type="line" smooth="yes"/>
      <point x="306" y="107"/>
      <point x="278" y="83"/>
      <point x="227" y="83" type="curve" smooth="yes"/>
      <point x="155" y="83" type="line"/>
      <point x="155" y="470" type="line"/>
      <point x="181" y="483"/>
      <point x="211" y="493"/>
      <point x="244" y="493" type="curve" smooth="yes"/>
      <point x="282" y="493"/>
      <point x="306" y="474"/>
    </contour>
  </outline>
</glyph>
<glyph name="dcaron" format="1">
  <advance width="463"/>
  <unicode hex="010F"/>
  <outline>
    <contour>
      <point x="296" y="727" type="line"/>
      <point x="296" y="574" type="line"/>
      <point x="215" y="574" type="line"/>
      <point x="113" y="574"/>
      <point x="52" y="516"/>
      <point x="52" y="417" type="curve"/>
      <point x="52" y="138" type="line" smooth="yes"/>
      <point x="52" y="49"/>
      <point x="99" y="-3"/>
      <point x="190" y="-3" type="curve"/>
      <point x="248" y="-3"/>
      <point x="281" y="20"/>
      <point x="298" y="36" type="curve"/>
      <point x="298" y="0" type="line"/>
      <point x="389" y="0" type="line"/>
      <point x="389" y="727" type="line"/>
    </contour>
    <contour>
      <point x="296" y="108" type="line"/>
      <point x="280" y="94"/>
      <point x="250" y="80"/>
      <point x="212" y="80" type="curve"/>
      <point x="167" y="80"/>
      <point x="145" y="103"/>
      <point x="145" y="149" type="curve" smooth="yes"/>
      <point x="145" y="415" type="line" smooth="yes"/>
      <point x="145" y="467"/>
      <point x="174" y="491"/>
      <point x="227" y="491" type="curve" smooth="yes"/>
      <point x="296" y="491" type="line"/>
    </contour>
    <contour>
      <point x="454" y="726" type="line"/>
      <point x="428" y="595" type="line"/>
      <point x="466" y="595" type="line"/>
      <point x="482" y="617"/>
      <point x="516" y="672"/>
      <point x="516" y="699" type="curve" smooth="yes"/>
      <point x="516" y="717"/>
      <point x="505" y="726"/>
      <point x="487" y="726" type="curve" smooth="yes"/>
    </contour>
  </outline>
</glyph>
<glyph name="Dcroat" format="1">
  <advance width="475"/>
  <unicode hex="0110"/>
  <outline>
    <contour>
      <point x="5" y="376" type="line"/>
      <point x="5" y="298" type="line"/>
      <point x="248" y="298" type="line"/>
      <point x="248" y="376" type="line"/>
    </contour>
    <component base="D" xOffset="4"/>
  </outline>
</glyph>
<glyph name="dcroat" format="1">
  <advance width="452"/>
  <unicode hex="0111"/>
  <outline>
    <contour>
      <point x="172" y="680" type="line"/>
      <point x="172" y="630" type="line"/>
      <point x="430" y="630" type="line"/>
      <point x="430" y="680" type="line"/>
    </contour>
    <component base="d" xOffset="1"/>
  </outline>
</glyph>
<glyph name="Gcommaaccent" format="1">
  <advance width="454"/>
  <unicode hex="0122"/>
  <outline>
    <contour>
      <point x="52" y="528" type="curve" smooth="yes"/>
      <point x="52" y="144" type="line" smooth="yes"/>
      <point x="52" y="41"/>
      <point x="123" y="-5"/>
      <point x="235" y="-5" type="curve" smooth="yes"/>
      <point x="325" y="-5"/>
      <point x="368" y="17"/>
      <point x="400" y="35" type="curve"/>
      <point x="400" y="341" type="line"/>
      <point x="310" y="341" type="line"/>
      <point x="310" y="95" type="line"/>
      <point x="301" y="89"/>
      <point x="272" y="78"/>
      <point x="234" y="78" type="curve" smooth="yes"/>
      <point x="174" y="78"/>
      <point x="145" y="100"/>
      <point x="145" y="151" type="curve" smooth="yes"/>
      <point x="145" y="521" type="line" smooth="yes"/>
      <point x="145" y="568"/>
      <point x="174" y="598"/>
      <point x="253" y="598" type="curve" smooth="yes"/>
      <point x="301" y="598"/>
      <point x="345" y="588"/>
      <point x="378" y="577" type="curve"/>
      <point x="378" y="665" type="line"/>
      <point x="350" y="674"/>
      <point x="302" y="682"/>
      <point x="251" y="682" type="curve" smooth="yes"/>
      <point x="113" y="682"/>
      <point x="52" y="620"/>
    </contour>
    <contour>
      <point x="217" y="-61" type="line"/>
      <point x="191" y="-192" type="line"/>
      <point x="229" y="-192" type="line"/>
      <point x="245" y="-170"/>
      <point x="279" y="-115"/>
      <point x="279" y="-88" type="curve" smooth="yes"/>
      <point x="279" y="-70"/>
      <point x="268" y="-61"/>
      <point x="250" y="-61" type="curve" smooth="yes"/>
    </contour>
  </outline>
</glyph>
<glyph name="imacron" format="1">
  <advance width="217"/>
  <unicode hex="012B"/>
  <outline>
    <contour>
      <point x="62" y="568" type="line"/>
      <point x="62" y="0" type="line"/>
      <point x="155" y="0" type="line"/>
      <point x="155" y="568" type="line"/>
    </contour>
    <component base="macron" xOffset="-66"/>
  </outline>
</glyph>
<glyph name="dotlessi" format="1">
  <advance width="217"/>
  <unicode hex="0131"/>
  <outline>
    <contour>
      <point x="62" y="568" type="line"/>
      <point x="62" y="0" type="line"/>
      <point x="155" y="0" type="line"/>
      <point x="155" y="568" type="line"/>
    </contour>
  </outline>
</glyph>
<glyph name="Kcommaaccent" format="1">
  <advance width="447"/>
  <unicode hex="0136"/>
  <outline>
    <contour>
      <point x="325" y="677" type="line"/>
      <point x="189" y="341" type="line"/>
      <point x="331" y="0" type="line"/>
      <point x="433" y="0" type="line"/>
      <point x="287" y="343" type="line"/>
      <point x="424" y="677" type="line"/>
    </contour>
    <contour>
      <point x="62" y="677" type="line"/>
      <point x="62" y="0" type="line"/>
      <point x="154" y="0" type="line"/>
      <point x="154" y="677" type="line"/>
    </contour>
    <contour>
      <point x="211" y="-61" type="line"/>
      <point x="185" y="-192" type="line"/>
      <point x="223" y="-192" type="line"/>
      <point x="238" y="-170"/>
      <point x="273" y="-115"/>
      <point x="273" y="-88" type="curve" smooth="yes"/>
      <point x="273" y="-70"/>
      <point x="262" y="-61"/>
      <point x="244" y="-61" type="curve" smooth="yes"/>
    </contour>
  </outline>
</glyph>
<glyph name="kcommaaccent" format="1">
  <advance width="411"/>
  <unicode hex="0137"/>
  <outline>
    <contour>
      <point x="291" y="574" type="line"/>
      <point x="177" y="302" type="line"/>
      <point x="298" y="0" type="line"/>
      <point x="397" y="0" type="line"/>
      <point x="272" y="299" type="line"/>
      <point x="386" y="574" type="line"/>
    </contour>
    <contour>
      <point x="62" y="727" type="line"/>
      <point x="62" y="0" type="line"/>
      <point x="153" y="0" type="line"/>
      <point x="153" y="727" type="line"/>
    </contour>
    <contour>
      <point x="186" y="-61" type="line"/>
      <point x="160" y="-192" type="line"/>
      <point x="198" y="-192" type="line"/>
      <point x="213" y="-170"/>
      <point x="248" y="-115"/>
      <point x="248" y="-88" type="curve" smooth="yes"/>
      <point x="248" y="-70"/>
      <point x="237" y="-61"/>
      <point x="219" y="-61" type="curve" smooth="yes"/>
    </contour>
  </outline>
</glyph>
<glyph name="Lcommaaccent" format="1">
  <advance width="359"/>
  <unicode hex="013B"/>
  <outline>
    <contour>
      <point x="62" y="677" type="line"/>
      <point x="62" y="0" type="line"/>
      <point x="354" y="0" type="line"/>
      <point x="354" y="79" type="line"/>
      <point x="155" y="79" type="line"/>
      <point x="155" y="677" type="line"/>
    </contour>
    <contour>
      <point x="176" y="-61" type="line"/>
      <point x="150" y="-192" type="line"/>
      <point x="188" y="-192" type="line"/>
      <point x="203" y="-170"/>
      <point x="238" y="-115"/>
      <point x="238" y="-88" type="curve" smooth="yes"/>
      <point x="238" y="-70"/>
      <point x="227" y="-61"/>
      <point x="209" y="-61" type="curve" smooth="yes"/>
    </contour>
  </outline>
</glyph>
<glyph name="lcommaaccent" format="1">
  <advance width="217"/>
  <unicode hex="013C"/>
  <outline>
    <contour>
      <point x="62" y="727" type="line"/>
      <point x="62" y="0" type="line"/>
      <point x="155" y="0" type="line"/>
      <point x="155" y="727" type="line"/>
    </contour>
    <contour>
      <point x="80" y="-61" type="line"/>
      <point x="54" y="-192" type="line"/>
      <point x="92" y="-192" type="line"/>
      <point x="107" y="-170"/>
      <point x="142" y="-115"/>
      <point x="142" y="-88" type="curve" smooth="yes"/>
      <point x="142" y="-70"/>
      <point x="131" y="-61"/>
      <point x="113" y="-61" type="curve" smooth="yes"/>
    </contour>
  </outline>
</glyph>
<glyph name="Lcaron" format="1">
  <advance width="359"/>
  <unicode hex="013D"/>
  <outline>
    <contour>
      <point x="220" y="726" type="line"/>
      <point x="194" y="595" type="line"/>
      <point x="232" y="595" type="line"/>
      <point x="248" y="617"/>
      <point x="282" y="672"/>
      <point x="282" y="699" type="curve" smooth="yes"/>
      <point x="282" y="717"/>
      <point x="271" y="726"/>
      <point x="253" y="726" type="curve" smooth="yes"/>
    </contour>
    <component base="L"/>
  </outline>
</glyph>
<glyph name="lcaron" format="1">
  <advance width="217"/>
  <unicode hex="013E"/>
  <outline>
    <contour>
      <point x="62" y="727" type="line"/>
      <point x="62" y="0" type="line"/>
      <point x="155" y="0" type="line"/>
      <point x="155" y="727" type="line"/>
    </contour>
    <contour>
      <point x="220" y="726" type="line"/>
      <point x="194" y="595" type="line"/>
      <point x="232" y="595" type="line"/>
      <point x="248" y="617"/>
      <point x="282" y="672"/>
      <point x="282" y="699" type="curve" smooth="yes"/>
      <point x="282" y="717"/>
      <point x="271" y="726"/>
      <point x="253" y="726" type="curve" smooth="yes"/>
    </contour>
  </outline>
</glyph>
<glyph name="Lslash" format="1">
  <advance width="360"/>
  <unicode hex="0141"/>
  <outline>
    <contour>
      <point x="12" y="316" type="line"/>
      <point x="12" y="248" type="line"/>
      <point x="254" y="364" type="line"/>
      <point x="254" y="433" type="line"/>
    </contour>
    <component base="L" xOffset="4"/>
  </outline>
</glyph>
<glyph name="lslash" format="1">
  <advance width="219"/>
  <unicode hex="0142"/>
  <outline>
    <contour>
      <point x="11" y="465" type="line"/>
      <point x="11" y="397" type="line"/>
      <point x="208" y="498" type="line"/>
      <point x="208" y="566" type="line"/>
    </contour>
    <component base="l" xOffset="1"/>
  </outline>
</glyph>
<glyph name="Ncommaaccent" format="1">
  <advance width="508"/>
  <unicode hex="0145"/>
  <outline>
    <contour>
      <point x="355" y="677" type="line"/>
      <point x="355" y="384" type="line"/>
      <point x="355" y="260"/>
      <point x="366" y="183"/>
      <point x="366" y="144" type="curve"/>
      <point x="351" y="184"/>
      <point x="328" y="255"/>
      <point x="287" y="360" type="curve"/>
      <point x="162" y="677" type="line"/>
      <point x="62" y="677" type="line"/>
      <point x="62" y="0" type="line"/>
      <point x="153" y="0" type="line"/>
      <point x="153" y="297" type="line"/>
      <point x="152" y="421"/>
      <point x="142" y="496"/>
      <point x="141" y="535" type="curve"/>
      <point x="156" y="495"/>
      <point x="181" y="424"/>
      <point x="222" y="319" type="curve"/>
      <point x="347" y="0" type="line"/>
      <point x="446" y="0" type="line"/>
      <point x="446" y="677" type="line"/>
    </contour>
    <contour>
      <point x="216" y="-61" type="line"/>
      <point x="190" y="-192" type="line"/>
      <point x="228" y="-192" type="line"/>
      <point x="244" y="-170"/>
      <point x="278" y="-115"/>
      <point x="278" y="-88" type="curve" smooth="yes"/>
      <point x="278" y="-70"/>
      <point x="267" y="-61"/>
      <point x="249" y="-61" type="curve" smooth="yes"/>
    </contour>
  </outline>
</glyph>
<glyph name="ncommaaccent" format="1">
  <advance width="454"/>
  <unicode hex="0146"/>
  <outline>
    <contour>
      <point x="150" y="548" type="curve"/>
      <point x="150" y="574" type="line"/>
      <point x="62" y="574" type="line"/>
      <point x="62" y="0" type="line"/>
      <point x="155" y="0" type="line"/>
      <point x="155" y="469" type="line"/>
      <point x="181" y="482"/>
      <point x="210" y="492"/>
      <point x="243" y="492" type="curve"/>
      <point x="282" y="492"/>
      <point x="304" y="473"/>
      <point x="304" y="431" type="curve" smooth="yes"/>
      <point x="304" y="0" type="line"/>
      <point x="397" y="0" type="line"/>
      <point x="397" y="447" type="line" smooth="yes"/>
      <point x="397" y="533"/>
      <point x="343" y="577"/>
      <point x="266" y="577" type="curve"/>
      <point x="218" y="577"/>
      <point x="173" y="559"/>
    </contour>
    <contour>
      <point x="195" y="-61" type="line"/>
      <point x="169" y="-192" type="line"/>
      <point x="207" y="-192" type="line"/>
      <point x="223" y="-170"/>
      <point x="257" y="-115"/>
      <point x="257" y="-88" type="curve" smooth="yes"/>
      <point x="257" y="-70"/>
      <point x="246" y="-61"/>
      <point x="228" y="-61" type="curve" smooth="yes"/>
    </contour>
  </outline>
</glyph>
<glyph name="OE" format="1">
  <advance width="681"/>
  <unicode hex="0152"/>
  <outline>
    <contour>
      <point x="236" y="677" type="line"/>
      <point x="128" y="677"/>
      <point x="72" y="619"/>
      <point x="72" y="526" type="curve" smooth="yes"/>
      <point x="72" y="155" type="line" smooth="yes"/>
      <point x="72" y="63"/>
      <point x="120" y="0"/>
      <point x="232" y="0" type="curve" smooth="yes"/>
      <point x="371" y="0" type="line"/>
      <point x="371" y="80" type="line"/>
      <point x="245" y="80" type="line" smooth="yes"/>
      <point x="184" y="80"/>
      <point x="164" y="113"/>
      <point x="164" y="161" type="curve" smooth="yes"/>
      <point x="164" y="523" type="line" smooth="yes"/>
      <point x="164" y="569"/>
      <point x="184" y="600"/>
      <point x="245" y="600" type="curve" smooth="yes"/>
      <point x="381" y="600" type="line"/>
      <point x="381" y="677" type="line"/>
    </contour>
    <component base="E" xOffset="283"/>
  </outline>
</glyph>
<glyph name="oe" format="1">
  <advance width="698"/>
  <unicode hex="0153"/>
  <outline>
    <contour>
      <point x="58" y="428" type="curve" smooth="yes"/>
      <point x="58" y="146" type="line" smooth="yes"/>
      <point x="58" y="55"/>
      <point x="109" y="-10"/>
      <point x="228" y="-10" type="curve" smooth="yes"/>
      <point x="347" y="-10"/>
      <point x="398" y="55"/>
      <point x="398" y="146" type="curve" smooth="yes"/>
      <point x="398" y="428" type="line" smooth="yes"/>
      <point x="398" y="519"/>
      <point x="347" y="584"/>
      <point x="228" y="584" type="curve" smooth="yes"/>
      <point x="109" y="584"/>
      <point x="58" y="519"/>
    </contour>
    <contour>
      <point x="306" y="426" type="curve" smooth="yes"/>
      <point x="306" y="148" type="line" smooth="yes"/>
      <point x="306" y="102"/>
      <point x="285" y="70"/>
      <point x="228" y="70" type="curve" smooth="yes"/>
      <point x="171" y="70"/>
      <point x="149" y="102"/>
      <point x="149" y="148" type="curve" smooth="yes"/>
      <point x="149" y="426" type="line" smooth="yes"/>
      <point x="149" y="473"/>
      <point x="171" y="504"/>
      <point x="228" y="504" type="curve" smooth="yes"/>
      <point x="285" y="504"/>
      <point x="306" y="473"/>
    </contour>
    <component base="e" xOffset="255"/>
  </outline>
</glyph>
<glyph name="Rcommaaccent" format="1">
  <advance width="463"/>
  <unicode hex="0156"/>
  <outline>
    <contour>
      <point x="62" y="677" type="line"/>
      <point x="62" y="0" type="line"/>
      <point x="154" y="0" type="line"/>
      <point x="154" y="265" type="line"/>
      <point x="248" y="265" type="line" smooth="yes"/>
      <point x="360" y="265"/>
      <point x="408" y="324"/>
      <point x="408" y="420" type="curve" smooth="yes"/>
      <point x="408" y="526" type="line" smooth="yes"/>
      <point x="408" y="619"/>
      <point x="351" y="677"/>
      <point x="243" y="677" type="curve" smooth="yes"/>
    </contour>
    <contour>
      <point x="221" y="295" type="line"/>
      <point x="329" y="0" type="line"/>
      <point x="430" y="0" type="line"/>
      <point x="316" y="295" type="line"/>
    </contour>
    <contour>
      <point x="316" y="521" type="curve" smooth="yes"/>
      <point x="316" y="420" type="line" smooth="yes"/>
      <point x="316" y="369"/>
      <point x="294" y="342"/>
      <point x="235" y="342" type="curve" smooth="yes"/>
      <point x="154" y="342" type="line"/>
      <point x="154" y="597" type="line"/>
      <point x="235" y="597" type="line" smooth="yes"/>
      <point x="292" y="597"/>
      <point x="316" y="571"/>
    </contour>
    <contour>
      <point x="205" y="-61" type="line"/>
      <point x="179" y="-192" type="line"/>
      <point x="217" y="-192" type="line"/>
      <point x="233" y="-170"/>
      <point x="267" y="-115"/>
      <point x="267" y="-88" type="curve" smooth="yes"/>
      <point x="267" y="-70"/>
      <point x="256" y="-61"/>
      <point x="238" y="-61" type="curve" smooth="yes"/>
    </contour>
  </outline>
</glyph>
<glyph name="rcommaaccent" format="1">
  <advance width="293"/>
  <unicode hex="0157"/>
  <outline>
    <contour>
      <point x="265" y="577" type="line"/>
      <point x="212" y="577"/>
      <point x="191" y="560"/>
      <point x="150" y="532" type="curve"/>
      <point x="150" y="574" type="line"/>
      <point x="62" y="574" type="line"/>
      <point x="62" y="0" type="line"/>
      <point x="155" y="0" type="line"/>
      <point x="155" y="452" type="line"/>
      <point x="193" y="477"/>
      <point x="216" y="491"/>
      <point x="257" y="491" type="curve"/>
      <point x="288" y="491" type="line"/>
      <point x="288" y="577" type="line"/>
    </contour>
    <contour>
      <point x="80" y="-61" type="line"/>
      <point x="54" y="-192" type="line"/>
      <point x="92" y="-192" type="line"/>
      <point x="107" y="-170"/>
      <point x="142" y="-115"/>
      <point x="142" y="-88" type="curve" smooth="yes"/>
      <point x="142" y="-70"/>
      <point x="131" y="-61"/>
      <point x="113" y="-61" type="curve" smooth="yes"/>
    </contour>
  </outline>
</glyph>
<glyph name="Scedilla" format="1">
  <advance width="401"/>
  <unicode hex="015E"/>
  <outline>
    <contour>
      <point x="26" y="534" type="curve" smooth="yes"/>
      <point x="26" y="474" type="line" smooth="yes"/>
      <point x="26" y="404"/>
      <point x="59" y="362"/>
      <point x="115" y="331" type="curve" smooth="yes"/>
      <point x="228" y="270" type="line"/>
      <point x="268" y="248"/>
      <point x="281" y="230"/>
      <point x="281" y="189" type="curve" smooth="yes"/>
      <point x="281" y="155" type="line" smooth="yes"/>
      <point x="281" y="112"/>
      <point x="251" y="80"/>
      <point x="171" y="80" type="curve" smooth="yes"/>
      <point x="118" y="80"/>
      <point x="65" y="92"/>
      <point x="32" y="104" type="curve"/>
      <point x="32" y="16" type="line"/>
      <point x="56" y="7"/>
      <point x="111" y="-5"/>
      <point x="172" y="-5" type="curve" smooth="yes"/>
      <point x="308" y="-5"/>
      <point x="373" y="52"/>
      <point x="373" y="146" type="curve" smooth="yes"/>
      <point x="373" y="202" type="line"/>
      <point x="373" y="266"/>
      <point x="346" y="306"/>
      <point x="292" y="336" type="curve" smooth="yes"/>
      <point x="176" y="400" type="line" smooth="yes"/>
      <point x="134" y="423"/>
      <point x="119" y="444"/>
      <point x="119" y="488" type="curve" smooth="yes"/>
      <point x="119" y="527" type="line" smooth="yes"/>
      <point x="119" y="571"/>
      <point x="146" y="597"/>
      <point x="213" y="597" type="curve" smooth="yes"/>
      <point x="266" y="597"/>
      <point x="312" y="589"/>
      <point x="343" y="577" type="curve"/>
      <point x="343" y="665" type="line"/>
      <point x="319" y="673"/>
      <point x="272" y="682"/>
      <point x="212" y="682" type="curve" smooth="yes"/>
      <point x="85" y="682"/>
      <point x="26" y="625"/>
    </contour>
    <contour>
      <point x="161" y="-61" type="line"/>
      <point x="135" y="-192" type="line"/>
      <point x="173" y="-192" type="line"/>
      <point x="188" y="-170"/>
      <point x="223" y="-115"/>
      <point x="223" y="-88" type="curve" smooth="yes"/>
      <point x="223" y="-70"/>
      <point x="212" y="-61"/>
      <point x="194" y="-61" type="curve" smooth="yes"/>
    </contour>
  </outline>
</glyph>
<glyph name="Tcedilla" format="1">
  <advance width="367"/>
  <unicode hex="0162"/>
  <outline>
    <contour>
      <point x="137" y="677" type="line"/>
      <point x="137" y="0" type="line"/>
      <point x="230" y="0" type="line"/>
      <point x="230" y="677" type="line"/>
    </contour>
    <contour>
      <point x="8" y="677" type="line"/>
      <point x="8" y="597" type="line"/>
      <point x="359" y="597" type="line"/>
      <point x="359" y="677" type="line"/>
    </contour>
    <contour>
      <point x="156" y="-61" type="line"/>
      <point x="130" y="-192" type="line"/>
      <point x="168" y="-192" type="line"/>
      <point x="183" y="-170"/>
      <point x="218" y="-115"/>
      <point x="218" y="-88" type="curve" smooth="yes"/>
      <point x="218" y="-70"/>
      <point x="207" y="-61"/>
      <point x="189" y="-61" type="curve" smooth="yes"/>
    </contour>
  </outline>
</glyph>
<glyph name="tcedilla" format="1">
  <advance width="298"/>
  <unicode hex="0163"/>
  <outline>
    <contour>
      <point x="96" y="678" type="line"/>
      <point x="68" y="574" type="line"/>
      <point x="5" y="574" type="line"/>
      <point x="5" y="495" type="line"/>
      <point x="65" y="495" type="line"/>
      <point x="65" y="129" type="line" smooth="yes"/>
      <point x="65" y="44"/>
      <point x="107" y="-6"/>
      <point x="205" y="-6" type="curve" smooth="yes"/>
      <point x="243" y="-6"/>
      <point x="277" y="5"/>
      <point x="283" y="6" type="curve"/>
      <point x="283" y="89" type="line"/>
      <point x="277" y="87"/>
      <point x="248" y="78"/>
      <point x="218" y="78" type="curve" smooth="yes"/>
      <point x="178" y="78"/>
      <point x="157" y="95"/>
      <point x="157" y="136" type="curve" smooth="yes"/>
      <point x="157" y="495" type="line"/>
      <point x="274" y="495" type="line"/>
      <point x="274" y="574" type="line"/>
      <point x="157" y="574" type="line"/>
      <point x="157" y="678" type="line"/>
    </contour>
    <contour>
      <point x="150" y="-61" type="line"/>
      <point x="124" y="-192" type="line"/>
      <point x="162" y="-192" type="line"/>
      <point x="177" y="-170"/>
      <point x="212" y="-115"/>
      <point x="212" y="-88" type="curve" smooth="yes"/>
      <point x="212" y="-70"/>
      <point x="201" y="-61"/>
      <point x="183" y="-61" type="curve" smooth="yes"/>
    </contour>
  </outline>
</glyph>
<glyph name="florin" format="1">
  <advance width="330"/>
  <unicode hex="0192"/>
  <outline>
    <contour>
      <point x="151" y="584" type="curve" smooth="yes"/>
      <point x="81" y="140" type="line" smooth="yes"/>
      <point x="74" y="92"/>
      <point x="58" y="72"/>
      <point x="14" y="72" type="curve" smooth="yes"/>
      <point x="6" y="72"/>
      <point x="-2" y="73"/>
      <point x="-9" y="74" type="curve"/>
      <point x="-9" y="-1" type="line"/>
      <point x="2" y="-3"/>
      <point x="14" y="-4"/>
      <point x="25" y="-4" type="curve" smooth="yes"/>
      <point x="126" y="-4"/>
      <point x="160" y="51"/>
      <point x="174" y="141" type="curve" smooth="yes"/>
      <point x="243" y="585" type="line" smooth="yes"/>
      <point x="251" y="632"/>
      <point x="267" y="652"/>
      <point x="310" y="652" type="curve" smooth="yes"/>
      <point x="319" y="652"/>
      <point x="329" y="652"/>
      <point x="337" y="651" type="curve"/>
      <point x="337" y="726" type="line"/>
      <point x="324" y="728"/>
      <point x="311" y="728"/>
      <point x="300" y="728" type="curve" smooth="yes"/>
      <point x="198" y="728"/>
      <point x="164" y="673"/>
    </contour>
    <contour>
      <point x="47" y="497" type="line"/>
      <point x="47" y="422" type="line"/>
      <point x="298" y="422" type="line"/>
      <point x="298" y="497" type="line"/>
    </contour>
  </outline>
</glyph>
<glyph name="Tcommaaccent" format="1">
  <advance width="367"/>
  <unicode hex="021A"/>
  <outline>
    <contour>
      <point x="137" y="677" type="line"/>
      <point x="137" y="0" type="line"/>
      <point x="230" y="0" type="line"/>
      <point x="230" y="677" type="line"/>
    </contour>
    <contour>
      <point x="8" y="677" type="line"/>
      <point x="8" y="597" type="line"/>
      <point x="359" y="597" type="line"/>
      <point x="359" y="677" type="line"/>
    </contour>
    <contour>
      <point x="153" y="-61" type="line"/>
      <point x="127" y="-192" type="line"/>
      <point x="165" y="-192" type="line"/>
      <point x="180" y="-170"/>
      <point x="215" y="-115"/>
      <point x="215" y="-88" type="curve" smooth="yes"/>
      <point x="215" y="-70"/>
      <point x="204" y="-61"/>
      <point x="186" y="-61" type="curve" smooth="yes"/>
    </contour>
  </outline>
</glyph>
<glyph name="tcommaaccent" format="1">
  <advance width="298"/>
  <unicode hex="021B"/>
  <outline>
    <contour>
      <point x="96" y="678" type="line"/>
      <point x="68" y="574" type="line"/>
      <point x="5" y="574" type="line"/>
      <point x="5" y="495" type="line"/>
      <point x="65" y="495" type="line"/>
      <point x="65" y="129" type="line" smooth="yes"/>
      <point x="65" y="44"/>
      <point x="107" y="-6"/>
      <point x="205" y="-6" type="curve" smooth="yes"/>
      <point x="243" y="-6"/>
      <point x="277" y="5"/>
      <point x="283" y="6" type="curve"/>
      <point x="283" y="89" type="line"/>
      <point x="277" y="87"/>
      <point x="248" y="78"/>
      <point x="218" y="78" type="curve" smooth="yes"/>
      <point x="178" y="78"/>
      <point x="157" y="95"/>
      <point x="157" y="136" type="curve" smooth="yes"/>
      <point x="157" y="495" type="line"/>
      <point x="274" y="495" type="line"/>
      <point x="274" y="574" type="line"/>
      <point x="157" y="574" type="line"/>
      <point x="157" y="678" type="line"/>
    </contour>
    <contour>
      <point x="152" y="-61" type="line"/>
      <point x="126" y="-192" type="line"/>
      <point x="164" y="-192" type="line"/>
      <point x="179" y="-170"/>
      <point x="214" y="-115"/>
      <point x="214" y="-88" type="curve" smooth="yes"/>
      <point x="214" y="-70"/>
      <point x="203" y="-61"/>
      <point x="185" y="-61" type="curve" smooth="yes"/>
    </contour>
  </outline>
</glyph>
<glyph name="circumflex" format="1">
  <advance width="350"/>
  <unicode hex="02C6"/>
  <outline>
    <contour>
      <point x="144" y="727" type="line"/>
      <point x="212" y="618" type="line"/>
      <point x="264" y="618" type="line"/>
      <point x="211" y="727" type="line"/>
    </contour>
    <contour>
      <point x="139" y="727" type="line"/>
      <point x="86" y="618" type="line"/>
      <point x="137" y="618" type="line"/>
      <point x="205" y="727" type="line"/>
    </contour>
  </outline>
</glyph>
<glyph name="caron" format="1">
  <advance width="350"/>
  <unicode hex="02C7"/>
  <outline>
    <contour>
      <point x="212" y="727" type="line"/>
      <point x="144" y="618" type="line"/>
      <point x="211" y="618" type="line"/>
      <point x="264" y="727" type="line"/>
    </contour>
    <contour>
      <point x="86" y="727" type="line"/>
      <point x="139" y="618" type="line"/>
      <point x="205" y="618" type="line"/>
      <point x="137" y="727" type="line"/>
    </contour>
  </outline>
</glyph>
<glyph name="macronmod" format="1">
  <advance width="350"/>
  <unicode hex="02C9"/>
  <outline>
    <contour>
      <point x="58" y="700" type="line"/>
      <point x="58" y="645" type="line"/>
      <point x="292" y="645" type="line"/>
      <point x="292" y="700" type="line"/>
    </contour>
  </outline>
</glyph>
<glyph name="breve" format="1">
  <advance width="350"/>
  <unicode hex="02D8"/>
  <outline>
    <contour>
      <point x="230" y="727" type="line"/>
      <point x="230" y="693"/>
      <point x="210" y="670"/>
      <point x="175" y="670" type="curve" smooth="yes"/>
      <point x="140" y="670"/>
      <point x="120" y="693"/>
      <point x="120" y="727" type="curve"/>
      <point x="63" y="727" type="line"/>
      <point x="64" y="665"/>
      <point x="106" y="618"/>
      <point x="175" y="618" type="curve" smooth="yes"/>
      <point x="244" y="618"/>
      <point x="286" y="664"/>
      <point x="287" y="727" type="curve"/>
    </contour>
  </outline>
</glyph>
<glyph name="dotaccent" format="1">
  <advance width="350"/>
  <unicode hex="02D9"/>
  <outline>
    <contour>
      <point x="130" y="688" type="curve" smooth="yes"/>
      <point x="130" y="664"/>
      <point x="141" y="647"/>
      <point x="174" y="647" type="curve" smooth="yes"/>
      <point x="206" y="647"/>
      <point x="217" y="664"/>
      <point x="217" y="688" type="curve" smooth="yes"/>
      <point x="217" y="713"/>
      <point x="206" y="731"/>
      <point x="174" y="731" type="curve" smooth="yes"/>
      <point x="141" y="731"/>
      <point x="130" y="713"/>
    </contour>
  </outline>
</glyph>
<glyph name="ring" format="1">
  <advance width="350"/>
  <unicode hex="02DA"/>
  <outline>
    <contour>
      <point x="99" y="673" type="curve" smooth="yes"/>
      <point x="99" y="632"/>
      <point x="126" y="598"/>
      <point x="175" y="598" type="curve" smooth="yes"/>
      <point x="225" y="598"/>
      <point x="251" y="632"/>
      <point x="251" y="673" type="curve" smooth="yes"/>
      <point x="251" y="714"/>
      <point x="225" y="747"/>
      <point x="175" y="747" type="curve" smooth="yes"/>
      <point x="126" y="747"/>
      <point x="99" y="714"/>
    </contour>
    <contour>
      <point x="208" y="673" type="curve" smooth="yes"/>
      <point x="208" y="652"/>
      <point x="195" y="639"/>
      <point x="175" y="639" type="curve" smooth="yes"/>
      <point x="155" y="639"/>
      <point x="142" y="652"/>
      <point x="142" y="673" type="curve" smooth="yes"/>
      <point x="142" y="692"/>
      <point x="155" y="706"/>
      <point x="175" y="706" type="curve" smooth="yes"/>
      <point x="195" y="706"/>
      <point x="208" y="692"/>
    </contour>
  </outline>
</glyph>
<glyph name="ogonek" format="1">
  <advance width="350"/>
  <unicode hex="02DB"/>
  <outline>
    <contour>
      <point x="186" y="0" type="line"/>
      <point x="151" y="-28"/>
      <point x="125" y="-69"/>
      <point x="125" y="-111" type="curve" smooth="yes"/>
      <point x="125" y="-157"/>
      <point x="154" y="-183"/>
      <point x="210" y="-183" type="curve" smooth="yes"/>
      <point x="227" y="-183" type="line"/>
      <point x="227" y="-129" type="line"/>
      <point x="215" y="-129" type="line" smooth="yes"/>
      <point x="192" y="-129"/>
      <point x="180" y="-119"/>
      <point x="180" y="-93" type="curve" smooth="yes"/>
      <point x="180" y="-59"/>
      <point x="199" y="-24"/>
      <point x="227" y="0" type="curve"/>
    </contour>
  </outline>
</glyph>
<glyph name="tilde" format="1">
  <advance width="350"/>
  <unicode hex="02DC"/>
  <outline>
    <contour>
      <point x="246" y="720" type="line"/>
      <point x="246" y="711" type="line" smooth="yes"/>
      <point x="246" y="689"/>
      <point x="241" y="678"/>
      <point x="224" y="678" type="curve" smooth="yes"/>
      <point x="198" y="679"/>
      <point x="167" y="719"/>
      <point x="118" y="719" type="curve" smooth="yes"/>
      <point x="67" y="719"/>
      <point x="45" y="683"/>
      <point x="45" y="635" type="curve" smooth="yes"/>
      <point x="45" y="625" type="line"/>
      <point x="103" y="625" type="line"/>
      <point x="103" y="634" type="line" smooth="yes"/>
      <point x="103" y="656"/>
      <point x="109" y="667"/>
      <point x="125" y="667" type="curve" smooth="yes"/>
      <point x="155" y="667"/>
      <point x="185" y="626"/>
      <point x="232" y="626" type="curve" smooth="yes"/>
      <point x="279" y="626"/>
      <point x="304" y="658"/>
      <point x="304" y="709" type="curve" smooth="yes"/>
      <point x="304" y="720" type="line"/>
    </contour>
  </outline>
</glyph>
<glyph name="hungarumlaut" format="1">
  <advance width="350"/>
  <unicode hex="02DD"/>
  <outline>
    <contour>
      <point x="207" y="727" type="line"/>
      <point x="165" y="618" type="line"/>
      <point x="214" y="618" type="line"/>
      <point x="279" y="727" type="line"/>
    </contour>
    <contour>
      <point x="112" y="727" type="line"/>
      <point x="70" y="618" type="line"/>
      <point x="119" y="618" type="line"/>
      <point x="184" y="727" type="line"/>
    </contour>
  </outline>
</glyph>
<glyph name="pi" format="1">
  <advance width="454"/>
  <unicode hex="03C0"/>
  <outline>
    <contour>
      <point x="62" y="574" type="line"/>
      <point x="62" y="0" type="line"/>
      <point x="155" y="0" type="line"/>
      <point x="155" y="495" type="line"/>
      <point x="304" y="495" type="line"/>
      <point x="304" y="0" type="line"/>
      <point x="397" y="0" type="line"/>
      <point x="397" y="495" type="line"/>
      <point x="463" y="495" type="line"/>
      <point x="463" y="574" type="line"/>
    </contour>
  </outline>
</glyph>
<glyph name="dvCandrabindu" format="1">
  <advance width="0"/>
  <unicode hex="0901"/>
  <outline>
    <contour>
      <point x="-64" y="655" type="move" name="_abvm.bindu"/>
    </contour>
    <contour>
      <point x="-155" y="902" type="curve" smooth="yes"/>
      <point x="-155" y="874"/>
      <point x="-144" y="854"/>
      <point x="-106" y="854" type="curve" smooth="yes"/>
      <point x="-69" y="854"/>
      <point x="-58" y="874"/>
      <point x="-58" y="902" type="curve" smooth="yes"/>
      <point x="-58" y="930"/>
      <point x="-69" y="951"/>
      <point x="-106" y="951" type="curve" smooth="yes"/>
      <point x="-144" y="951"/>
      <point x="-155" y="930"/>
    </contour>
    <contour>
      <point x="-16" y="856" type="line"/>
      <point x="-16" y="809"/>
      <point x="-43" y="794"/>
      <point x="-106" y="794" type="curve" smooth="yes"/>
      <point x="-171" y="794"/>
      <point x="-197" y="809"/>
      <point x="-197" y="856" type="curve"/>
      <point x="-280" y="856" type="line"/>
      <point x="-280" y="853" type="line"/>
      <point x="-280" y="757"/>
      <point x="-219" y="720"/>
      <point x="-106" y="720" type="curve" smooth="yes"/>
      <point x="6" y="720"/>
      <point x="67" y="757"/>
      <point x="67" y="853" type="curve"/>
      <point x="67" y="856" type="line"/>
    </contour>
  </outline>
</glyph>
<glyph name="dvAnusvara" format="1">
  <advance width="0"/>
  <unicode hex="0902"/>
  <outline>
    <contour>
      <point x="-64" y="655" type="move" name="_abvm.bindu"/>
    </contour>
    <contour>
      <point x="-157" y="778" type="curve" smooth="yes"/>
      <point x="-157" y="749"/>
      <point x="-145" y="727"/>
      <point x="-107" y="727" type="curve" smooth="yes"/>
      <point x="-69" y="727"/>
      <point x="-57" y="749"/>
      <point x="-57" y="778" type="curve" smooth="yes"/>
      <point x="-57" y="806"/>
      <point x="-69" y="828"/>
      <point x="-107" y="828" type="curve" smooth="yes"/>
      <point x="-145" y="828"/>
      <point x="-157" y="806"/>
    </contour>
  </outline>
</glyph>
<glyph name="dvVisarga" format="1">
  <advance width="214"/>
  <unicode hex="0903"/>
  <outline>
    <contour>
      <point x="45" y="394" type="curve" smooth="yes"/>
      <point x="45" y="365"/>
      <point x="57" y="343"/>
      <point x="96" y="343" type="curve" smooth="yes"/>
      <point x="134" y="343"/>
      <point x="146" y="365"/>
      <point x="146" y="394" type="curve" smooth="yes"/>
      <point x="146" y="422"/>
      <point x="134" y="444"/>
      <point x="96" y="444" type="curve" smooth="yes"/>
      <point x="57" y="444"/>
      <point x="45" y="422"/>
    </contour>
    <contour>
      <point x="45" y="51" type="curve" smooth="yes"/>
      <point x="45" y="22"/>
      <point x="57" y="0"/>
      <point x="96" y="0" type="curve" smooth="yes"/>
      <point x="134" y="0"/>
      <point x="146" y="22"/>
      <point x="146" y="51" type="curve" smooth="yes"/>
      <point x="146" y="79"/>
      <point x="134" y="101"/>
      <point x="96" y="101" type="curve" smooth="yes"/>
      <point x="57" y="101"/>
      <point x="45" y="79"/>
    </contour>
  </outline>
</glyph>
<glyph name="dvA" format="1">
  <advance width="574"/>
  <unicode hex="0905"/>
  <outline>
    <contour>
      <point x="237" y="182" type="line"/>
      <point x="237" y="139"/>
      <point x="212" y="113"/>
      <point x="147" y="113" type="curve" smooth="yes"/>
      <point x="112" y="113"/>
      <point x="70" y="119"/>
      <point x="38" y="128" type="curve"/>
      <point x="38" y="49" type="line"/>
      <point x="68" y="40"/>
      <point x="108" y="35"/>
      <point x="148" y="35" type="curve" smooth="yes"/>
      <point x="267" y="35"/>
      <point x="320" y="90"/>
      <point x="321" y="180" type="curve"/>
      <point x="321" y="246" type="line" smooth="yes"/>
      <point x="321" y="294"/>
      <point x="309" y="337"/>
      <point x="271" y="355" type="curve"/>
      <point x="310" y="373"/>
      <point x="321" y="418"/>
      <point x="321" y="463" type="curve" smooth="yes"/>
      <point x="321" y="515" type="line" smooth="yes"/>
      <point x="321" y="605"/>
      <point x="268" y="660"/>
      <point x="148" y="660" type="curve" smooth="yes"/>
      <point x="106" y="660"/>
      <point x="74" y="655"/>
      <point x="50" y="647" type="curve"/>
      <point x="50" y="567" type="line"/>
      <point x="80" y="576"/>
      <point x="112" y="583"/>
      <point x="148" y="583" type="curve" smooth="yes"/>
      <point x="213" y="583"/>
      <point x="237" y="556"/>
      <point x="237" y="513" type="curve" smooth="yes"/>
      <point x="237" y="463" type="line" smooth="yes"/>
      <point x="237" y="423"/>
      <point x="225" y="395"/>
      <point x="162" y="394" type="curve" smooth="yes"/>
      <point x="102" y="394" type="line"/>
      <point x="102" y="316" type="line"/>
      <point x="162" y="316" type="line" smooth="yes"/>
      <point x="225" y="315"/>
      <point x="237" y="286"/>
      <point x="237" y="246" type="curve" smooth="yes"/>
    </contour>
    <contour>
      <point x="425" y="655" type="line"/>
      <point x="425" y="0" type="line"/>
      <point x="510" y="0" type="line"/>
      <point x="510" y="583" type="line"/>
      <point x="603" y="583" type="line"/>
      <point x="603" y="655" type="line"/>
    </contour>
    <contour>
      <point x="290" y="213" type="line"/>
      <point x="447" y="213" type="line"/>
      <point x="447" y="287" type="line"/>
      <point x="290" y="287" type="line"/>
    </contour>
  </outline>
</glyph>
<glyph name="dvII" format="1">
  <advance width="404"/>
  <unicode hex="0908"/>
  <outline>
    <contour>
      <point x="337" y="655" type="line"/>
      <point x="322" y="685"/>
      <point x="307" y="725"/>
      <point x="307" y="753" type="curve" smooth="yes"/>
      <point x="307" y="800"/>
      <point x="338" y="812"/>
      <point x="376" y="812" type="curve" smooth="yes"/>
      <point x="389" y="812"/>
      <point x="403" y="810"/>
      <point x="410" y="809" type="curve"/>
      <point x="410" y="884" type="line"/>
      <point x="402" y="886"/>
      <point x="385" y="889"/>
      <point x="352" y="889" type="curve" smooth="yes"/>
      <point x="286" y="889"/>
      <point x="221" y="860"/>
      <point x="221" y="766" type="curve" smooth="yes"/>
      <point x="221" y="725"/>
      <point x="238" y="686"/>
      <point x="253" y="655" type="curve"/>
    </contour>
    <contour>
      <point x="129" y="170" type="line"/>
      <point x="46" y="170" type="line"/>
      <point x="46" y="-70" type="line"/>
      <point x="129" y="-70" type="line"/>
      <point x="129" y="26" type="line"/>
      <point x="145" y="22"/>
      <point x="176" y="18"/>
      <point x="212" y="18" type="curve" smooth="yes"/>
      <point x="325" y="18"/>
      <point x="369" y="63"/>
      <point x="369" y="151" type="curve" smooth="yes"/>
      <point x="369" y="187" type="line" smooth="yes"/>
      <point x="369" y="274"/>
      <point x="320" y="317"/>
      <point x="213" y="317" type="curve" smooth="yes"/>
      <point x="189" y="317" type="line" smooth="yes"/>
      <point x="136" y="317"/>
      <point x="122" y="338"/>
      <point x="122" y="371" type="curve" smooth="yes"/>
      <point x="122" y="376" type="line" smooth="yes"/>
      <point x="122" y="410"/>
      <point x="136" y="429"/>
      <point x="189" y="429" type="curve" smooth="yes"/>
      <point x="342" y="429" type="line"/>
      <point x="342" y="583" type="line"/>
      <point x="432" y="583" type="line"/>
      <point x="432" y="655" type="line"/>
      <point x="-28" y="655" type="line"/>
      <point x="-28" y="583" type="line"/>
      <point x="257" y="583" type="line"/>
      <point x="257" y="504" type="line"/>
      <point x="189" y="504" type="line" smooth="yes"/>
      <point x="87" y="504"/>
      <point x="37" y="464"/>
      <point x="37" y="378" type="curve" smooth="yes"/>
      <point x="37" y="370" type="line" smooth="yes"/>
      <point x="37" y="283"/>
      <point x="89" y="243"/>
      <point x="189" y="243" type="curve" smooth="yes"/>
      <point x="213" y="243" type="line" smooth="yes"/>
      <point x="270" y="243"/>
      <point x="284" y="220"/>
      <point x="284" y="185" type="curve" smooth="yes"/>
      <point x="284" y="154" type="line" smooth="yes"/>
      <point x="284" y="115"/>
      <point x="262" y="94"/>
      <point x="204" y="94" type="curve" smooth="yes"/>
      <point x="172" y="94"/>
      <point x="146" y="98"/>
      <point x="129" y="102" type="curve"/>
    </contour>
  </outline>
</glyph>
<glyph name="dvU" format="1">
  <advance width="402"/>
  <unicode hex="0909"/>
  <outline>
    <contour>
      <point x="315" y="655" type="move" name="abvm.bindu"/>
    </contour>
    <contour>
      <point x="341" y="230" type="line"/>
      <point x="341" y="278"/>
      <point x="328" y="319"/>
      <point x="292" y="335" type="curve"/>
      <point x="327" y="349"/>
      <point x="341" y="390"/>
      <point x="341" y="438" type="curve" smooth="yes"/>
      <point x="341" y="521" type="line" smooth="yes"/>
      <point x="341" y="564"/>
      <point x="330" y="583"/>
      <point x="330" y="583" type="curve"/>
      <point x="430" y="583" type="line"/>
      <point x="430" y="655" type="line"/>
      <point x="-28" y="655" type="line"/>
      <point x="-28" y="583" type="line"/>
      <point x="243" y="583" type="line"/>
      <point x="243" y="583"/>
      <point x="256" y="563"/>
      <point x="256" y="520" type="curve" smooth="yes"/>
      <point x="256" y="440" type="line" smooth="yes"/>
      <point x="256" y="404"/>
      <point x="247" y="375"/>
      <point x="187" y="375" type="curve" smooth="yes"/>
      <point x="121" y="375" type="line"/>
      <point x="121" y="296" type="line"/>
      <point x="182" y="296" type="line" smooth="yes"/>
      <point x="245" y="295"/>
      <point x="256" y="264"/>
      <point x="256" y="226" type="curve" smooth="yes"/>
      <point x="256" y="143" type="line" smooth="yes"/>
      <point x="256" y="97"/>
      <point x="226" y="74"/>
      <point x="156" y="74" type="curve" smooth="yes"/>
      <point x="116" y="74"/>
      <point x="81" y="81"/>
      <point x="45" y="91" type="curve"/>
      <point x="45" y="11" type="line"/>
      <point x="84" y="2"/>
      <point x="115" y="-4"/>
      <point x="157" y="-4" type="curve" smooth="yes"/>
      <point x="280" y="-4"/>
      <point x="341" y="46"/>
      <point x="341" y="142" type="curve"/>
    </contour>
  </outline>
</glyph>
<glyph name="dvUU" format="1">
  <advance width="575"/>
  <unicode hex="090A"/>
  <outline>
    <contour>
      <point x="315" y="655" type="move" name="abvm.bindu"/>
    </contour>
    <contour>
      <point x="388" y="-1" type="line"/>
      <point x="388" y="-1"/>
      <point x="406" y="-1"/>
      <point x="411" y="-1" type="curve" smooth="yes"/>
      <point x="500" y="-1"/>
      <point x="545" y="50"/>
      <point x="545" y="135" type="curve" smooth="yes"/>
      <point x="545" y="229" type="line" smooth="yes"/>
      <point x="545" y="316"/>
      <point x="495" y="364"/>
      <point x="398" y="364" type="curve" smooth="yes"/>
      <point x="337" y="364"/>
      <point x="273" y="344"/>
      <point x="273" y="344" type="curve"/>
      <point x="274" y="286" type="line"/>
      <point x="274" y="286"/>
      <point x="369" y="286"/>
      <point x="387" y="286" type="curve" smooth="yes"/>
      <point x="443" y="286"/>
      <point x="460" y="257"/>
      <point x="460" y="217" type="curve" smooth="yes"/>
      <point x="460" y="137" type="line" smooth="yes"/>
      <point x="460" y="99"/>
      <point x="447" y="78"/>
      <point x="396" y="78" type="curve"/>
      <point x="388" y="78" type="line"/>
    </contour>
    <contour>
      <point x="341" y="230" type="line"/>
      <point x="341" y="278"/>
      <point x="328" y="319"/>
      <point x="292" y="335" type="curve"/>
      <point x="327" y="349"/>
      <point x="341" y="390"/>
      <point x="341" y="438" type="curve" smooth="yes"/>
      <point x="341" y="521" type="line" smooth="yes"/>
      <point x="341" y="564"/>
      <point x="330" y="583"/>
      <point x="330" y="583" type="curve"/>
      <point x="603" y="583" type="line"/>
      <point x="603" y="655" type="line"/>
      <point x="-28" y="655" type="line"/>
      <point x="-28" y="583" type="line"/>
      <point x="243" y="583" type="line"/>
      <point x="243" y="583"/>
      <point x="256" y="563"/>
      <point x="256" y="520" type="curve" smooth="yes"/>
      <point x="256" y="440" type="line" smooth="yes"/>
      <point x="256" y="404"/>
      <point x="247" y="375"/>
      <point x="187" y="375" type="curve" smooth="yes"/>
      <point x="121" y="375" type="line"/>
      <point x="121" y="296" type="line"/>
      <point x="182" y="296" type="line" smooth="yes"/>
      <point x="245" y="295"/>
      <point x="256" y="264"/>
      <point x="256" y="226" type="curve" smooth="yes"/>
      <point x="256" y="143" type="line" smooth="yes"/>
      <point x="256" y="97"/>
      <point x="226" y="74"/>
      <point x="156" y="74" type="curve" smooth="yes"/>
      <point x="116" y="74"/>
      <point x="81" y="81"/>
      <point x="45" y="91" type="curve"/>
      <point x="45" y="11" type="line"/>
      <point x="84" y="2"/>
      <point x="115" y="-4"/>
      <point x="157" y="-4" type="curve" smooth="yes"/>
      <point x="280" y="-4"/>
      <point x="341" y="46"/>
      <point x="341" y="142" type="curve" smooth="yes"/>
    </contour>
  </outline>
</glyph>
<glyph name="dvvR" format="1">
  <advance width="697"/>
  <unicode hex="090B"/>
  <outline>
    <contour>
      <point x="457" y="128" type="curve" smooth="yes"/>
      <point x="457" y="25"/>
      <point x="527" y="-17"/>
      <point x="617" y="-17" type="curve" smooth="yes"/>
      <point x="639" y="-17"/>
      <point x="659" y="-15"/>
      <point x="681" y="-11" type="curve"/>
      <point x="681" y="61" type="line"/>
      <point x="659" y="57"/>
      <point x="643" y="56"/>
      <point x="624" y="56" type="curve" smooth="yes"/>
      <point x="580" y="56"/>
      <point x="540" y="72"/>
      <point x="540" y="131" type="curve" smooth="yes"/>
      <point x="540" y="185"/>
      <point x="561" y="210"/>
      <point x="610" y="210" type="curve" smooth="yes"/>
      <point x="653" y="210" type="line"/>
      <point x="653" y="500" type="line"/>
      <point x="571" y="500" type="line"/>
      <point x="571" y="490" type="line" smooth="yes"/>
      <point x="571" y="446"/>
      <point x="546" y="423"/>
      <point x="487" y="423" type="curve" smooth="yes"/>
      <point x="451" y="423"/>
      <point x="414" y="427"/>
      <point x="375" y="436" type="curve"/>
      <point x="375" y="357" type="line"/>
      <point x="410" y="349"/>
      <point x="451" y="344"/>
      <point x="484" y="344" type="curve" smooth="yes"/>
      <point x="524" y="344"/>
      <point x="554" y="352"/>
      <point x="573" y="370" type="curve"/>
      <point x="573" y="269" type="line"/>
      <point x="498" y="266"/>
      <point x="457" y="217"/>
    </contour>
    <contour>
      <point x="318" y="237" type="curve"/>
      <point x="321" y="237" type="line"/>
      <point x="319" y="222"/>
      <point x="315" y="162"/>
      <point x="315" y="76" type="curve"/>
      <point x="315" y="0" type="line"/>
      <point x="396" y="0" type="line"/>
      <point x="396" y="583" type="line"/>
      <point x="725" y="583" type="line"/>
      <point x="725" y="655" type="line"/>
      <point x="-28" y="655" type="line"/>
      <point x="-28" y="583" type="line"/>
      <point x="311" y="583" type="line"/>
      <point x="311" y="484" type="line"/>
      <point x="293" y="489"/>
      <point x="260" y="497"/>
      <point x="213" y="497" type="curve" smooth="yes"/>
      <point x="92" y="497"/>
      <point x="38" y="441"/>
      <point x="38" y="345" type="curve" smooth="yes"/>
      <point x="38" y="280" type="line"/>
      <point x="121" y="280" type="line"/>
      <point x="121" y="340" type="line" smooth="yes"/>
      <point x="121" y="390"/>
      <point x="146" y="419"/>
      <point x="221" y="419" type="curve" smooth="yes"/>
      <point x="259" y="419"/>
      <point x="293" y="412"/>
      <point x="311" y="406" type="curve"/>
      <point x="311" y="327" type="line"/>
      <point x="35" y="39" type="line"/>
      <point x="36" y="35" type="line"/>
      <point x="142" y="35" type="line"/>
      <point x="250" y="148" type="line" smooth="yes"/>
      <point x="289" y="190"/>
      <point x="311" y="221"/>
    </contour>
  </outline>
</glyph>
<glyph name="dvvL" format="1">
  <advance width="626"/>
  <unicode hex="090C"/>
  <outline>
    <contour>
      <point x="562" y="48" type="curve"/>
      <point x="562" y="124" type="line"/>
      <point x="562" y="124"/>
      <point x="506" y="129"/>
      <point x="488" y="129" type="curve" smooth="yes"/>
      <point x="391" y="129"/>
      <point x="341" y="81"/>
      <point x="341" y="-15" type="curve" smooth="yes"/>
      <point x="341" y="-110"/>
      <point x="397" y="-156"/>
      <point x="492" y="-156" type="curve" smooth="yes"/>
      <point x="527" y="-156"/>
      <point x="553" y="-150"/>
      <point x="565" y="-148" type="curve"/>
      <point x="565" y="-69" type="line"/>
      <point x="547" y="-71"/>
      <point x="528" y="-77"/>
      <point x="494" y="-77" type="curve" smooth="yes"/>
      <point x="455" y="-77"/>
      <point x="425" y="-68"/>
      <point x="425" y="-15" type="curve" smooth="yes"/>
      <point x="425" y="34"/>
      <point x="445" y="52"/>
      <point x="492" y="52" type="curve" smooth="yes"/>
      <point x="508" y="52"/>
      <point x="545" y="50"/>
    </contour>
    <contour>
      <point x="45" y="161" type="line"/>
      <point x="45" y="57"/>
      <point x="96" y="0"/>
      <point x="218" y="0" type="curve" smooth="yes"/>
      <point x="237" y="0"/>
      <point x="256" y="2"/>
      <point x="268" y="4" type="curve"/>
      <point x="268" y="81" type="line"/>
      <point x="257" y="80"/>
      <point x="237" y="77"/>
      <point x="220" y="77" type="curve" smooth="yes"/>
      <point x="145" y="77"/>
      <point x="129" y="115"/>
      <point x="129" y="164" type="curve" smooth="yes"/>
      <point x="129" y="342" type="line" smooth="yes"/>
      <point x="129" y="378"/>
      <point x="141" y="405"/>
      <point x="195" y="405" type="curve" smooth="yes"/>
      <point x="248" y="405"/>
      <point x="261" y="379"/>
      <point x="261" y="344" type="curve" smooth="yes"/>
      <point x="261" y="213" type="line"/>
      <point x="346" y="213" type="line"/>
      <point x="346" y="344" type="line" smooth="yes"/>
      <point x="346" y="379"/>
      <point x="363" y="405"/>
      <point x="416" y="405" type="curve" smooth="yes"/>
      <point x="438" y="405"/>
      <point x="459" y="401"/>
      <point x="477" y="394" type="curve"/>
      <point x="477" y="92" type="line"/>
      <point x="562" y="92" type="line"/>
      <point x="562" y="583" type="line"/>
      <point x="655" y="583" type="line"/>
      <point x="655" y="655" type="line"/>
      <point x="-28" y="655" type="line"/>
      <point x="-28" y="583" type="line"/>
      <point x="477" y="583" type="line"/>
      <point x="477" y="472" type="line"/>
      <point x="455" y="479"/>
      <point x="436" y="483"/>
      <point x="410" y="483" type="curve" smooth="yes"/>
      <point x="356" y="483"/>
      <point x="322" y="464"/>
      <point x="302" y="436" type="curve"/>
      <point x="285" y="461"/>
      <point x="250" y="484"/>
      <point x="193" y="484" type="curve" smooth="yes"/>
      <point x="93" y="484"/>
      <point x="45" y="431"/>
      <point x="45" y="344" type="curve" smooth="yes"/>
    </contour>
  </outline>
</glyph>
<glyph name="dvEcandra" format="1">
  <advance width="431"/>
  <unicode hex="090D"/>
  <outline>
    <contour>
      <point x="311" y="861" type="line"/>
      <point x="311" y="814"/>
      <point x="285" y="799"/>
      <point x="221" y="799" type="curve" smooth="yes"/>
      <point x="156" y="799"/>
      <point x="130" y="814"/>
      <point x="130" y="861" type="curve"/>
      <point x="47" y="861" type="line"/>
      <point x="47" y="858" type="line"/>
      <point x="47" y="762"/>
      <point x="108" y="725"/>
      <point x="221" y="725" type="curve" smooth="yes"/>
      <point x="334" y="725"/>
      <point x="395" y="762"/>
      <point x="395" y="858" type="curve"/>
      <point x="395" y="861" type="line"/>
    </contour>
    <contour>
      <point x="357" y="93" type="line"/>
      <point x="328" y="83"/>
      <point x="285" y="74"/>
      <point x="235" y="74" type="curve" smooth="yes"/>
      <point x="169" y="74"/>
      <point x="146" y="100"/>
      <point x="146" y="144" type="curve" smooth="yes"/>
      <point x="146" y="583" type="line"/>
      <point x="292" y="583" type="line"/>
      <point x="292" y="403" type="line" smooth="yes"/>
      <point x="292" y="366"/>
      <point x="282" y="344"/>
      <point x="236" y="344" type="curve" smooth="yes"/>
      <point x="232" y="344"/>
      <point x="225" y="344"/>
      <point x="220" y="345" type="curve"/>
      <point x="220" y="266" type="line"/>
      <point x="228" y="265"/>
      <point x="236" y="265"/>
      <point x="243" y="265" type="curve" smooth="yes"/>
      <point x="342" y="265"/>
      <point x="377" y="318"/>
      <point x="377" y="399" type="curve" smooth="yes"/>
      <point x="377" y="583" type="line"/>
      <point x="459" y="583" type="line"/>
      <point x="459" y="655" type="line"/>
      <point x="-28" y="655" type="line"/>
      <point x="-28" y="583" type="line"/>
      <point x="61" y="583" type="line"/>
      <point x="61" y="142" type="line" smooth="yes"/>
      <point x="61" y="45"/>
      <point x="115" y="-5"/>
      <point x="233" y="-5" type="curve" smooth="yes"/>
      <point x="287" y="-5"/>
      <point x="332" y="5"/>
      <point x="357" y="15" type="curve"/>
    </contour>
  </outline>
</glyph>
<glyph name="dvE" format="1">
  <advance width="431"/>
  <unicode hex="090F"/>
  <outline>
    <contour>
      <point x="360" y="93" type="line"/>
      <point x="331" y="83"/>
      <point x="288" y="74"/>
      <point x="239" y="74" type="curve" smooth="yes"/>
      <point x="167" y="74"/>
      <point x="146" y="101"/>
      <point x="146" y="148" type="curve" smooth="yes"/>
      <point x="146" y="583" type="line"/>
      <point x="292" y="583" type="line"/>
      <point x="292" y="403" type="line" smooth="yes"/>
      <point x="292" y="366"/>
      <point x="282" y="344"/>
      <point x="236" y="344" type="curve" smooth="yes"/>
      <point x="232" y="344"/>
      <point x="225" y="344"/>
      <point x="220" y="345" type="curve"/>
      <point x="220" y="266" type="line"/>
      <point x="228" y="265"/>
      <point x="236" y="265"/>
      <point x="243" y="265" type="curve" smooth="yes"/>
      <point x="342" y="265"/>
      <point x="377" y="318"/>
      <point x="377" y="399" type="curve" smooth="yes"/>
      <point x="377" y="583" type="line"/>
      <point x="459" y="583" type="line"/>
      <point x="459" y="655" type="line"/>
      <point x="-28" y="655" type="line"/>
      <point x="-28" y="583" type="line"/>
      <point x="61" y="583" type="line"/>
      <point x="61" y="146" type="line" smooth="yes"/>
      <point x="61" y="44"/>
      <point x="117" y="-5"/>
      <point x="237" y="-5" type="curve" smooth="yes"/>
      <point x="290" y="-5"/>
      <point x="335" y="5"/>
      <point x="360" y="15" type="curve"/>
    </contour>
  </outline>
</glyph>
<glyph name="dvAI" format="1">
  <advance width="431"/>
  <unicode hex="0910"/>
  <outline>
    <contour>
      <point x="287" y="655" type="line"/>
      <point x="374" y="655" type="line"/>
      <point x="218" y="885" type="line"/>
      <point x="123" y="885" type="line"/>
    </contour>
    <contour>
      <point x="357" y="93" type="line"/>
      <point x="328" y="83"/>
      <point x="285" y="74"/>
      <point x="235" y="74" type="curve" smooth="yes"/>
      <point x="169" y="74"/>
      <point x="146" y="100"/>
      <point x="146" y="144" type="curve" smooth="yes"/>
      <point x="146" y="583" type="line"/>
      <point x="292" y="583" type="line"/>
      <point x="292" y="403" type="line" smooth="yes"/>
      <point x="292" y="366"/>
      <point x="282" y="344"/>
      <point x="236" y="344" type="curve" smooth="yes"/>
      <point x="232" y="344"/>
      <point x="225" y="344"/>
      <point x="220" y="345" type="curve"/>
      <point x="220" y="266" type="line"/>
      <point x="228" y="265"/>
      <point x="236" y="265"/>
      <point x="243" y="265" type="curve" smooth="yes"/>
      <point x="342" y="265"/>
      <point x="377" y="318"/>
      <point x="377" y="399" type="curve" smooth="yes"/>
      <point x="377" y="583" type="line"/>
      <point x="459" y="583" type="line"/>
      <point x="459" y="655" type="line"/>
      <point x="-28" y="655" type="line"/>
      <point x="-28" y="583" type="line"/>
      <point x="61" y="583" type="line"/>
      <point x="61" y="142" type="line" smooth="yes"/>
      <point x="61" y="45"/>
      <point x="115" y="-5"/>
      <point x="233" y="-5" type="curve" smooth="yes"/>
      <point x="287" y="-5"/>
      <point x="332" y="5"/>
      <point x="357" y="15" type="curve"/>
    </contour>
  </outline>
</glyph>
<glyph name="dvOcandra" format="1">
  <advance width="805"/>
  <unicode hex="0911"/>
  <outline>
    <contour>
      <point x="656" y="583" type="line"/>
      <point x="656" y="0" type="line"/>
      <point x="741" y="0" type="line"/>
      <point x="741" y="583" type="line"/>
      <point x="834" y="583" type="line"/>
      <point x="834" y="655" type="line"/>
      <point x="564" y="655" type="line"/>
      <point x="564" y="583" type="line"/>
    </contour>
    <contour>
      <point x="687" y="857" type="line"/>
      <point x="687" y="810"/>
      <point x="660" y="795"/>
      <point x="596" y="795" type="curve" smooth="yes"/>
      <point x="532" y="795"/>
      <point x="506" y="810"/>
      <point x="506" y="857" type="curve"/>
      <point x="423" y="857" type="line"/>
      <point x="423" y="854" type="line"/>
      <point x="423" y="757"/>
      <point x="484" y="721"/>
      <point x="596" y="721" type="curve" smooth="yes"/>
      <point x="709" y="721"/>
      <point x="770" y="757"/>
      <point x="770" y="854" type="curve"/>
      <point x="770" y="857" type="line"/>
    </contour>
    <component base="dvA" xOffset="17"/>
  </outline>
</glyph>
<glyph name="dvKA" format="1">
  <advance width="595"/>
  <unicode hex="0915"/>
  <outline>
    <contour>
      <point x="341" y="655" type="move" name="abvm.bindu"/>
    </contour>
    <contour>
      <point x="341" y="0" type="move" name="blwm.virama"/>
    </contour>
    <contour>
      <point x="341" y="655" type="move" name="abvm.e"/>
    </contour>
    <contour>
      <point x="341" y="0" type="move" name="blwm.u"/>
    </contour>
    <contour>
      <point x="257" y="583" type="line"/>
      <point x="-28" y="583" type="line"/>
      <point x="-28" y="655" type="line"/>
      <point x="623" y="655" type="line"/>
      <point x="623" y="583" type="line"/>
      <point x="341" y="583" type="line"/>
      <point x="341" y="497" type="line"/>
      <point x="353" y="501"/>
      <point x="378" y="505"/>
      <point x="408" y="505" type="curve" smooth="yes"/>
      <point x="506" y="505"/>
      <point x="553" y="458"/>
      <point x="553" y="371" type="curve" smooth="yes"/>
      <point x="553" y="203" type="line" smooth="yes"/>
      <point x="553" y="122"/>
      <point x="517" y="69"/>
      <point x="422" y="69" type="curve" smooth="yes"/>
      <point x="413" y="69"/>
      <point x="404" y="70"/>
      <point x="399" y="71" type="curve"/>
      <point x="399" y="150" type="line"/>
      <point x="403" y="150"/>
      <point x="410" y="149"/>
      <point x="416" y="149" type="curve" smooth="yes"/>
      <point x="461" y="150"/>
      <point x="471" y="173"/>
      <point x="471" y="209" type="curve" smooth="yes"/>
      <point x="471" y="369" type="line" smooth="yes"/>
      <point x="471" y="406"/>
      <point x="455" y="430"/>
      <point x="400" y="430" type="curve" smooth="yes"/>
      <point x="377" y="430"/>
      <point x="356" y="427"/>
      <point x="341" y="422" type="curve"/>
      <point x="341" y="0" type="line"/>
      <point x="257" y="0" type="line"/>
      <point x="257" y="73" type="line"/>
      <point x="245" y="70"/>
      <point x="217" y="64"/>
      <point x="187" y="64" type="curve" smooth="yes"/>
      <point x="88" y="64"/>
      <point x="42" y="108"/>
      <point x="42" y="195" type="curve" smooth="yes"/>
      <point x="42" y="371" type="line" smooth="yes"/>
      <point x="42" y="457"/>
      <point x="88" y="504"/>
      <point x="187" y="504" type="curve" smooth="yes"/>
      <point x="199" y="504"/>
      <point x="211" y="503"/>
      <point x="216" y="501" type="curve"/>
      <point x="216" y="428" type="line"/>
      <point x="211" y="429"/>
      <point x="202" y="430"/>
      <point x="195" y="430" type="curve" smooth="yes"/>
      <point x="139" y="430"/>
      <point x="124" y="405"/>
      <point x="124" y="369" type="curve" smooth="yes"/>
      <point x="124" y="198" type="line" smooth="yes"/>
      <point x="124" y="161"/>
      <point x="139" y="136"/>
      <point x="195" y="136" type="curve" smooth="yes"/>
      <point x="222" y="136"/>
      <point x="246" y="142"/>
      <point x="257" y="146" type="curve"/>
    </contour>
  </outline>
</glyph>
